<?xml version="1.0" standalone="no"?>
<!DOCTYPE svg PUBLIC "-//W3C//DTD SVG 1.1//EN" "http://www.w3.org/Graphics/SVG/1.1/DTD/svg11.dtd" >
<svg xmlns="http://www.w3.org/2000/svg" xmlns:xlink="http://www.w3.org/1999/xlink" version="1.1">
<metadata>
Created by FontForge 20201107 at Fri Apr 17 00:45:07 2020
 By Jimmy Wärting
Sunday Best (c) (NJ Studio). 2020. All Rights Reserved
</metadata>
<defs>
<font id="SundayBest" horiz-adv-x="730" >
  <font-face 
    font-family="Sunday Best"
    font-weight="400"
    font-stretch="normal"
    units-per-em="1000"
    panose-1="2 0 5 0 0 0 0 0 0 0"
    ascent="800"
    descent="-200"
    x-height="959"
    cap-height="960"
    bbox="-104 -580 1468 1331"
    underline-thickness="50"
    underline-position="-100"
    unicode-range="U+0020-2265"
  />
<missing-glyph horiz-adv-x="500" 
 />
    <glyph glyph-name=".notdef" horiz-adv-x="500" 
 />
    <glyph glyph-name=".null" horiz-adv-x="0" 
 />
    <glyph glyph-name="nonmarkingreturn" horiz-adv-x="508" 
 />
    <glyph glyph-name="space" unicode=" " horiz-adv-x="500" 
 />
    <glyph glyph-name="space" unicode="&#xa0;" horiz-adv-x="500" 
 />
    <glyph glyph-name="exclam" unicode="!" horiz-adv-x="422" 
d="M249 109q-30 1 -60 1t-60 2q-38 2 -52.5 18.5t-15.5 54.5l-1 51q0 84 5 166.5t7 165.5l4 308v14t1 14q3 22 13.5 33.5t32.5 14.5q29 4 57 5.5t57 1.5q38 0 77 -3q46 -3 46 -55v-7q-2 -36 -3 -72.5t-1 -76.5l1 -119q0 -97 -6 -199.5t-6 -208.5v-43q0 -26 -9.5 -37
t-35.5 -20q-24 -9 -51 -9zM209 -304q-22 0 -43.5 0.5t-43.5 1.5q-43 1 -51 47q-2 12 -2.5 25t-0.5 26l-4 128q0 33 14 47.5t49 16.5l28 1l112 2l28 -1q52 -3 55 -55q1 -26 1 -52v-52q1 -15 2 -29.5t6 -29.5q3 -9 3 -18q0 -20 -13 -34t-36 -17q-26 -4 -52 -5.5t-52 -1.5z" />
    <glyph glyph-name="quotedbl" unicode="&#x22;" horiz-adv-x="533" 
d="M158 490q-11 0 -21 0.5t-21 1.5q-29 3 -42.5 14.5t-13.5 37.5l1 13q4 46 7 91.5t4 91.5v35q0 54 -3 105v13q0 32 13 44t48 17q39 5 78 4.5t78 0.5h3q22 0 32.5 -12t13.5 -38q4 -29 5.5 -57t1.5 -57q0 -45 -3 -90q-2 -38 -3.5 -75.5t-3.5 -75.5q-3 -49 -49 -54
q-32 -3 -62.5 -6.5t-62.5 -3.5zM409 501q-30 4 -39 34q-2 4 -2 8v8l1 20q5 54 9 108t4 109q0 52 -6 106l-1 8l1 8q2 21 14 34t30 15h2q17 0 29.5 -11.5t15.5 -33.5q3 -26 4.5 -53t1.5 -59l-1 -59q0 -35 -3 -81t-8 -95q-1 -8 -2 -17.5t-4 -17.5q-10 -31 -41 -31h-5z" />
    <glyph glyph-name="numbersign" unicode="#" horiz-adv-x="1124" 
d="M657 110q11 0 17 0.5t10 3.5t5.5 9t3.5 17q14 81 36.5 159.5t46.5 156.5q8 25 15.5 50t9.5 54l-206 7q-13 0 -16.5 -8t-5.5 -18q-4 -19 -13 -51.5t-19.5 -71t-22 -80t-22 -78.5t-18 -65.5t-9.5 -42.5l-4 -24q0 -10 7 -11.5t25 -2.5q40 -2 79.5 -2.5t80.5 -1.5zM634 -302
q-4 0 -7 0.5t-7 1.5q-14 4 -22.5 16t-9.5 29v4q0 11 3 21.5t8 21.5q5 12 10.5 33t14.5 44q10 26 16.5 53t14.5 53q2 7 4 13.5t2 14.5q0 3 -0.5 6t-1.5 7q-50 2 -99 3.5t-100 3.5h-2q-11 0 -15.5 -5.5t-6.5 -14.5q-11 -42 -20.5 -84t-18.5 -85q-7 -32 -15.5 -59.5
t-17.5 -53.5q-10 -24 -34 -24h-7q-18 1 -35.5 1.5t-35.5 0.5l-61 -1l-40 1q-51 2 -53 47q0 11 5 24q11 28 18.5 60t15.5 66q6 26 10.5 53t12.5 53l2 10q0 12 -18 12l-22 2t-22 3q-19 5 -29.5 16.5t-10.5 26.5v4q2 17 14 28.5t32 13.5h14q10 0 19.5 -0.5t18.5 -1.5h8
q11 0 17.5 4.5t8.5 18.5q27 98 49 189.5t50 185.5q2 7 3.5 13.5t3.5 13.5l2 12q0 16 -22 16q-17 0 -39 5q-38 9 -38 42v2q0 17 11.5 29.5t31.5 14.5l20 1q18 0 36 -3l8 -1q22 0 28 27q14 57 28 111.5t27 105.5q4 17 8.5 28t11.5 17t17.5 8t27.5 2h79q18 0 36 -0.5t36 -2.5
q30 -4 44 -14t14 -32q0 -7 -1.5 -14.5l-3.5 -17.5q-10 -41 -22 -86t-24 -92q-2 -10 -4 -16.5t-2 -11.5q0 -9 8 -11t28 -3l152 -3q12 0 19 0.5t10.5 3.5t6 9t5.5 18l28 108t28 109q3 16 9 31q6 13 17 19.5t24 6.5l9 -1q15 -4 24.5 -15t10.5 -28v-4q0 -7 -1 -13.5t-3 -13.5
l-47 -183q-2 -6 -3.5 -12t-1.5 -12q0 -7 2 -11q7 -3 16 -3q6 0 11.5 0.5t11.5 1.5q11 0 22 1t22 1q43 -2 48 -40v-4q0 -17 -11 -29.5t-31 -16.5q-5 -2 -11 -2h-12q-20 -2 -38.5 -4t-37.5 -3q-22 0 -28 -22q-11 -48 -25 -95.5l-28 -95t-27.5 -95t-22.5 -96.5l-4 -20l-1 -14
q0 -7 3 -9t12 -2h8q14 1 29 2.5t30 1.5q52 0 55 -41v-4q0 -19 -14 -31.5t-37 -15.5q-22 -2 -43.5 -3.5t-43.5 -3.5q-11 -1 -18.5 -5t-10.5 -16q-10 -42 -22 -83t-22 -85q-8 -33 -20 -61.5t-20 -49.5q-5 -13 -15.5 -19.5t-23.5 -6.5z" />
    <glyph glyph-name="dollar" unicode="$" horiz-adv-x="721" 
d="M303 -303q-29 0 -41.5 11.5t-14.5 40.5t-3.5 58.5t-1.5 55.5v25q0 18 -6.5 29t-23.5 16q-11 4 -22.5 8t-22.5 9q-60 26 -83.5 67.5t-23.5 104.5v18q1 21 15 33t32 12q17 0 30 -11.5t13 -31.5v-15q0 -42 21.5 -65t63.5 -41q25 -11 48 -11q24 0 45 11.5t47 31.5
q9 7 13 17.5t6 21.5q3 13 3 29q0 21 -6 43t-18 42t-31 36t-46 25t-53.5 18t-54.5 14q-58 12 -84 67q-31 66 -31 134q0 83 48 164q26 44 75 64q19 7 26.5 19t7.5 30v8q-1 18 -2 35t-1 28q0 10 0.5 20t1.5 20q2 19 5.5 31t11 19.5t20 11.5t30.5 6q28 3 56 3q22 0 44 -1t44 -3
q29 -2 40.5 -14t12.5 -41l1 -58l-1 -49q0 -15 5.5 -23t21.5 -13q29 -8 52.5 -28.5t40 -47t25.5 -54.5t9 -49v-3q-1 -23 -12.5 -37.5t-30.5 -15.5h-2q-18 0 -30.5 11.5t-15.5 32.5q-4 40 -27 75q-19 30 -49 30l-12 -1q-39 -8 -70 -26t-45 -60q-15 -44 -15 -86q0 -35 11 -67
q6 -17 17 -27t31 -15q44 -11 86 -24.5t80 -40.5q46 -32 72 -87t26 -114q0 -23 -4 -45.5t-14 -42.5q-16 -36 -44.5 -57t-60.5 -37q-34 -17 -34 -48l1 -11q2 -25 2.5 -52t1.5 -55v-10q0 -38 -14.5 -52t-55.5 -15h-68v-1h-68z" />
    <glyph glyph-name="percent" unicode="%" horiz-adv-x="1092" 
d="M562 -301q-20 1 -40 1h-40l-59 1l-29 1q-23 2 -37 14t-14 31q0 12 4 21q12 29 19 58.5t13 59l12 59t15 59.5q19 58 29 118t24 120q15 68 36 131q40 131 73.5 261.5t67.5 255.5l4 18t5 17q11 34 45 34h89h44t44 -2q23 -2 35 -15t12 -34q0 -4 -0.5 -8t-1.5 -9
q-5 -26 -11.5 -52t-14.5 -52q-33 -118 -65 -241.5t-71 -248.5q-23 -73 -35.5 -147.5t-32.5 -148.5q-11 -43 -21 -84.5t-18 -83.5q-5 -29 -14 -54.5t-19 -51.5q-5 -16 -18 -22t-30 -6zM383 604q14 0 24 8t16 20q16 31 26 63.5t10 67.5v11t-1 12q-5 41 -36 64q-19 14 -36 14
q-14 0 -25 -9t-17 -27q-9 -26 -12 -52.5t-3 -54.5q1 -20 2 -39.5t7 -38.5q5 -15 14 -26.5t27 -12.5h4zM374 508q-13 -1 -29.5 -1h-32.5q-18 0 -38 -1h-71q-87 6 -121 85q-8 18 -12 37.5t-7 39.5q-3 25 -3 50q0 61 17 124q9 35 31 65q18 23 40.5 35.5t54.5 12.5t65 2t67 2
l47 -2q55 -4 98 -35t60 -84q12 -36 12 -75q0 -8 -0.5 -15.5t-1.5 -15.5q-5 -34 -14 -66.5t-24 -63.5q-21 -43 -54.5 -67.5t-83.5 -26.5zM863 -209q16 0 25.5 10t17.5 23q15 30 23.5 60t9.5 53q0 38 -9 64t-35 42q-15 9 -30 9q-13 0 -23 -7.5t-15 -22.5q-19 -51 -19 -107
q0 -20 2.5 -40.5t7.5 -40.5q4 -16 12.5 -28t25.5 -14zM860 -302q-38 0 -70.5 20.5t-50.5 61.5q-14 32 -17.5 65t-5.5 66q2 61 15 116q3 14 8.5 27t11.5 25q18 37 47.5 52.5t61.5 15.5q43 0 79 -22q50 -30 71.5 -74.5t21.5 -100.5v-12q-2 -39 -12.5 -76.5t-27.5 -72.5
q-7 -14 -15.5 -26t-19.5 -23q-22 -22 -46.5 -32t-50.5 -10z" />
    <glyph glyph-name="ampersand" unicode="&#x26;" horiz-adv-x="768" 
d="M224 -244q26 0 46 25q11 12 20 25l18 26q8 11 11.5 17t3.5 11t-3.5 11t-11.5 16q-19 25 -32 52.5t-24 56.5q-7 20 -16 38t-17 36q-8 -2 -10.5 -5t-4.5 -6q-28 -45 -40 -92.5t-12 -99.5v-18q1 -39 27 -69q19 -24 45 -24zM384 370q8 0 11.5 4t7.5 8q54 54 90.5 117.5
t58.5 134.5q9 30 9 59q0 35 -12 68t-35 62q-11 14 -27 23.5t-33 9.5t-33 -10.5t-27 -36.5q-4 -8 -7 -16.5t-6 -17.5q-14 -45 -19.5 -89t-5.5 -89q0 -20 1 -41t3 -41q4 -37 8 -73.5t14 -71.5h2zM224 -337q-35 0 -67.5 16.5t-56.5 50.5q-18 26 -28.5 54.5t-11.5 60.5v21
q0 80 22.5 151t73.5 134q7 9 10.5 17t3.5 17q0 8 -5 23q-34 95 -49 192.5t-15 197.5l1 50q2 46 11 90.5t25 89.5q39 113 158 127q16 2 32 3t32 1q65 0 126 -16q50 -12 82.5 -41t51.5 -74q15 -36 23.5 -72.5t8.5 -73.5q0 -29 -5.5 -58.5t-19.5 -58.5q-35 -79 -80 -150
t-110 -129q-21 -21 -21 -40q0 -12 8 -30q15 -31 27.5 -64t28.5 -71q24 35 46 66.5t43 63.5q5 7 9 13.5t9 12.5q14 14 33 14q11 0 22 -6t17 -17t6 -23q0 -10 -2 -15q-3 -8 -8 -15.5t-10 -15.5q-26 -38 -51.5 -76t-52.5 -75q-11 -16 -11 -27t8 -24q32 -50 63 -90t74 -69l8 -6
t7 -7q18 -15 18 -34l-2 -12q-5 -15 -14.5 -26t-24.5 -13q-11 -1 -21.5 -1h-21.5h-44q-11 0 -25 -0.5t-27 -0.5q-14 0 -24.5 1t-16.5 3q-18 7 -31.5 20t-28.5 23q-15 11 -22.5 20t-20.5 13l-40 -53q-24 -32 -55.5 -47t-64.5 -15z" />
    <glyph glyph-name="quotesingle" unicode="'" horiz-adv-x="402" 
d="M161 490q-11 0 -20.5 0.5t-20.5 1.5q-32 2 -46 14t-14 40l1 19q5 43 7.5 85.5t4.5 85.5l1 51q0 23 -1 44.5t-4 44.5l-1 20q0 29 15 41.5t51 16.5q24 3 48 4t48 1l59 -1q41 0 47 -49q3 -27 4.5 -54t1.5 -58l-1 -61q0 -41 -4 -87.5t-6 -94.5q0 -48 -48 -54
q-30 -3 -60.5 -6.5t-61.5 -3.5z" />
    <glyph glyph-name="parenleft" unicode="(" horiz-adv-x="516" 
d="M312 -304h-42.5t-42.5 2q-17 2 -26.5 13t-16.5 25q-35 79 -62 160t-41 166q-13 73 -16 140t-5 108v43q0 57 2 107.5t7 97t13.5 90t21.5 85.5q14 48 33 92.5t44 86.5q12 20 28 32t42 14q11 1 20.5 1h20.5q31 0 61.5 -2t61.5 -6q20 -2 30.5 -13.5t10.5 -28.5q0 -13 -6 -26
q-8 -15 -17 -29.5t-17 -29.5q-38 -75 -57.5 -155t-25.5 -164q-6 -78 -6 -157q0 -63 4 -125t13 -125q12 -85 37.5 -165.5t60.5 -158.5q3 -4 7 -14q4 -11 4 -23q0 -20 -13.5 -29.5t-37.5 -10.5l-33 -1h-57z" />
    <glyph glyph-name="parenright" unicode=")" horiz-adv-x="335" 
d="M97 -300q-17 4 -27 17t-10 30v7q1 12 5.5 23t9.5 22q28 69 51 139t37 143q10 51 14 104t4 113q0 32 -1.5 63.5t-3.5 63.5q-7 94 -21 186t-45 183q-7 19 -13.5 37.5t-16.5 36.5q-10 17 -13 33v8q0 17 8.5 30t25.5 18l13 2q13 0 24.5 -8t17.5 -22q11 -24 21 -48t18 -49
q21 -64 36 -130t24 -137.5t13.5 -150.5t5.5 -168l1 -32q0 -44 -8 -95.5t-22.5 -107t-34 -113.5t-42.5 -116q-5 -12 -9 -24l-8 -24q-11 -36 -41 -36z" />
    <glyph glyph-name="asterisk" unicode="*" horiz-adv-x="496" 
d="M244 508q-17 1 -28.5 11.5t-14.5 28.5q-2 13 -2.5 26.5t-2.5 33.5l-41 -58q-25 -35 -51 -35q-14 0 -25 8q-18 12 -18 36q0 11 4 22.5t13 22.5q21 26 40 54.5t39 56.5q7 10 7 18q0 9 -7 17q-20 27 -39 55t-39 56q-4 5 -7.5 10t-5.5 10q-6 12 -6 25q0 11 4.5 20.5
t13.5 15.5q13 8 26 8q20 0 36 -16q6 -7 11 -14.5t10 -14.5l26 -33q3 16 4.5 28.5t5.5 23.5q5 17 18 26t27 9q17 0 28 -10q16 -15 16 -36l-1 -20q0 -11 4 -23q14 10 24.5 22t21.5 23q8 7 14.5 14.5t14.5 12.5q13 9 28 9q18 0 31 -13t13 -30q0 -14 -10 -28q-8 -12 -18.5 -23
t-20.5 -22q-20 -22 -39 -43.5t-39 -42.5q-9 -9 -9 -17t9 -17q24 -24 46.5 -49t45.5 -51q7 -8 13.5 -15t12.5 -15q9 -15 9 -28q0 -17 -14 -31q-12 -12 -29 -12q-14 0 -29 9q-12 8 -20.5 19t-19.5 20q-7 6 -12 13t-15 9q-7 -8 -6 -18t-2 -20q-13 -38 -45 -38z" />
    <glyph glyph-name="plus" unicode="+" horiz-adv-x="719" 
d="M413 23q-35 0 -70 3.5t-70 6.5q-20 2 -30.5 14t-13.5 31q-5 28 -6 55.5t-2 55.5l-1 38l1 42q0 25 -24 25l-75 1q-9 1 -18 1.5t-17 5.5q-27 13 -27 38l1 7q3 29 32 37q16 4 36 4l62 -2q12 0 19 2.5t10.5 9t4.5 18.5t2 31q2 35 2 69.5t2 69.5q1 28 13 42t39 16q39 3 78 3
q27 0 53 -2.5t52 -10.5q23 -7 33 -17.5t11 -34.5q1 -11 1 -23v-23l-5 -126q1 -20 3 -26t16 -6l16 1q15 2 30 3l30 2h3q25 0 39 -11t16 -30v-4q0 -37 -47 -45q-21 -3 -42 -5t-42 -2q-16 -1 -22 -8t-6 -21q0 -39 1 -78t5 -78l1 -16q0 -58 -66 -62l-28 -1v0z" />
    <glyph glyph-name="comma" unicode="," horiz-adv-x="428" 
d="M131 -475h-8t-8 1q-20 3 -32.5 15.5t-12.5 29.5v2q0 17 12 29t32 14q20 3 40 3t40 1q5 1 10 1h10q17 0 28 2t17 8t8.5 16.5t4.5 27.5v6q0 17 -18 17l-79 1l-46 -1q-37 0 -50 17.5t-15 52.5q-2 42 -3 82t-1 82q0 52 51 55q32 2 65 3.5t65 1.5q20 0 38.5 -1t38.5 -3
q24 -2 36 -14t13 -38l1 -45l-4 -218q-1 -24 -7 -47.5t-18 -44.5q-13 -23 -32.5 -36.5t-47.5 -14.5l-64 -2t-64 -3z" />
    <glyph glyph-name="hyphen" unicode="-" horiz-adv-x="719" 
d="M487 286q-71 0 -143 9h-216q-10 0 -20 0.5t-19 5.5q-29 13 -29 40v3q0 31 33 40q15 4 34 4l30 -1q68 -4 135.5 -4t135.5 -5l49 -2q27 0 53.5 2t53.5 5l17 1l23 -2q15 -3 24 -14t11 -25v-3q0 -14 -7 -25t-21 -16t-27.5 -7t-27.5 -3q-45 -3 -89 -3z" />
    <glyph glyph-name="hyphen" unicode="&#xad;" horiz-adv-x="719" 
d="M487 286q-71 0 -143 9h-216q-10 0 -20 0.5t-19 5.5q-29 13 -29 40v3q0 31 33 40q15 4 34 4l30 -1q68 -4 135.5 -4t135.5 -5l49 -2q27 0 53.5 2t53.5 5l17 1l23 -2q15 -3 24 -14t11 -25v-3q0 -14 -7 -25t-21 -16t-27.5 -7t-27.5 -3q-45 -3 -89 -3z" />
    <glyph glyph-name="period" unicode="." horiz-adv-x="418" 
d="M205 -301q-23 0 -44.5 0.5t-44.5 1.5q-41 1 -49 45q-2 12 -2.5 25t-0.5 26q-2 31 -2 62t-2 62v7q0 32 14 46t47 17l44 2h44l56 1l28 -1q49 -3 52 -53q2 -25 2 -50v-50q1 -17 2 -33.5t6 -33.5q3 -9 3 -17q0 -19 -13 -33t-34 -17q-26 -4 -52.5 -5.5t-53.5 -1.5z" />
    <glyph glyph-name="slash" unicode="/" horiz-adv-x="682" 
d="M142 -301l-29 1q-25 2 -39 13t-14 31q0 10 5 23q11 29 17 59t10.5 60t9.5 60t14 59q18 57 28.5 116t24.5 118q15 67 36 135q41 133 74.5 263.5t65.5 255.5q2 6 3 12t3 12q7 23 18.5 32.5t35.5 9.5q41 0 81.5 -0.5t81.5 -2.5q54 -3 54 -46q0 -10 -3 -23q-14 -56 -28 -111
l-28 -110q-20 -74 -41 -155t-48 -163q-17 -52 -29 -104t-23 -105q-13 -64 -28.5 -127t-26.5 -127q-7 -35 -13 -70t-19 -70q-10 -27 -20 -36.5t-35 -9.5h-138z" />
    <glyph glyph-name="zero" unicode="0" horiz-adv-x="727" 
d="M287 -205q25 0 43 24q18 25 27 53t17 57q21 86 29 174.5t10 186.5q3 39 3 77q0 104 -17.5 205.5t-46.5 203.5q-5 17 -11.5 33.5t-18.5 30.5q-17 21 -36 21q-21 0 -36 -24q-7 -11 -11.5 -23t-8.5 -24q-38 -109 -56 -220.5t-23 -226.5l-1 -36q0 -125 24 -240t60 -227l6 -15
q8 -15 20.5 -22.5t26.5 -7.5zM396 -305q-56 0 -111 6q-107 10 -143 120q-41 123 -61.5 246.5t-20.5 254.5q0 85 9 168t29 168q11 49 24 97t31 95q21 54 60.5 80t96.5 27q35 0 70 0.5t70 1.5h4q41 0 76 -30q46 -42 65 -104q16 -56 29.5 -110t23 -111.5t14.5 -120.5t5 -136
l-2 -82q0 -71 -9 -166.5t-34 -195.5q-11 -46 -30 -87t-49 -77q-14 -17 -31 -27.5t-40 -12.5q-19 -2 -38 -3t-38 -1z" />
    <glyph glyph-name="one" unicode="1" horiz-adv-x="588" 
d="M126 -304q-8 0 -16.5 1t-16.5 5q-33 14 -33 43v6q2 16 13.5 26.5t30.5 12.5q14 2 28 2h28q21 1 22 22q2 57 8.5 121.5t6.5 132.5v48q0 69 3.5 138.5t3.5 138.5l-1 42l-4 126t-10 131q-11 -8 -18.5 -14t-15.5 -11q-16 -10 -32 -10q-23 0 -36 18q-10 13 -10 29q0 12 5.5 23
t16.5 18q31 19 54.5 44.5t48.5 50.5q33 34 72 59.5t79 50.5q15 9 33 9q26 0 47 -18t21 -47q0 -14 1 -27t1 -27l-1 -18q-3 -39 -3 -78q0 -53 3.5 -105t5.5 -105q2 -41 3 -81.5t1 -81.5q0 -88 -6 -176q-1 -14 -1.5 -28t-0.5 -28l1 -66q0 -60 -4 -119t-10 -119l-2 -28
q0 -16 15 -16h19q11 0 16 -1q17 -4 26.5 -15.5t9.5 -26.5v-3q0 -29 -29 -40q-8 -3 -15.5 -4.5t-15.5 -2.5q-35 -2 -92 -2h-113h-137v0z" />
    <glyph glyph-name="two" unicode="2" horiz-adv-x="709" 
d="M252 -308q-57 0 -114 6q-29 3 -44 17.5t-15 34.5q0 19 15 42q35 45 59 100t43 115l103 325q21 66 36 133t26 136q3 21 3 41q0 59 -24 109t-58 98q-11 15 -29 15q-17 0 -31 -13q-17 -16 -28.5 -35t-19.5 -42q-12 -32 -16.5 -65.5t-4.5 -67.5v-128q-2 -28 -13.5 -43
t-31.5 -15h-2q-19 1 -31.5 14.5t-12.5 38.5v3q0 28 -1 55.5t-1 55.5q0 41 4 80.5t15 78.5q11 38 29 72t47 62q43 43 100 43h21q20 0 40.5 0.5t40.5 0.5q35 0 70 -3q72 -6 109 -65q33 -52 60 -105.5t32 -117.5l1 -23q0 -38 -6 -74.5t-13 -73.5q-15 -82 -39.5 -160.5
t-48.5 -158.5q-10 -30 -20 -62t-20 -63t-19.5 -60t-16.5 -53q-7 -20 -15 -39.5t-17 -38.5l-31 -73q8 -2 14.5 -2.5t13.5 -0.5q18 0 33 3q14 2 27.5 3t27.5 1l71 -2l31 1q20 0 32.5 -11t15.5 -28v-6q0 -16 -11 -28.5t-33 -17.5q-16 -4 -36 -4l-59 2q-33 0 -65.5 -2t-65.5 -2
q-5 0 -21 -0.5t-36 -1t-39.5 -1t-30.5 -0.5z" />
    <glyph glyph-name="three" unicode="3" horiz-adv-x="749" 
d="M326 -304h-37.5t-38.5 2q-24 2 -44 15.5t-37 30.5q-44 49 -68 105t-34 119q-2 18 -3.5 36t-1.5 36q0 35 3.5 69.5t8.5 69.5q8 43 44 43h4q19 -1 31 -14t12 -34v-8q0 -14 -1.5 -28t-3.5 -28q-2 -17 -3.5 -33t-1.5 -33q0 -99 48 -189q17 -32 47 -49t62 -17q20 0 39 6t36 20
q11 9 18 21.5t12 25.5q9 26 13 51t4 51q0 32 -5.5 63t-14.5 63q-2 7 -6 12.5t-8 11.5q-11 18 -25 18q-8 0 -18 -6q-4 -3 -8.5 -4.5t-9.5 -3.5q-10 -2 -15 -2q-26 0 -38 20q-8 13 -8 26q0 17 13 33q7 7 16 13q32 22 52 52t32 66q9 26 15.5 68t7.5 83l1 87q0 33 -1 66.5
t-4 67.5q-2 30 -8.5 59t-15.5 58q-15 45 -46 45q-15 0 -37 -9q-45 -20 -74 -59q-33 -45 -51 -95t-24 -105l-1 -17q0 -14 2.5 -29t6.5 -29q3 -9 3 -18q0 -30 -29 -40q-8 -3 -16 -3q-30 0 -44 30q-16 39 -16 83v13.5t1 13.5q6 62 25 119t53 110q38 60 91 94.5t125 38.5h74
l74 -1q48 -2 78 -25.5t48 -64.5q29 -67 35 -139q4 -36 6.5 -71.5t2.5 -65.5v-21q-2 -75 -4.5 -137t-17.5 -110q-8 -25 -16.5 -49t-22.5 -46q-2 -5 -4 -8.5t-2 -7.5q0 -6 6 -12q26 -26 41.5 -54t23.5 -59t10 -63t2 -65v-24q0 -78 -42 -150q-34 -58 -101 -75
q-38 -10 -74.5 -12t-74.5 -2h-71z" />
    <glyph glyph-name="four" unicode="4" horiz-adv-x="762" 
d="M376 230q19 0 28.5 0.5t14 4.5t5 13.5l1.5 28.5q1 4 1 12l11 414v38q0 7 -2 7t-3 -0.5t-4 -4.5q-63 -118 -126 -244t-118 -261q45 -2 89 -5t89 -3h14zM522 -304h-24t-24 1q-30 2 -42.5 14.5t-16.5 41.5q-1 8 -1 15v15q0 17 0.5 33t1.5 33l3 247l2 23q0 18 -18 18h-23
q-42 0 -84 2.5t-85 2.5q-21 0 -41.5 -1t-41.5 -4l-14 -1q-26 0 -40 13.5t-14 36.5q0 14 4 26q2 8 6 16.5t9 16.5q28 53 52 107.5t50 109.5q38 83 77.5 162t79.5 148q16 32 31.5 62.5t30.5 62.5q30 61 93 61h63h35t35 -1q38 -2 55.5 -20t19.5 -55l1 -35q0 -36 -2 -72t-3 -72
q-2 -86 -4.5 -187.5t-6.5 -233.5q-1 -88 -6.5 -198.5t-5.5 -228.5v-50l1 -52q-2 -25 -13.5 -37t-36.5 -15q-26 -2 -51.5 -3.5t-51.5 -1.5z" />
    <glyph glyph-name="five" unicode="5" horiz-adv-x="755" 
d="M362 -304q-49 0 -98 3q-99 6 -154 86q-16 23 -26.5 47.5t-20.5 49.5q-3 9 -3 21v7q1 17 10.5 28t24.5 14q4 1 11 1q26 0 38 -26q8 -15 14 -30.5t13 -31.5q31 -73 108 -73h12q34 1 62 25q34 28 49 65t19 79q3 30 3 60q0 28 -2.5 56t-7.5 55q-4 24 -15.5 43.5t-26.5 37.5
q-20 23 -50 23q-5 0 -11 -1t-12 -3q-34 -10 -65.5 -25t-55.5 -42q-4 -4 -5 -6q-17 -18 -36 -18q-5 0 -9.5 1t-9.5 3q-29 11 -31 46q-5 96 -10.5 190t-5.5 191q0 45 1.5 88t5.5 88q3 37 5 73.5t4 73.5q3 37 18 50t51 13h168t168 1h70t70 -1q31 0 43 -13t12 -42l-1 -139
q0 -61 1.5 -121t6.5 -120l1 -32q-2 -19 -13.5 -30.5t-31.5 -12.5l-92 -1l-92 1q-38 2 -43 49q-7 73 -9 148q0 48 -1 96t-1 96q0 15 -6 21.5t-22 6.5q-15 -1 -30 -1h-30q-30 0 -60 0.5t-60 0.5h-3q-15 0 -20 -7t-6 -21q-4 -77 -7.5 -153t-3.5 -153q0 -48 1.5 -93.5t6.5 -92.5
q2 -14 2 -28t2 -29h9q51 27 104 35.5t107 8.5q26 0 53 -1t53 -2q32 -2 59 -16.5t48 -38.5q24 -26 41 -56.5t23 -66.5q5 -33 8.5 -66.5t3.5 -66.5q0 -32 -3 -62.5t-11 -62.5q-13 -54 -42.5 -94.5t-73.5 -71.5q-22 -15 -45.5 -21.5t-49.5 -7.5l-98 -2v0z" />
    <glyph glyph-name="six" unicode="6" horiz-adv-x="692" 
d="M275 -210q15 4 28 11q11 6 22.5 17t17.5 28q14 40 24 87.5t10 101.5l1 42l-2 27q-5 38 -24.5 55t-57.5 17l-32 -1h-15q-14 0 -26.5 -3t-20.5 -16q-13 -20 -26.5 -40t-13.5 -46v-6q2 -31 4.5 -61.5t3.5 -62.5q2 -26 9 -49t17 -46q11 -28 32 -40t49 -15zM331 -304
q-30 0 -59.5 2t-58.5 10q-30 8 -51 26.5t-37 44.5q-46 73 -50 158q-3 75 -8 148t-7 147v43q0 89 7 181t14 173q3 35 13 79t24 89q4 15 10 28.5t13 26.5q26 51 65.5 78.5t96.5 27.5h103q18 0 35.5 -0.5t35.5 -2.5q54 -5 85 -31.5t44 -78.5q10 -39 14 -77.5t4 -70.5v-43
q-2 -39 -2 -78t-5 -78q-5 -35 -18 -46t-47 -11q-32 1 -64 1t-64 2q-33 2 -46 14.5t-13 43.5v8q2 44 4.5 87.5t2.5 87.5v21q-2 27 -5 54t-8 53q-3 17 -9.5 32t-27.5 19q-6 2 -11.5 2h-11.5q-15 0 -29 -5t-25 -19q-16 -18 -26 -39.5t-17 -44.5q-9 -33 -16 -61.5t-12 -56
t-7.5 -56.5t-3.5 -63q-2 -45 -6 -88t-6 -88v-9q0 -21 1 -43t3 -45q46 15 91.5 20.5t90.5 5.5q35 0 69.5 -2t69.5 -4q57 -3 95.5 -40t52.5 -96q8 -30 8 -59q0 -71 -11 -138t-31 -127q-9 -29 -23.5 -48.5t-34 -32.5t-43 -19.5t-50.5 -8.5q-30 -3 -61 -3h-47z" />
    <glyph glyph-name="seven" unicode="7" horiz-adv-x="758" 
d="M194 -304q-37 0 -74 3q-60 6 -60 49q0 14 8 33q51 125 93 257t89 264q38 107 67.5 215.5t65.5 216.5q9 28 17.5 55.5t17.5 54.5q2 8 2 11q0 11 -14 11q-17 -2 -32.5 -2h-31.5q-25 0 -53 0.5t-77 0.5h-31q-15 -1 -20.5 -7t-5.5 -19v-94q0 -45 3.5 -90.5t3.5 -92.5v-20.5
t-1 -19.5q-1 -9 -0.5 -18.5t-1.5 -17.5q-3 -17 -14 -27t-27 -11h-2q-34 0 -44 37q-2 7 -2 13.5v13.5q0 41 -1.5 81.5t-3 77t-3 67.5t-1.5 53l1 59q1 16 2 31.5t8 30.5q11 22 26.5 33.5t39.5 11.5l101 1h54t29 -1h80q33 0 67.5 0.5t57.5 0.5h43t43 -1q45 -2 65 -12t20 -37
q0 -17 -11 -52q-65 -203 -124.5 -407.5t-133.5 -404.5q-23 -61 -42.5 -121.5t-38.5 -117.5q-6 -20 -15.5 -38.5t-16.5 -38.5q-10 -26 -40 -29q-41 -3 -82 -3z" />
    <glyph glyph-name="eight" unicode="8" horiz-adv-x="739" 
d="M278 -204q16 0 28 11q45 38 72.5 84.5t27.5 107.5v11q0 8 -2.5 12.5t-12.5 4.5h-8q-53 0 -53 38q0 12 8 31q5 10 5 16q0 11 -15 20q-19 12 -39 23t-38 25q-17 14 -22 14t-8.5 -5.5l-10.5 -16.5q-30 -51 -39.5 -106t-16.5 -112l-1 -13q0 -46 25 -76.5t61 -54.5
q8 -6 18 -10t21 -4zM383 276q10 0 14 5t7 15q8 34 13 67t5 68v227q0 58 -6 115q-9 37 -22 69q-8 20 -27 20h-3q-20 0 -38 -2t-38 -5q-32 -4 -49 -35q-23 -42 -38.5 -87t-21.5 -93q-1 -8 -1 -16.5v-17.5q0 -17 1 -35.5t2.5 -35t3 -29.5t2.5 -20q2 -14 4.5 -29.5t4.5 -35.5
q2 -12 7 -22.5t11 -21.5q28 -46 69 -70t94 -31h6zM373 -304q-42 0 -84 3t-83 23t-73.5 53.5t-52.5 77t-20 93.5l2 28q5 36 10.5 72t15 70.5t24 67.5t37.5 64q5 7 5 16q0 7 -4 14q-27 46 -38.5 94t-18.5 104q-5 29 -6.5 66t-1.5 63v22t1 13q6 63 26 121t52 115q29 49 86 66
q24 7 47.5 12t48.5 5h96q29 0 57 -1.5t57 -6.5q30 -5 50 -21.5t33 -44.5q20 -42 28.5 -86t9.5 -89q1 -21 1 -42.5v-43.5l1 -193q0 -30 -2.5 -60t-9.5 -59q-8 -38 -17 -74.5t-19 -73.5q-3 -11 -3 -19q0 -16 9 -34q28 -57 28 -116q0 -32 -7.5 -63.5t-21.5 -63.5
q-18 -42 -45.5 -75t-62.5 -62q-37 -32 -87 -34z" />
    <glyph glyph-name="nine" unicode="9" horiz-adv-x="722" 
d="M214 241q26 4 49.5 12t39.5 33q40 59 53 128q7 30 12 60.5t10 61.5q4 27 7 49t5.5 43t3.5 43.5t1 49.5q0 44 -3 89q-2 23 -9 32t-30 15q-14 3 -27.5 4t-27.5 2h-10q-35 0 -60.5 -18t-37.5 -52q-6 -16 -9 -35q-8 -38 -13 -71.5t-8 -66.5t-4.5 -67t-2.5 -73q1 -13 1.5 -25
t0.5 -25l-2 -73q0 -26 7.5 -49t21.5 -45q5 -8 12 -15t17 -7h3zM361 -305q-20 1 -40 0.5t-40 1.5q-127 9 -196 114q-11 17 -15 37l-1 9q0 16 8.5 28.5t22.5 17.5q4 2 7.5 2h6.5q12 0 22.5 -6t17.5 -19q8 -17 18.5 -31t24.5 -26q34 -27 76 -27h5q33 1 51.5 20t32.5 44
q8 14 10.5 28.5t4.5 29.5q5 33 7.5 70.5t2.5 98.5l-1 28q-1 21 -5.5 27.5t-22.5 6.5h-7q-24 0 -48 -1l-48 -2l-19 -1q-57 0 -91.5 24t-59.5 80q-12 26 -18.5 53.5t-6.5 56.5v6q1 90 2.5 174t13.5 149q5 33 10 65.5t15 64.5q20 64 70.5 101.5t117.5 37.5q31 0 61.5 1t62.5 1
q28 0 56 -1.5t56 -5.5q39 -6 71 -25q61 -35 64 -108q1 -20 1.5 -40t0.5 -40q0 -43 -1.5 -81.5t-3.5 -78t-3.5 -82.5t-1.5 -94q-2 -30 -3 -63.5t-1 -70.5l3 -241q0 -35 -4 -70.5t-9 -71.5q-7 -50 -32 -87.5t-63 -69.5q-13 -11 -35 -20q-26 -11 -61.5 -12.5t-68.5 -1.5h-17z
" />
    <glyph glyph-name="colon" unicode=":" horiz-adv-x="418" 
d="M117 466q-23 1 -34 13t-16 35q-5 27 -4 54t-3 54v75q1 27 12 41t37 16q57 6 115 6h36t36 -2q48 -5 51 -56q1 -13 1 -25.5v-24.5v-50q0 -16 1 -31.5t6 -31.5q3 -9 3 -18q0 -20 -13.5 -33.5t-36.5 -16.5q-26 -4 -50.5 -5.5t-49.5 -1.5zM203 -89h-84q-23 1 -35 11.5
t-17 33.5q-2 8 -2.5 17t-1.5 18q-1 38 -1.5 74.5t-0.5 73.5v3q0 54 53 57q30 1 60 3t60 2q27 0 56 -3q29 -2 42 -15t15 -42q1 -11 1 -23v-23v-46q0 -18 1.5 -35.5t6.5 -35.5q2 -5 2 -8.5v-7.5q0 -20 -14 -34t-38 -17q-26 -3 -51.5 -3.5t-51.5 -2.5v3z" />
    <glyph glyph-name="semicolon" unicode=";" horiz-adv-x="428" 
d="M129 -266h-10t-10 2q-18 4 -28 15.5t-10 28.5t10 29t29 14q25 3 49.5 4t50.5 3h28q20 0 28 22t8 33q0 12 -10.5 16t-34.5 4h-52t-52 1q-29 1 -43 14t-16 42q-3 45 -4 89.5t-2 89.5q0 49 49 53q58 6 118 6q23 0 47 -1t47 -3q45 -3 47 -54v-177q0 -26 -1 -53t-5 -53
q-2 -13 -5 -25.5t-8 -24.5q-14 -35 -38 -53.5t-62 -18.5zM122 466q-23 1 -34.5 12.5t-16.5 34.5q-5 27 -4 55t-3 56v38t1 38q1 25 11.5 38t34.5 16q55 6 112 6q39 0 80 -3q45 -3 48 -58q1 -12 1 -24.5v-25.5v-50q0 -14 1 -29t6 -30q3 -11 3 -19q0 -20 -14 -33.5t-38 -17.5
q-47 -6 -94 -6z" />
    <glyph glyph-name="semicolon" unicode="&#x37e;" horiz-adv-x="428" 
d="M129 -266h-10t-10 2q-18 4 -28 15.5t-10 28.5t10 29t29 14q25 3 49.5 4t50.5 3h28q20 0 28 22t8 33q0 12 -10.5 16t-34.5 4h-52t-52 1q-29 1 -43 14t-16 42q-3 45 -4 89.5t-2 89.5q0 49 49 53q58 6 118 6q23 0 47 -1t47 -3q45 -3 47 -54v-177q0 -26 -1 -53t-5 -53
q-2 -13 -5 -25.5t-8 -24.5q-14 -35 -38 -53.5t-62 -18.5zM122 466q-23 1 -34.5 12.5t-16.5 34.5q-5 27 -4 55t-3 56v38t1 38q1 25 11.5 38t34.5 16q55 6 112 6q39 0 80 -3q45 -3 48 -58q1 -12 1 -24.5v-25.5v-50q0 -14 1 -29t6 -30q3 -11 3 -19q0 -20 -14 -33.5t-38 -17.5
q-47 -6 -94 -6z" />
    <glyph glyph-name="less" unicode="&#x3c;" horiz-adv-x="823" 
d="M662 25q-17 3 -33.5 7t-30.5 12q-29 15 -59.5 27.5t-59.5 30.5q-34 22 -70.5 37.5t-74.5 27.5q-40 13 -78 28l-76 30q-13 5 -26 9t-27 8q-8 3 -15 5t-15 5q-37 18 -37 50q0 12 6 24t20 22q20 15 41 29t41 28q75 50 148.5 98.5t145.5 101.5q13 10 26.5 15.5t27.5 9.5
q61 14 117 14q20 0 40.5 -2t41.5 -6q17 -3 29.5 -10.5t17.5 -25.5l1 -10q0 -14 -8.5 -25t-19.5 -19q-77 -57 -156 -108.5t-158 -105.5l-95 -65q28 -8 49 -16.5t42 -16.5q50 -18 95.5 -45t94.5 -47q14 -6 27.5 -12t28.5 -9q19 -3 33 -13q21 -14 21 -39q0 -8 -3 -17
q-5 -13 -15.5 -21t-24.5 -8z" />
    <glyph glyph-name="equal" unicode="=" horiz-adv-x="722" 
d="M473 156q-28 0 -56 1t-56 3q-57 4 -114 4t-114 2q-10 0 -20 1t-19 3q-16 5 -25 16.5t-9 25.5v2q0 15 9.5 26.5t26.5 15.5q7 2 13.5 2h14.5h216q72 -9 143 -9q56 0 112 6l11 1q12 0 21 -4q32 -11 32 -41q0 -28 -27 -41q-10 -5 -19.5 -6t-19.5 -2q-60 -6 -120 -6zM474 388
q-28 0 -55.5 1t-55.5 3q-57 4 -114 4t-114 2q-10 0 -20 1t-19 4q-32 10 -32 41v4q1 14 10 25t24 15q7 2 14 2h14h220q72 -9 143 -9q56 0 112 6h8q7 0 14 -1t14 -4q23 -10 25 -37v-3q0 -26 -21 -38q-11 -6 -23 -7.5t-24 -2.5q-60 -6 -120 -6z" />
    <glyph glyph-name="greater" unicode="&#x3e;" horiz-adv-x="822" 
d="M151 11q-14 0 -26 8t-17 22q-3 7 -3 16q0 27 26 42q5 2 9.5 4t9.5 3q43 11 82 30.5t78 40.5q43 23 88.5 42.5t99.5 36.5l-192 128q-53 35 -104.5 70t-102.5 73l-12 8t-11 9q-16 16 -16 35q0 31 36 42q23 7 45.5 9t45.5 2h16q19 -1 37.5 -3t37.5 -5q52 -7 98 -41
q64 -48 131 -91.5t133 -88.5l93 -64q13 -8 21 -19.5t8 -27.5l-1 -10q-3 -18 -14 -29t-27 -15q-29 -7 -57 -17.5t-56 -22t-55.5 -22.5t-56.5 -20q-42 -12 -82 -30t-78 -41q-80 -47 -169 -72q-10 -2 -15 -2z" />
    <glyph glyph-name="question" unicode="?" horiz-adv-x="722" 
d="M387 69q-31 0 -61.5 4t-60.5 9q-17 2 -26 14t-9 30l1 11q4 38 11.5 74.5t24.5 71.5q34 69 63 147.5t40 165.5q4 29 8.5 57t8.5 57q2 16 2 32t1 32v2q0 15 -8 30.5t-20.5 27.5t-29 20t-32.5 8l-10 -1q-27 -4 -50 -13.5t-40 -32.5q-22 -30 -35 -61.5t-13 -64.5
q0 -41 24 -86q8 -16 8 -28q0 -25 -23 -37q-12 -6 -24 -6q-14 0 -26.5 8t-20.5 23q-30 58 -30 120q0 19 2.5 37t7.5 37q23 92 83.5 143t154.5 57l29 1h67q27 0 53 -1t39 -2q34 -4 63.5 -19.5t51.5 -39t35.5 -54t15.5 -64.5v-18q0 -12 -0.5 -24.5t-1.5 -25.5
q-13 -125 -44.5 -243t-84.5 -222q-13 -26 -18 -53t-9 -55q-2 -15 -5.5 -25.5t-10 -17.5t-16.5 -11.5t-25 -7.5q-30 -6 -60 -6zM289 -302q-28 1 -41 13t-17 40q-2 8 -2 16v16q0 35 -0.5 69.5t-2.5 69.5v9q0 54 53 55q30 2 60.5 3.5t60.5 1.5h27t27 -2q30 -2 42.5 -14.5
t14.5 -42.5q2 -28 1.5 -55.5t0.5 -56.5q0 -11 1 -21.5t5 -21.5q2 -6 3 -12t1 -11q0 -45 -55 -53q-5 -1 -9.5 -1h-9.5z" />
    <glyph glyph-name="at" unicode="@" horiz-adv-x="1086" 
d="M627 244q21 0 42 1.5t42 6.5q20 5 24.5 10t4.5 19v287q-1 29 -6 56t-18 53q-7 13 -16 22.5t-25 11.5l-21 1q-33 0 -62 -10q-12 -4 -22 -12t-15 -22q-5 -11 -9 -22.5t-6 -22.5q-11 -52 -14.5 -103.5t-3.5 -104.5l3 -146q0 -13 6.5 -16.5t16.5 -4.5q20 -2 39.5 -3t39.5 -1z
M354 -303q-55 0 -104.5 17.5t-96.5 47.5q-34 22 -52.5 52t-25.5 68q-2 14 -3 28l-2 28l-1 170v109q0 9 -0.5 28t-1 44.5t-2 56t-3.5 62.5l-2 66q0 55 5.5 108.5t17.5 107.5q12 53 39.5 96.5t64.5 81.5q24 26 56.5 37t64.5 21q39 12 78.5 20t80.5 10q29 1 57.5 2t57.5 1
q17 0 33.5 -0.5t33.5 -1.5q28 0 54.5 -0.5t57.5 -0.5q8 0 17 -1l18 -2q42 -4 74 -19.5t56 -40t41 -56.5t29 -69q7 -20 10.5 -40.5t5.5 -41.5q6 -47 10 -93.5t4 -94.5q0 -38 -3 -75q-6 -61 -4.5 -122.5t-5.5 -121.5t-18 -123t-30 -127q-11 -39 -45 -54.5t-74 -17.5h-8
q-11 0 -27 2t-31 9.5t-26.5 21.5t-12.5 38q-1 13 -1.5 25.5t-0.5 25.5l-1 158q0 24 -17 24q-6 0 -10 -1q-20 -5 -39.5 -7t-39.5 -2t-40 1t-40 3l-13 1q-11 0 -13 -5t-2 -21v-210v-14.5t-1 -13.5q-2 -26 -13.5 -40t-37.5 -16q-27 -3 -54 -5t-54 -2q-16 0 -31.5 1t-31.5 3
q-45 6 -45 49v3q3 58 4 115.5t1 116.5q0 63 -1 131t-2 138v23q0 56 3.5 111t14.5 109q9 46 28 85t64 62q10 5 20 9.5t21 6.5q45 9 90 14t91 5q20 0 38.5 -1t38.5 -3q91 -8 132 -90q25 -51 29 -103q5 -38 6.5 -76t1.5 -76l-2 -88q-2 -63 -3 -124.5t-1 -124.5l1 -146v-22
q0 -10 4 -13t9 -3t14 1.5t11 3.5q8 5 12.5 15t6.5 17q5 37 11.5 72t12.5 70t10 70.5t4 74.5q0 60 3.5 120t3.5 120v27.5t-1 27.5q-2 36 -6 72t-9 71q-11 68 -53 119q-14 16 -28.5 25t-34.5 11q-13 2 -35 4.5t-43.5 4.5t-38.5 3.5t-21 1.5h-22q-9 0 -25 -0.5t-32 -0.5
t-30 -0.5t-18 -0.5q-66 0 -128 -14t-124 -37q-18 -7 -31 -18t-25 -25q-42 -50 -55.5 -108t-16.5 -120l-2 -90q0 -45 3 -90q2 -30 3.5 -59t2 -53.5t1 -42.5t0.5 -25l-3 -230q0 -57 21.5 -92t73.5 -56q23 -9 46 -14.5t46 -5.5h155q10 0 20 0.5t20 1.5q30 4 59.5 6t59.5 4
q6 0 20 1.5t32 3.5t39 4.5t42 5.5q49 6 108 13q13 0 25 0.5t24 1.5l11 1q11 0 24 -5q28 -11 28 -39v-3q0 -27 -26 -39q-11 -5 -23.5 -7t-25.5 -2q-113 -11 -212 -20q-42 -4 -85 -7.5t-81 -6t-69.5 -4t-49.5 -1.5q-6 0 -19 -0.5t-27 -0.5t-26.5 -0.5t-16.5 -0.5z" />
    <glyph glyph-name="A" unicode="A" horiz-adv-x="782" 
d="M335 469q0 -48 3 -95t5 -95q0 -13 5 -19t20 -8q12 -1 24 -1.5t24 -0.5q36 0 71.5 3.5t71.5 6.5q14 1 22 3.5t12 7.5t5 14t2 24q0 11 0.5 22.5t0.5 22.5q0 66 -4.5 131t-9.5 131q-3 29 -7.5 57t-11.5 57q-8 33 -24.5 61t-38.5 53q-14 17 -31 22.5t-36 5.5q-8 0 -16 -0.5
t-16 -1.5q-23 -2 -31 -17.5t-15 -31.5q-32 -79 -32 -167q0 -6 0.5 -12t0.5 -12q1 -37 2.5 -73.5t3.5 -74.5v-13zM74 258q-4 97 -7.5 192t-5.5 191q0 4 -0.5 8t-0.5 8q1 57 12.5 111t35.5 106q34 78 116 85q37 4 73.5 5.5t73.5 1.5q48 0 96 -3q34 -2 61 -17.5t49 -41.5
q33 -40 56 -84.5t31 -96.5q14 -88 21.5 -173.5t7.5 -173.5q0 -30 -1 -59.5t-3 -59.5q-2 -27 -3.5 -53.5t-1.5 -53.5q0 -32 2.5 -62.5t7.5 -62.5q3 -41 4.5 -79.5t3.5 -74t6 -67.5t12 -58q2 -8 2 -11q0 -20 -21 -33q-13 -8 -25 -8q-14 0 -28 8q-11 8 -17 19t-8 25
q-3 20 -7 41t-4 42q-1 55 -4.5 99t-7 80.5t-6.5 68t-3 62.5v9q0 20 -19 20h-7q-35 -3 -70.5 -7t-70.5 -4q-25 0 -50 3h-5q-19 0 -19 -23q1 -41 1 -81.5v-82.5l-3 -207q0 -35 -13.5 -50t-48.5 -17q-44 -3 -87 -3q-12 0 -24.5 0.5t-24.5 0.5q-38 1 -54 16.5t-17 54.5
q-1 32 -1 63v63l3 190q0 44 -2 87t-5 87z" />
    <glyph glyph-name="B" unicode="B" horiz-adv-x="741" 
d="M398 -205q20 0 39 7t38 16q25 12 45 27.5t35 40t23.5 60.5t10.5 89l-1 17q-1 7 -1 13.5v14.5v13.5t-1 13.5q-3 66 -51 66q-12 0 -30 -5q-35 -11 -71 -18.5t-72 -12.5q-15 -2 -19.5 -8.5t-4.5 -19.5l-5 -165h1v-52t1 -52q1 -22 8 -29.5t29 -12.5q13 -3 26 -3zM344 240
q14 7 27.5 12.5t27.5 12.5q42 20 69.5 52.5t38.5 77.5q13 55 20.5 109.5t7.5 110.5q0 31 -3 62t-8 63q-4 20 -11 38.5t-18 35.5q-17 23 -39.5 34.5t-48.5 11.5t-47 -10q-8 -4 -11 -8.5t-3 -12.5l-7 -96q-2 -34 -2.5 -67t-0.5 -67q0 -77 2 -153t2 -154v-38q0 -2 1 -5.5
t3 -8.5zM298 -303q-31 0 -61.5 2t-60.5 9q-23 5 -42.5 14t-39.5 18q-20 10 -25.5 27.5t-5.5 37.5q-1 45 -2 89.5t-1 89.5l8 324q0 57 -1 114.5t-3 114.5l-1 59q0 70 4 140t7 140q1 26 12.5 39.5t40.5 21.5q34 9 68 16t69 9l41 1q59 0 118 -9q76 -11 124 -58t65 -123
q8 -37 11.5 -73.5t3.5 -73.5q0 -38 -3.5 -77t-8.5 -78q-5 -34 -11 -67.5t-17 -65.5q-8 -18 -18 -35t-21 -35q12 -4 22 -6t19 -6q36 -17 58.5 -44.5t27.5 -67.5q6 -42 6 -85q0 -9 -1 -28t-2.5 -40t-3.5 -39.5t-3 -27.5q-5 -38 -20.5 -69t-42.5 -57q-48 -43 -102 -70t-119 -29
q-23 -1 -44.5 -1.5t-44.5 -0.5z" />
    <glyph glyph-name="C" unicode="C" horiz-adv-x="757" 
d="M399 -302q-22 1 -43.5 1.5t-44.5 0.5l-50 -1q-31 0 -56 10.5t-43.5 28.5t-30.5 41t-18 49q-11 45 -18.5 90t-15.5 91q-7 42 -10.5 84.5t-5 87.5t-2 93t-1.5 101l1 111v54t2 53q5 85 35 160t76 145q43 64 118 64h93l50 -1q95 -3 165 -70q23 -22 38 -48.5t20 -58.5l1 -14
q0 -17 -4 -29q-5 -18 -17 -27.5t-27 -9.5h-6q-16 2 -27 12.5t-11 29.5v6q0 44 -25.5 68t-60.5 39q-10 4 -17 6t-14 2q-11 0 -19 -7t-18 -22q-42 -64 -66 -133.5t-26 -147.5l-1 -164q0 -87 2 -156t7 -133q5 -63 16 -124.5t25 -124.5q1 -5 2 -9.5t3 -9.5q17 -43 50 -43
q12 0 29 6q31 12 57 28t46 38.5t32 52.5t14 68l1 34q0 29 -2.5 57t-6.5 57l-2 20t-1 21v9t1 9q3 19 15 30.5t29 11.5h2q16 0 28 -10.5t15 -29.5q5 -45 10 -89.5t5 -89.5q0 -17 -1 -34t-3 -34q-5 -48 -26 -88t-56 -72q-44 -40 -95 -65t-114 -25h-3z" />
    <glyph glyph-name="D" unicode="D" horiz-adv-x="711" 
d="M362 -212q72 33 120 83t63 128q7 35 9.5 71t2.5 71l-1 63q-5 84 -6.5 166t-5.5 166q-6 136 -69 256q-16 31 -42.5 44.5t-56.5 21.5q-4 1 -10 1q-17 0 -19 -23l-4 -64q-3 -49 -6 -97t-3 -97q0 -23 1 -46t3 -46q0 -47 3 -93q1 -112 2 -227.5t7 -226.5q2 -36 4 -72.5
t8 -78.5zM283 -303l-60 4l-60 4q-21 1 -34.5 4.5t-21 11.5t-11 21.5t-6.5 35.5q-7 61 -9.5 121.5t-5.5 121.5q-5 94 -6 191.5t-1 190.5q-2 23 -3 46.5t-1 46.5q-2 21 -3 42.5t-1 42.5q0 56 4.5 111t7.5 111q3 48 9 95q4 33 18.5 47t49.5 15q51 0 101.5 -2t101.5 -4
q33 -2 63 -11.5t59 -23.5q46 -22 73 -66q38 -64 58 -133.5t29 -142.5q8 -62 8.5 -123.5t7.5 -123.5l-1 -107l1 -64l1 -28q0 -42 -5 -83.5t-13 -83.5q-10 -51 -35.5 -91t-59.5 -77q-48 -53 -106 -76.5t-127 -23.5z" />
    <glyph glyph-name="E" unicode="E" horiz-adv-x="694" 
d="M130 -313q-36 0 -50.5 12.5t-15.5 50.5q-1 17 -1.5 34.5t-0.5 34.5l1 39l2 115q0 55 -2.5 109.5t-2.5 109.5q0 44 3 89v64q3 70 5.5 139.5t2.5 137.5q0 65 -3 131l-1 55q0 23 0.5 44.5t1.5 44.5q2 29 13 41.5t40 16.5q40 6 84 6h23q51 0 100 0.5t100 0.5q84 0 167 -3
l14 -2t14 -3q14 -5 22 -16t8 -24v-6q-4 -31 -35 -39q-5 -1 -10.5 -1.5t-10.5 -0.5h-7q-12 1 -23.5 1h-23.5q-28 0 -56 -1l-56 -2l-24 2q-12 0 -24 -1t-24 -1q-20 0 -20 -19l-1 -48q2 -54 3.5 -108t1.5 -109q0 -66 -2 -132.5t-6 -120.5q-1 -11 -1 -22v-22v-14q0 -9 1 -14
t5 -8t11.5 -4t20.5 -1l23 -1l45 1q12 0 24 -0.5t24 -4.5q16 -5 24.5 -17.5t8.5 -26.5q0 -8 -1 -12q-3 -15 -14.5 -25.5t-26.5 -10.5l-9 1q-10 2 -19 2.5t-19 0.5l-46 -1h-30q-13 0 -17.5 -5.5t-4.5 -18.5v-8q2 -21 2 -41.5v-41.5q0 -43 -0.5 -75t-1 -56.5t-1 -44t-0.5 -38.5
q0 -21 3 -27.5t18 -6.5l230 11q14 0 25 -4q30 -11 30 -41v-2q0 -27 -27 -40q-11 -5 -21.5 -6t-21.5 -1q-63 -2 -124.5 -6t-123.5 -4q-6 0 -16 -0.5t-21 -0.5h-25q-32 0 -64.5 -2.5t-65.5 -2.5z" />
    <glyph glyph-name="F" unicode="F" horiz-adv-x="714" 
d="M130 -313q-36 0 -50.5 12.5t-15.5 50.5q-1 17 -1.5 34.5t-0.5 34.5l1 39l2 115q0 55 -2.5 109.5t-2.5 109.5q0 44 3 89v64q3 70 5.5 139.5t2.5 137.5q0 65 -3 131l-1 55q0 23 0.5 44.5t1.5 44.5q2 29 13 41.5t40 16.5q40 6 84 6h23q51 0 100 0.5t100 0.5q84 0 167 -3
l14 -2t14 -3q14 -5 22 -16t8 -24v-6q-4 -31 -35 -39q-5 -1 -10.5 -1.5t-10.5 -0.5h-7q-12 1 -23.5 1h-23.5q-28 0 -56 -1l-56 -2l-24 2q-12 0 -24 -1t-24 -1q-20 0 -20 -19l-1 -48q2 -54 3.5 -108t1.5 -109q0 -66 -2 -132.5t-6 -120.5q-1 -11 -1 -22v-22v-14q0 -9 1 -14
t5 -8t11.5 -4t20.5 -1l23 -1l45 1q12 0 24 -0.5t24 -4.5q16 -5 24.5 -17.5t8.5 -26.5q0 -8 -1 -12q-3 -15 -14.5 -25.5t-26.5 -10.5l-9 1q-10 2 -19 2.5t-19 0.5l-46 -1h-30q-13 0 -17.5 -5.5t-4.5 -18.5v-8q2 -21 2 -41.5v-41.5q0 -43 -0.5 -75t-1 -56.5t-1 -44t-0.5 -38.5
v-16q0 -14 -0.5 -36t-2.5 -42q-2 -22 -13 -27.5t-18 -5.5q-7 -1 -14 -1h-13h-13q-32 0 -64.5 -2.5t-65.5 -2.5z" />
    <glyph glyph-name="G" unicode="G" horiz-adv-x="781" 
d="M267 -302q-33 0 -59 10.5t-44.5 28.5t-30.5 41t-18 48q-20 87 -33 177q-13 82 -17.5 167t-4.5 189q0 61 2 121.5t4 121.5q3 84 35 157t78 142q38 59 107 60l93 1q21 0 42 -1t41 -4q64 -10 112 -42.5t76 -94.5q10 -23 10 -49q0 -14 -3 -29q-5 -19 -17 -29.5t-27 -10.5h-4
q-17 1 -28.5 13.5t-13.5 32.5q-9 89 -94 113q-13 4 -24 4q-16 0 -30 -22q-32 -51 -57 -103.5t-33 -112.5q-3 -28 -5 -56t-2 -56v-136q0 -79 1 -139.5t6 -117.5q5 -69 17 -136.5t26 -135.5q2 -8 5.5 -16.5t8.5 -16.5q16 -24 40 -24h7t8 2q31 9 59 24.5t50.5 38t36.5 52
t16 65.5l2 42q0 30 -1.5 55t-3.5 50q-2 15 -8.5 21.5t-22.5 6.5q-13 -1 -25.5 -2t-25.5 -4l-23 -7q-12 -3 -22 -3q-38 0 -47 33q-1 4 -1 11q0 31 42 48q41 14 82 15l88 3q33 0 49.5 -13.5t16.5 -44.5v-11q-3 -45 -3 -89q0 -66 4 -127t9 -122q1 -13 3 -26.5t4 -30.5l1 -20
q0 -16 -4 -28q-5 -16 -17 -25t-27 -9q-34 2 -43 36q-2 11 -3.5 24.5t-3.5 36.5q-20 -17 -38 -29.5t-35 -23.5q-66 -42 -147 -44h-136z" />
    <glyph glyph-name="H" unicode="H" horiz-adv-x="764" 
d="M135 -302q-41 0 -47 45q-2 17 -2.5 35t-1.5 36l-20 481q-2 23 -3 45.5t-1 43.5q0 33 1 64l2 62q1 75 1.5 150t2.5 150q1 21 3 41.5t4 41.5q5 39 20.5 53t54.5 15h144q57 -2 57 -45q0 -13 -4 -25q-8 -23 -9 -45.5t-1 -45.5q-2 -85 -4 -167.5t-2 -157.5q0 -95 3 -191
q1 -32 5.5 -43t24.5 -11q6 0 13.5 0.5t17.5 1.5q21 2 42 3t42 1h14.5t13.5 1q18 3 28.5 5.5t16.5 8t7.5 14t1.5 23.5l-1 72q0 53 2 103.5t5 94.5q3 42 3.5 84.5t0.5 85.5v134q0 8 -1.5 16t-2.5 16l-1 11q0 14 6 28q14 30 44 30h3q34 -2 42 -36q2 -11 2.5 -22t0.5 -22
q0 -127 -2.5 -250.5t-8.5 -240.5l-1 -50q0 -36 3 -70q1 -8 1 -15t4 -13q11 -19 11 -37q0 -15 -8 -30q-4 -7 -4 -17q0 -7 1 -13.5t2 -13.5l41 -364q1 -6 1.5 -12t0.5 -12q-2 -20 -12.5 -33t-27.5 -15h-6q-17 0 -29.5 10t-15.5 30q-5 30 -9 60.5t-7 61.5q-8 75 -14 137
t-13 129q-2 16 -4.5 21t-10.5 5l-20 -2q-42 -4 -83.5 -6t-83.5 -4q-18 -1 -23 -3.5t-5 -16.5l15 -325v-48q-5 -48 -48 -48q-19 -1 -37 -1h-36z" />
    <glyph glyph-name="I" unicode="I" horiz-adv-x="403" 
d="M164 -303q-11 0 -21.5 2.5t-21.5 5.5q-38 11 -40 53q-8 148 -14.5 293.5t-6.5 293.5q0 55 1 111t4 117q4 78 3.5 154t1.5 154q1 45 17 62t58 17l128 -5q32 -3 44.5 -16t12.5 -45v-27q0 -42 1 -83t1 -82q0 -11 -1 -36t-2 -58t-3 -70t-3 -72t-2 -64t-1 -46q0 -41 1 -81
t4 -80q1 -8 1 -31v-48v-62q0 -53 4.5 -105t9.5 -106q3 -27 3 -54l-1 -30q-4 -54 -58 -58q-30 -2 -60 -3t-60 -1z" />
    <glyph glyph-name="J" unicode="J" horiz-adv-x="700" 
d="M442 -305q-30 1 -59.5 1.5t-59.5 2.5t-59.5 7t-58.5 16q-63 24 -103.5 65.5t-51.5 110.5q-5 29 -7.5 57t-2.5 56q0 17 1 33t4 33q4 23 5.5 45.5t3.5 45.5q1 6 1 12.5t2 11.5q5 19 17 30t29 11h5q17 -2 28.5 -14.5t11.5 -32.5v-4q-2 -25 -4 -49.5t-6 -49.5
q-2 -19 -3.5 -37.5t-1.5 -37.5q0 -25 2.5 -50t7.5 -50q12 -58 61 -84q15 -8 30.5 -13.5t32.5 -9.5q12 -3 23 -3q27 0 44.5 16.5t22.5 45.5q3 18 5 36t3 36q0 118 1 239v108t0.5 114.5t0.5 114.5v109v137.5t-1 87.5v28v14.5t1 13.5q6 59 62 60l50 1q45 0 90 -3q38 -4 52 -20
t14 -51l-1 -42q0 -35 1.5 -69t3.5 -69q0 -7 1 -24q0 -14 0.5 -39.5t0.5 -65.5t-0.5 -97.5t-1.5 -135.5t-2.5 -179.5t-3.5 -229.5q-1 -33 -5 -65.5t-12 -64.5q-5 -19 -14.5 -33t-23.5 -26q-28 -23 -59 -36.5t-67 -13.5h-10z" />
    <glyph glyph-name="K" unicode="K" horiz-adv-x="734" 
d="M131 -302q-38 0 -47 40q-3 10 -3 20l-21 431q0 59 1 114q0 23 0.5 47t1 46.5t0.5 41.5v33v26q-2 103 -2 205v199q0 27 10.5 40.5t36.5 16.5q22 2 43 3t43 1q23 0 47 -1t47 -3q26 -2 38 -15.5t15 -39.5q1 -8 1 -17.5v-17.5v-237.5t1 -242.5v-25q9 8 11.5 15t4.5 14
q41 121 88 251.5t100 262.5q4 8 7 16.5t8 16.5q14 20 39 20h6.5t7.5 -2q29 -11 29 -44q0 -11 -3 -20t-7 -19q-56 -140 -105.5 -277.5t-92.5 -266.5q-11 -32 -22.5 -62.5t-24.5 -60.5q-5 -13 -5 -21q0 -10 8 -24q56 -100 106.5 -182.5t107.5 -155.5q13 -17 32 -30
q5 -3 9.5 -6.5t9.5 -7.5q17 -15 17 -36q0 -14 -8 -25q-13 -20 -37 -20q-8 0 -20 5q-24 11 -43 28t-36 38q-38 51 -75 106t-75 130q-5 10 -12 19.5t-17 23.5q-1 -14 -1 -26v-24q0 -26 1.5 -49.5t3.5 -46.5q3 -34 5 -68t2 -68v-16q-2 -27 -13.5 -39.5t-37.5 -13.5
q-19 -1 -38 -1h-38z" />
    <glyph glyph-name="L" unicode="L" horiz-adv-x="726" 
d="M144 -302q-64 0 -64 68v22q0 88 -8.5 173.5t-8.5 173.5v37q0 38 -1.5 75t-1.5 71q1 143 1.5 285.5t6.5 285.5q1 21 4 34.5t11 21t21.5 11t35.5 4.5l32 1q32 0 64 -2t64 -2h3q23 0 34.5 -12.5t14.5 -35.5v-20q-5 -85 -4.5 -168t-2.5 -168v-160q0 -63 1 -122t3 -122
q2 -70 6.5 -139.5t7.5 -139.5l-1 -40q0 -9 1.5 -17t6.5 -14q5 -5 10.5 -6t12.5 -3q11 -2 22.5 -2.5t22.5 -0.5h59q28 0 55 1.5t54 6.5q13 3 28 3q19 0 35 -4q17 -5 27 -17.5t10 -29.5v-4q-3 -37 -47 -40q-41 -2 -81 -3t-81 -1h-41t-41 1h-15q-64 0 -127.5 -1t-128.5 -1z" />
    <glyph glyph-name="M" unicode="M" horiz-adv-x="846" 
d="M130 -305q-41 0 -47 46q-2 18 -3 36l-2 36q-3 109 -8 218.5t-6 219.5q0 32 -2 64t-2 64l2 501q2 67 64 73q33 4 65.5 6.5t65.5 2.5h18t19 -1q32 -2 45 -14t18 -43q23 -118 61 -251.5t81 -271.5l7 -16q7 5 8.5 8.5t2.5 8.5q32 142 70.5 277t73.5 256q12 47 49 47h6
q20 -3 33 -19.5t14 -41.5v-232l-1 -63q0 -74 2.5 -146.5t6.5 -146.5q5 -81 8 -170t6 -170q2 -31 3.5 -61.5t3.5 -61.5q2 -23 4 -45.5t8 -45.5l2 -13q0 -17 -11.5 -30.5t-28.5 -17.5q-4 -1 -11 -1q-14 0 -26 9.5t-18 26.5q-4 11 -5.5 21.5t-2.5 21.5q-11 192 -19.5 391
t-13.5 392q-1 5 -2 9t-3 9q-13 -28 -20 -56.5t-14 -57.5q-16 -66 -30.5 -130.5t-28.5 -130.5q-3 -11 -6 -23t-8 -23q-7 -13 -17.5 -19t-22.5 -6q-23 0 -38 21q-6 8 -9 17.5t-6 19.5q-28 89 -58 176.5t-54 178.5q-2 5 -2.5 9.5t-5.5 7.5h-2q-3 0 -3 -4q-1 -37 -1.5 -73.5
t-0.5 -73.5q0 -57 4 -112t4 -112q0 -175 9 -347q1 -17 1.5 -35t2.5 -36l1 -11q0 -26 -13.5 -39t-41.5 -17q-43 -5 -86 -4.5t-86 -1.5h-3z" />
    <glyph glyph-name="N" unicode="N" horiz-adv-x="748" 
d="M320 -303q-48 0 -94.5 1t-93.5 2q-39 0 -50 38q-6 18 -6 36q-2 31 -5 61.5t-3 61.5q0 24 -1 58.5t-1.5 73t-1.5 79t-2 76.5t-1.5 65.5t-0.5 46.5v16l1 47q2 54 2.5 106.5t0.5 106.5v97t-2 93v20q0 25 1 49.5t1 49.5v23q0 23 13.5 37t37.5 16q40 3 82 3q29 0 57 -1t57 -3
q25 -2 36.5 -13t14.5 -34q23 -156 65.5 -308.5t85.5 -307.5q16 -58 32.5 -115t33.5 -115q2 -8 5 -15t6 -15q2 10 3 19.5t1 18.5q0 15 -1 29.5t-3 28.5q-8 114 -15 227t-7 228l-1 180q0 30 0.5 59.5t2.5 55.5q1 10 1 20t2 20q4 19 16 29t29 10h2q18 -2 29.5 -13.5t12.5 -31.5
l-1 -88q-1 -37 -1 -77v-81q0 -106 3 -210.5t11 -210.5q9 -119 17.5 -235.5t14.5 -228.5q1 -6 1.5 -12t0.5 -12q-3 -49 -46 -58l-15 -2q-31 0 -47 33q-11 21 -20 43t-19 45q-37 86 -62 182t-54 193q-22 73 -42 146l-40 146q-2 6 -3.5 11.5t-6.5 9.5q-4 -1 -4 -7v-26
q0 -54 -1 -105.5t-1 -97.5q0 -9 0.5 -40t1 -73.5t1 -92t2 -96t3 -85.5t3.5 -60q2 -17 2.5 -34t4.5 -34l2 -15q0 -20 -12 -31.5t-35 -12.5z" />
    <glyph glyph-name="O" unicode="O" 
d="M442 -205q22 0 39 30q7 13 11.5 25.5t9.5 26.5q36 112 53.5 226t21.5 233v7q0 125 -22.5 240.5t-60.5 230.5q-2 5 -4 9t-4 9q-17 27 -45 27q-11 0 -22.5 -5.5t-19.5 -16.5q-17 -23 -26 -48t-16 -51q-21 -85 -29 -170.5t-13 -173.5q-2 -20 -2 -40v-40q0 -115 16 -221
t46 -211q5 -17 11 -32.5t17 -29.5q19 -25 39 -25zM265 -302q-23 0 -40.5 10.5t-33.5 25.5q-26 25 -40.5 55t-24.5 63q-33 114 -49.5 228.5t-16.5 237.5q0 48 3 98q5 89 15 175.5t31 172.5q23 89 80 155q12 15 26 24t34 11l54 4t55 2q32 0 63 -3.5t62 -12.5q39 -11 63 -37
t36 -64q28 -88 49.5 -176.5t30.5 -181.5q3 -30 5.5 -59.5t2.5 -58.5v-22q-5 -131 -23.5 -254.5t-57.5 -243.5q-5 -17 -11 -32.5t-14 -30.5q-33 -70 -112 -81q-25 -4 -49.5 -5t-49.5 -1z" />
    <glyph glyph-name="P" unicode="P" horiz-adv-x="700" 
d="M378 240q6 0 13.5 1t17.5 3q3 0 6 1t5 2q54 13 80.5 48t33.5 86q5 29 7.5 55.5t4.5 40.5q1 5 1 10v10q0 10 -0.5 18.5t-0.5 15.5q-5 113 -40 219q-14 42 -42 67.5t-67 40.5q-8 2 -16 3.5t-16 3.5l-8 1q-17 0 -17 -19l1 -43q2 -69 3.5 -134.5t3.5 -117.5v-116.5t1 -141.5
q0 -31 5 -42.5t24 -11.5zM151 -304q-5 0 -10.5 0.5t-10.5 1.5q-55 9 -56 65q-3 64 -4 132.5t-1.5 137.5t-0.5 137.5v131.5v143q0 51 -0.5 100.5t-2.5 99.5q-2 55 -2.5 110t-2.5 110v16q1 42 16.5 58.5t57.5 19.5l38 1l74 -1h80l40 -2q85 -10 143.5 -54t85.5 -128
q39 -121 45 -246v-9v-23.5t-2 -41.5q-2 -20 -6 -48t-9 -57q-7 -37 -24.5 -72.5t-47 -63.5t-71.5 -45.5t-97 -18.5q-20 0 -25 -3t-5 -18v-79q0 -35 -0.5 -71t-0.5 -72v-32t1 -32l4 -90q0 -39 -40 -49q-8 -2 -15.5 -2.5t-15.5 -1.5q-32 -2 -64 -2.5t-64 -1.5h-7z" />
    <glyph glyph-name="Q" unicode="Q" horiz-adv-x="729" 
d="M439 -203q9 0 20 6q10 6 10 14q0 5 -3 10t-5 10q-21 38 -33.5 78t-20 81t-12 82.5t-7.5 83.5q0 10 0.5 20t3.5 19q4 17 16 25.5t28 8.5q34 -2 42 -37l2 -19q2 -47 7.5 -92t13.5 -91q2 -12 5.5 -25t15.5 -28l6 26l18 82q31 140 31 290q0 118 -20.5 233.5t-59.5 230.5
q-2 7 -4.5 13.5t-5.5 12.5q-17 29 -45 29q-25 0 -43 -23q-17 -22 -25.5 -47t-15.5 -51q-27 -100 -34 -200.5t-11 -203.5l-1 -37q0 -113 18.5 -219t49.5 -211q11 -37 35 -61q11 -10 24 -10zM625 -323q-13 0 -25 6q-13 7 -24 15.5t-21 18.5q-7 6 -13 10t-14 4q-10 0 -21 -8
q-13 -10 -28.5 -14t-31.5 -6q-28 -3 -55.5 -4t-54.5 -1h-70q-21 0 -38.5 9.5t-32.5 23.5q-26 23 -41.5 51.5t-24.5 60.5q-32 109 -51 218t-19 225q0 39 3 78q1 103 11.5 203t35.5 199q11 45 31 82.5t49 72.5q11 14 25 22.5t32 10.5q26 2 53 4t53 2q32 0 62.5 -3t61.5 -11
q80 -20 106 -105q27 -88 48 -175.5t31 -178.5q4 -35 5.5 -69.5t1.5 -69.5q0 -130 -21 -252t-56 -243q-3 -11 -5 -17.5t-2 -11.5q0 -8 5 -14t18 -17q11 -9 22 -17.5t21 -18.5q18 -17 18 -36q0 -13 -9 -25q-13 -19 -35 -19z" />
    <glyph glyph-name="R" unicode="R" horiz-adv-x="709" 
d="M385 238q39 0 74 20t53 55q9 17 14.5 35t8.5 37q2 9 4 24.5t3.5 31.5t2 28.5t0.5 16.5q-1 29 -2.5 59t-3.5 59q-3 42 -13 81t-24 78q-8 20 -23 38t-34.5 32.5t-41 23t-42.5 9.5h-3q-19 0 -19 -21l1 -52q2 -66 4 -131.5t4 -131.5q1 -18 1 -35.5v-35.5l-1 -96v-101
q0 -11 4 -16.5t16 -6.5zM151 -306q-72 0 -72 69v18q0 19 -1.5 37.5t-3.5 37.5q-1 135 -4 252t-3 231l1 109q0 74 -2 146.5t-4 145.5q-1 27 -1.5 54t-0.5 54v40q0 68 68 71q32 2 65 3t65 1q29 0 57 -1t56 -5q81 -10 138 -53t84 -122q23 -69 34 -138t12 -139l-2 -45
q-2 -20 -5.5 -47.5t-8.5 -56.5q-12 -75 -53.5 -126.5t-117.5 -74.5q-4 -1 -8 -3t-12 -5q11 -11 27 -34t33.5 -52.5t36.5 -63.5t36 -65.5t31 -58t23 -42.5q5 -10 11.5 -18.5t13.5 -17.5q5 -7 9.5 -13t8.5 -14q7 -13 7 -26q0 -18 -14 -32q-13 -11 -29 -11q-19 0 -33 14
q-19 17 -33 38.5t-28 44.5q-18 30 -35.5 66.5t-37 74t-40 72.5t-44.5 61q-4 3 -7 6.5t-7 7.5q-6 -3 -7.5 -7t-1.5 -8l1 -14l7 -302q0 -27 -12 -38.5t-41 -14.5l-78 -4t-78 -2z" />
    <glyph glyph-name="S" unicode="S" horiz-adv-x="750" 
d="M396 -303q-30 0 -58 3q-50 3 -90 24.5t-73 57.5q-51 55 -78 118.5t-27 138.5v4v46t1 46q3 46 43 49h2q37 0 48 -43l2 -15q0 -6 -1 -12.5t-2 -12.5l-2 -40q0 -35 6 -71q10 -52 36 -93t65 -75q13 -11 27 -17q21 -10 43 -10q33 0 55 23t23 64v16q0 65 -22 125q-10 27 -20 53
t-22 52q-2 3 -7 11.5t-12 18t-14 19.5t-13 16q-11 12 -22.5 24.5t-22.5 24t-20 20t-13 12.5q-17 16 -34.5 34.5t-35.5 38.5q-38 40 -60 84t-30 81q-4 25 -6 49.5t-2 49.5q0 28 3 57q8 66 36 122t74 103q29 31 64.5 48t78.5 17h53q22 0 43.5 0.5t33.5 0.5h16
q62 0 103.5 -30.5t64.5 -83.5q38 -92 38 -193q0 -67 -17 -140q-5 -20 -16.5 -30t-27.5 -10q-8 0 -12 1q-16 4 -25.5 16t-9.5 29l2 15q12 55 12 110q0 47 -7 88q-5 31 -13.5 60t-33.5 52q-20 19 -38 19q-12 0 -30 -9q-9 -5 -17.5 -10.5t-14.5 -13.5q-28 -29 -49 -62.5
t-30 -74.5q-9 -42 -9 -84q0 -24 2.5 -47.5t7.5 -47.5q2 -7 9 -24t12 -25q7 -10 15.5 -22t19.5 -24q20 -21 38.5 -42t38.5 -38t44 -42.5t44 -50.5q7 -8 15.5 -20t16 -24t13 -21.5t7.5 -12.5q15 -31 27.5 -62.5t23.5 -63.5q24 -69 24 -140q0 -11 -0.5 -21t-1.5 -21
q-3 -30 -16 -58t-34.5 -50.5t-52 -36.5t-67.5 -15l-122 -2v0z" />
    <glyph glyph-name="T" unicode="T" horiz-adv-x="698" 
d="M328 -307q-21 0 -41.5 1.5t-41.5 5.5q-23 5 -32.5 16.5t-11.5 36.5q-9 117 -14.5 232.5t-5.5 233.5l1 77q2 103 2.5 205.5t5.5 207.5q2 34 4.5 66.5t6.5 59.5v4q0 13 -5.5 19t-19.5 8q-26 3 -51 3h-18.5t-18.5 -1q-9 1 -18 1t-17 2q-15 4 -24 15t-9 26v3q0 27 28 41
q13 5 27 5l12 -1q103 -1 203.5 -1.5t203.5 -0.5h68q18 0 40 -5q17 -5 26.5 -16.5t9.5 -26.5l-1 -7q-2 -16 -14 -26.5t-31 -11.5h-88q-12 0 -18.5 -0.5t-9.5 -3.5t-4.5 -9.5t-2.5 -18.5q-11 -91 -13.5 -182.5t-2.5 -182.5v-164q-1 -35 -1.5 -70.5t-0.5 -70.5q0 -47 1 -93.5
t5 -93.5q4 -49 4 -97.5t8 -97.5q1 -3 1 -6.5v-6.5l-1 -19q-3 -21 -13.5 -33t-31.5 -15q-24 -4 -48 -6t-48 -2z" />
    <glyph glyph-name="U" unicode="U" horiz-adv-x="736" 
d="M332 -305q-27 0 -54 2.5t-53 6.5q-50 6 -79.5 38t-43.5 78q-12 38 -16.5 76.5t-6.5 77.5l-17 289q-2 19 -2 58.5v78.5v56.5t1 31.5q4 119 10.5 217t15.5 192q4 32 18 45t47 15q26 2 52.5 3.5t52.5 1.5h19t19 -1q35 -3 48.5 -14.5t13.5 -41.5l-1 -16q-4 -47 -8 -93t-7 -94
q-4 -60 -7 -119.5t-6 -119.5v-18q0 -16 0.5 -40.5t1 -50t1 -49t1.5 -37.5q5 -76 9 -151.5t9 -153.5q2 -21 4.5 -42t5.5 -42q1 -8 3 -15.5t4 -15.5q6 -17 16.5 -30.5t28.5 -16.5l7 -1q16 0 26.5 11t19.5 25q24 38 37 80t24 85q20 86 28 171t10 172v25.5t2 25.5q7 58 10 117
t4 118.5t1 120.5t1 124q0 11 0.5 21.5t2.5 21.5q5 20 16.5 30.5t28.5 10.5h6q40 -5 40 -51q-1 -61 -2 -114.5t-1 -105.5q-1 -76 -4 -151.5t-11 -151.5q-5 -52 -5.5 -103.5t-5.5 -104.5q-8 -75 -21.5 -149t-37.5 -146q-9 -28 -22 -53.5t-28 -50.5q-18 -31 -45.5 -47.5
t-60.5 -24.5q-25 -6 -49.5 -8.5t-50.5 -2.5z" />
    <glyph glyph-name="V" unicode="V" horiz-adv-x="732" 
d="M313 -305h-30.5t-30.5 2q-15 1 -24.5 3.5t-16.5 8t-11.5 14.5t-9.5 24q-6 17 -8.5 35t-2.5 36q-1 42 -8.5 83t-13.5 83q-23 141 -43 277.5t-30 263.5q-15 178 -24 355v15.5t1 15.5q6 42 43 46q21 2 41.5 3t41.5 1q24 0 48.5 -1.5t48.5 -3.5q40 -4 40 -55
q1 -63 5.5 -125.5t9.5 -125.5q8 -115 20.5 -240.5t37.5 -254.5q4 -17 4.5 -35.5t11.5 -41.5q8 54 14 102t14 95q26 166 58.5 324.5t69.5 295.5q3 11 7 22.5t11 21.5q15 20 38 20q11 0 19 -4q13 -5 20.5 -16t7.5 -24q0 -9 -3 -16q-41 -124 -69 -271t-57 -300
q-20 -106 -31.5 -213t-22.5 -215q-4 -38 -9.5 -75t-16.5 -74q-8 -32 -21.5 -42t-45.5 -12q-21 -1 -41.5 -1.5t-41.5 -0.5z" />
    <glyph glyph-name="W" unicode="W" horiz-adv-x="884" 
d="M238 -303q-28 0 -40.5 10t-20.5 36q-9 32 -14 64.5t-7 65.5q-6 89 -20 174t-25 179l-5 47.5t-6 63.5t-6.5 74.5t-6.5 79.5q-7 100 -14.5 199t-12.5 197v5q0 34 17 50t48 16l128 1q35 -1 49 -14.5t15 -48.5q6 -149 18.5 -298t23.5 -301q2 -20 5.5 -49t8.5 -64t11 -74.5
t13 -79.5h10q9 51 18 101.5t17 101.5q11 72 23.5 144t17.5 145q2 21 9 39q5 16 19.5 24.5t31.5 8.5h7q18 -2 29 -13.5t14 -31.5l-1 -53q0 -48 3.5 -95t8 -94.5t8.5 -94.5t5 -94q1 -36 6.5 -72t13.5 -73q9 4 9.5 10.5t2.5 12.5q16 102 28 204t20.5 200.5t15 191t13.5 175.5
q2 29 2.5 58t1.5 58v11.5t1 11.5q6 53 48 53h4q41 -5 41 -55v-3q-1 -81 -7 -161.5t-12 -161.5q-3 -41 -7 -91t-8.5 -105.5t-11 -115.5t-15.5 -120q-15 -99 -27 -198q-6 -43 -9.5 -86t-11.5 -85q-3 -12 -5 -23.5t-7 -22.5q-14 -34 -45 -34q-18 0 -34 13q-20 16 -30 37.5
t-16 44.5q-14 60 -24 118q-10 50 -18.5 99.5t-15.5 100.5q-12 -35 -18 -70t-11 -71q-8 -53 -18.5 -104.5t-25.5 -102.5q-6 -19 -12 -31.5t-15.5 -20t-23 -10.5t-34.5 -3l-62 -1z" />
    <glyph glyph-name="X" unicode="X" horiz-adv-x="779" 
d="M103 -301q-11 0 -21 6q-22 13 -22 39q0 8 1 12q2 6 4.5 11.5t4.5 10.5q41 96 89.5 197.5t99.5 204.5q11 24 11 43q-2 16 -4 25.5t-5 18.5q-38 115 -70 229t-63 223q-11 41 -16.5 82t-19.5 82q-2 5 -3 10t-1 10q0 21 16 36t44 18q24 2 48 2t48 1q11 0 22 -1t22 -1
q21 -1 33 -3t20 -8t13.5 -18t12.5 -32q5 -14 8.5 -28.5t5.5 -29.5q10 -57 27.5 -121.5t39.5 -136.5q8 5 13.5 14.5t10.5 18.5q39 82 79.5 160t70.5 147q5 14 14 23q14 14 31 14q8 0 16 -3q25 -9 28 -36v-6q0 -16 -5 -29t-11 -26q-37 -74 -78 -159t-86 -173
q-18 -37 -27 -56.5t-9 -39.5q0 -15 5 -33.5t13 -41.5q26 -83 49.5 -165t49.5 -164q20 -63 44 -124t56 -119q3 -7 5 -13t2 -13q0 -17 -12 -31t-34 -19q-20 -5 -41 -6.5t-42 -1.5h-92q-22 2 -36.5 12t-22.5 30q-25 67 -53 132t-47 134q-5 19 -10 37t-13 29q-10 -5 -13 -12.5
t-7 -15.5q-37 -74 -70.5 -145.5t-61.5 -137.5q-5 -12 -10 -23.5t-14 -21.5q-15 -18 -37 -18z" />
    <glyph glyph-name="Y" unicode="Y" horiz-adv-x="703" 
d="M325 -303q-23 0 -45 0.5t-45 1.5q-41 3 -46 46q-1 5 -1 16v16q-1 69 -3.5 137t-2.5 137l2 67q0 16 -4 27q-19 68 -30.5 136.5t-22.5 137.5q-14 76 -27 151.5t-26 151.5q-7 37 -13.5 73t-16.5 72q-2 7 -3 13.5t-1 12.5q0 28 18.5 45t51.5 19l55 1h51h24.5t25.5 -1
q27 -1 37.5 -14.5t15.5 -39.5q10 -60 21 -118t22 -118l44 -251l10 -48q11 19 13.5 37t7.5 35q27 112 49 224.5t55 223.5q3 11 7 22.5t9 21.5q7 14 18 20.5t24 6.5q10 0 15 -2q29 -11 29 -42l-2 -14q-6 -24 -14 -47.5t-13 -48.5q-30 -134 -59 -267t-61 -267
q-17 -65 -26 -126.5t-9 -109.5l1 -42q3 -56 3 -111.5t1 -111.5v-7q0 -32 -14 -46t-47 -17q-39 -3 -78 -3z" />
    <glyph glyph-name="Z" unicode="Z" horiz-adv-x="716" 
d="M118 -305q-58 5 -58 57v7.5t1 8.5q31 193 78 380.5t104 375.5q19 58 41 121.5t48 127.5q8 20 15.5 41t14.5 52q-32 0 -63.5 1.5t-63.5 1.5q-31 0 -62 -3q-11 -1 -21 -2t-21 -1l-18 1q-49 6 -49 46v2q0 20 13.5 31t37.5 13q30 2 74.5 3t92.5 1q34 0 66.5 -0.5t59 -0.5
t44.5 -0.5t24 -0.5q28 0 55 -1t55 -2q50 -1 53 -57q0 -11 -2.5 -21t-6.5 -21q-19 -62 -42.5 -121t-44.5 -119q-35 -100 -64.5 -208.5t-62.5 -217.5q-28 -92 -43.5 -184.5t-34.5 -186.5l-3 -18q0 -13 20 -13h69h58.5t58.5 1q13 1 25.5 2.5t26.5 1.5h12t12 -2
q18 -4 28.5 -16.5t10.5 -29.5v-2q0 -17 -12 -29t-32 -14q-98 -1 -194.5 -4t-194.5 -3z" />
    <glyph glyph-name="bracketleft" unicode="[" horiz-adv-x="555" 
d="M309 -303h-70t-70 2q-42 2 -63 21.5t-27 61.5q-2 13 -2.5 25t-0.5 25v34q0 33 -3 65.5t-5 64.5q-3 60 -3 121q0 42 1 93.5t1 105.5q0 38 -1 76t-3 76q-3 45 -3 90q0 75 4 148.5t5 148.5q1 59 21.5 81t71.5 22h283q24 -1 37 -14t13 -33q-1 -19 -14.5 -30.5t-37.5 -13.5
l-76 1q-10 0 -15.5 -0.5t-8.5 -3t-4.5 -8.5t-2.5 -17q-1 -4 -1.5 -7.5t-0.5 -8.5l1 -39q0 -54 -3.5 -108.5t-3.5 -109.5q0 -23 1.5 -47.5t1.5 -44.5q3 -48 3 -97q0 -58 -2.5 -114t-2.5 -102q0 -18 0.5 -36t1.5 -36q3 -55 8 -110t5 -111l-1 -43q0 -19 5 -25t19 -6h18
q22 0 40.5 -1.5t33 -6.5t22.5 -15t9 -27q0 -22 -18 -34t-48 -12q-29 -1 -57.5 -1h-57.5z" />
    <glyph glyph-name="backslash" unicode="\" horiz-adv-x="684" 
d="M397 -303q-17 0 -24 6t-13 26q-4 11 -9 31.5t-11.5 45.5t-13 52.5t-12.5 52.5t-11 45t-8 30q-11 38 -20 79t-18 83.5t-19 86t-23 85.5q-42 135 -76.5 271t-70.5 273q-2 10 -3.5 13.5t-2 6.5t-1 7t-1.5 14q0 42 45 48q25 4 50 5t50 1l76 -1q23 0 34 -11.5t19 -38.5
l48 -189q24 -95 49 -188t54 -186q15 -46 25.5 -93t20.5 -94l20 -94t24 -92q7 -26 11.5 -53t8.5 -54t9.5 -54t15.5 -53q2 -5 3 -9.5t1 -8.5q0 -14 -7.5 -22.5t-20 -13t-28.5 -6t-34 -1.5h-137v0z" />
    <glyph glyph-name="bracketright" unicode="]" horiz-adv-x="369" 
d="M220 -303q-21 0 -46.5 -0.5t-53.5 -0.5h-14q-24 0 -34.5 12.5t-11.5 34.5q0 23 18.5 35.5t42.5 12.5h28q8 0 15.5 0.5t18.5 2.5q10 0 12 6.5t2 23.5l14 622q3 121 3 243l-1 140q0 20 -2 26t-13 6q-13 3 -21.5 3.5t-17.5 0.5h-27q-8 0 -17.5 1t-17.5 3q-16 5 -25 17.5
t-9 26.5q1 19 12.5 32t31.5 13h17h63t60 1q26 0 40 -12.5t18 -41.5q1 -11 1 -22v-22v-40q0 -50 1.5 -99t1.5 -100q0 -14 -0.5 -45.5t-1.5 -71.5t-2.5 -85t-2.5 -87t-1.5 -77t-0.5 -56q0 -101 -5 -197t-5 -179v-44q-2 -45 -18 -64t-52 -19z" />
    <glyph glyph-name="asciicircum" unicode="^" horiz-adv-x="643" 
d="M462 506q-44 0 -87 12q-15 4 -24.5 14t-17.5 22q-27 42 -46.5 87.5t-33.5 94.5q-2 6 -3.5 13t-10.5 13l-86 -191q-20 -44 -49 -44q-17 0 -30.5 12t-13.5 32q0 8 1.5 16.5t6.5 18.5q18 42 37 84t37 84q11 26 21.5 52t21.5 52q6 15 13.5 29.5t17.5 26t22.5 18.5t28.5 7h132
q34 -1 47 -13t21 -44q8 -38 16.5 -76t17.5 -76q10 -38 26 -73.5t37 -68.5q8 -12 13.5 -23.5t5.5 -24.5q0 -18 -11 -28.5t-28.5 -16t-39 -7.5t-42.5 -2z" />
    <glyph glyph-name="underscore" unicode="_" horiz-adv-x="949" 
d="M593 -303h-85.5h-94.5t-94 0.5t-83.5 0.5h-63.5h-33q-14 0 -28.5 3t-25.5 9t-18 15.5t-7 22.5q2 23 13.5 34t37.5 11h54h27t27 -1h124h54.5t45.5 -1q84 -3 154 -3q32 0 57.5 0.5t49 1t48 1t54.5 1.5h19.5t19.5 -2q23 -2 33.5 -14t10.5 -31q0 -45 -61 -45q-117 -3 -235 -3
z" />
    <glyph glyph-name="grave" unicode="`" horiz-adv-x="456" 
d="M263 653q-38 0 -59 1.5t-33.5 10t-21 27.5t-21.5 54q-8 24 -20 47t-22.5 44t-18 38.5t-7.5 31.5t10 24t26 16t37 9t44 3t45.5 -2.5t45.5 -5.5q14 -2 22 -10t15 -19q26 -47 48.5 -94.5t37.5 -98.5l3.5 -14t1.5 -12q0 -36 -49 -45q-21 -4 -42 -4t-42 -1z" />
    <glyph glyph-name="a" unicode="a" horiz-adv-x="782" 
d="M335 469q0 -48 3 -95t5 -95q0 -13 5 -19t20 -8q12 -1 24 -1.5t24 -0.5q36 0 71.5 3.5t71.5 6.5q14 1 22 3.5t12 7.5t5 14t2 24q0 11 0.5 22.5t0.5 22.5q0 66 -4.5 131t-9.5 131q-3 29 -7.5 57t-11.5 57q-8 33 -24.5 61t-38.5 53q-14 17 -31 22.5t-36 5.5q-8 0 -16 -0.5
t-16 -1.5q-23 -2 -31 -17.5t-15 -31.5q-32 -79 -32 -167q0 -6 0.5 -12t0.5 -12q1 -37 2.5 -73.5t3.5 -74.5v-13zM74 258q-4 97 -7.5 192t-5.5 191q0 4 -0.5 8t-0.5 8q1 57 12.5 111t35.5 106q34 78 116 85q37 4 73.5 5.5t73.5 1.5q48 0 96 -3q34 -2 61 -17.5t49 -41.5
q33 -40 56 -84.5t31 -96.5q14 -88 21.5 -173.5t7.5 -173.5q0 -30 -1 -59.5t-3 -59.5q-2 -27 -3.5 -53.5t-1.5 -53.5q0 -32 2.5 -62.5t7.5 -62.5q3 -41 4.5 -79.5t3.5 -74t6 -67.5t12 -58q2 -8 2 -11q0 -20 -21 -33q-13 -8 -25 -8q-14 0 -28 8q-11 8 -17 19t-8 25
q-3 20 -7 41t-4 42q-1 55 -4.5 99t-7 80.5t-6.5 68t-3 62.5v9q0 20 -19 20h-7q-35 -3 -70.5 -7t-70.5 -4q-25 0 -50 3h-5q-19 0 -19 -23q1 -41 1 -81.5v-82.5l-3 -207q0 -35 -13.5 -50t-48.5 -17q-44 -3 -87 -3q-12 0 -24.5 0.5t-24.5 0.5q-38 1 -54 16.5t-17 54.5
q-1 32 -1 63v63l3 190q0 44 -2 87t-5 87z" />
    <glyph glyph-name="b" unicode="b" horiz-adv-x="741" 
d="M398 -205q20 0 39 7t38 16q25 12 45 27.5t35 40t23.5 60.5t10.5 89l-1 17q-1 7 -1 13.5v14.5v13.5t-1 13.5q-3 66 -51 66q-12 0 -30 -5q-35 -11 -71 -18.5t-72 -12.5q-15 -2 -19.5 -8.5t-4.5 -19.5l-5 -165h1v-52t1 -52q1 -22 8 -29.5t29 -12.5q13 -3 26 -3zM344 240
q14 7 27.5 12.5t27.5 12.5q42 20 69.5 52.5t38.5 77.5q13 55 20.5 109.5t7.5 110.5q0 31 -3 62t-8 63q-4 20 -11 38.5t-18 35.5q-17 23 -39.5 34.5t-48.5 11.5t-47 -10q-8 -4 -11 -8.5t-3 -12.5l-7 -96q-2 -34 -2.5 -67t-0.5 -67q0 -77 2 -153t2 -154v-38q0 -2 1 -5.5
t3 -8.5zM298 -303q-31 0 -61.5 2t-60.5 9q-23 5 -42.5 14t-39.5 18q-20 10 -25.5 27.5t-5.5 37.5q-1 45 -2 89.5t-1 89.5l8 324q0 57 -1 114.5t-3 114.5l-1 59q0 70 4 140t7 140q1 26 12.5 39.5t40.5 21.5q34 9 68 16t69 9l41 1q59 0 118 -9q76 -11 124 -58t65 -123
q8 -37 11.5 -73.5t3.5 -73.5q0 -38 -3.5 -77t-8.5 -78q-5 -34 -11 -67.5t-17 -65.5q-8 -18 -18 -35t-21 -35q12 -4 22 -6t19 -6q36 -17 58.5 -44.5t27.5 -67.5q6 -42 6 -85q0 -9 -1 -28t-2.5 -40t-3.5 -39.5t-3 -27.5q-5 -38 -20.5 -69t-42.5 -57q-48 -43 -102 -70t-119 -29
q-23 -1 -44.5 -1.5t-44.5 -0.5z" />
    <glyph glyph-name="c" unicode="c" horiz-adv-x="757" 
d="M399 -302q-22 1 -43.5 1.5t-44.5 0.5l-50 -1q-31 0 -56 10.5t-43.5 28.5t-30.5 41t-18 49q-11 45 -18.5 90t-15.5 91q-7 42 -10.5 84.5t-5 87.5t-2 93t-1.5 101l1 111v54t2 53q5 85 35 160t76 145q43 64 118 64h93l50 -1q95 -3 165 -70q23 -22 38 -48.5t20 -58.5l1 -14
q0 -17 -4 -29q-5 -18 -17 -27.5t-27 -9.5h-6q-16 2 -27 12.5t-11 29.5v6q0 44 -25.5 68t-60.5 39q-10 4 -17 6t-14 2q-11 0 -19 -7t-18 -22q-42 -64 -66 -133.5t-26 -147.5l-1 -164q0 -87 2 -156t7 -133q5 -63 16 -124.5t25 -124.5q1 -5 2 -9.5t3 -9.5q17 -43 50 -43
q12 0 29 6q31 12 57 28t46 38.5t32 52.5t14 68l1 34q0 29 -2.5 57t-6.5 57l-2 20t-1 21v9t1 9q3 19 15 30.5t29 11.5h2q16 0 28 -10.5t15 -29.5q5 -45 10 -89.5t5 -89.5q0 -17 -1 -34t-3 -34q-5 -48 -26 -88t-56 -72q-44 -40 -95 -65t-114 -25h-3z" />
    <glyph glyph-name="d" unicode="d" horiz-adv-x="711" 
d="M362 -212q72 33 120 83t63 128q7 35 9.5 71t2.5 71l-1 63q-5 84 -6.5 166t-5.5 166q-6 136 -69 256q-16 31 -42.5 44.5t-56.5 21.5q-4 1 -10 1q-17 0 -19 -23l-4 -64q-3 -49 -6 -97t-3 -97q0 -23 1 -46t3 -46q0 -47 3 -93q1 -112 2 -227.5t7 -226.5q2 -36 4 -72.5
t8 -78.5zM283 -303l-60 4l-60 4q-21 1 -34.5 4.5t-21 11.5t-11 21.5t-6.5 35.5q-7 61 -9.5 121.5t-5.5 121.5q-5 94 -6 191.5t-1 190.5q-2 23 -3 46.5t-1 46.5q-2 21 -3 42.5t-1 42.5q0 56 4.5 111t7.5 111q3 48 9 95q4 33 18.5 47t49.5 15q51 0 101.5 -2t101.5 -4
q33 -2 63 -11.5t59 -23.5q46 -22 73 -66q38 -64 58 -133.5t29 -142.5q8 -62 8.5 -123.5t7.5 -123.5l-1 -107l1 -64l1 -28q0 -42 -5 -83.5t-13 -83.5q-10 -51 -35.5 -91t-59.5 -77q-48 -53 -106 -76.5t-127 -23.5z" />
    <glyph glyph-name="e" unicode="e" horiz-adv-x="694" 
d="M130 -313q-36 0 -50.5 12.5t-15.5 50.5q-1 17 -1.5 34.5t-0.5 34.5l1 39l2 115q0 55 -2.5 109.5t-2.5 109.5q0 44 3 89v64q3 70 5.5 139.5t2.5 137.5q0 65 -3 131l-1 55q0 23 0.5 44.5t1.5 44.5q2 29 13 41.5t40 16.5q40 6 84 6h23q51 0 100 0.5t100 0.5q84 0 167 -3
l14 -2t14 -3q14 -5 22 -16t8 -24v-6q-4 -31 -35 -39q-5 -1 -10.5 -1.5t-10.5 -0.5h-7q-12 1 -23.5 1h-23.5q-28 0 -56 -1l-56 -2l-24 2q-12 0 -24 -1t-24 -1q-20 0 -20 -19l-1 -48q2 -54 3.5 -108t1.5 -109q0 -66 -2 -132.5t-6 -120.5q-1 -11 -1 -22v-22v-14q0 -9 1 -14
t5 -8t11.5 -4t20.5 -1l23 -1l45 1q12 0 24 -0.5t24 -4.5q16 -5 24.5 -17.5t8.5 -26.5q0 -8 -1 -12q-3 -15 -14.5 -25.5t-26.5 -10.5l-9 1q-10 2 -19 2.5t-19 0.5l-46 -1h-30q-13 0 -17.5 -5.5t-4.5 -18.5v-8q2 -21 2 -41.5v-41.5q0 -43 -0.5 -75t-1 -56.5t-1 -44t-0.5 -38.5
q0 -21 3 -27.5t18 -6.5l230 11q14 0 25 -4q30 -11 30 -41v-2q0 -27 -27 -40q-11 -5 -21.5 -6t-21.5 -1q-63 -2 -124.5 -6t-123.5 -4q-6 0 -16 -0.5t-21 -0.5h-25q-32 0 -64.5 -2.5t-65.5 -2.5z" />
    <glyph glyph-name="f" unicode="f" horiz-adv-x="714" 
d="M130 -313q-36 0 -50.5 12.5t-15.5 50.5q-1 17 -1.5 34.5t-0.5 34.5l1 39l2 115q0 55 -2.5 109.5t-2.5 109.5q0 44 3 89v64q3 70 5.5 139.5t2.5 137.5q0 65 -3 131l-1 55q0 23 0.5 44.5t1.5 44.5q2 29 13 41.5t40 16.5q40 6 84 6h23q51 0 100 0.5t100 0.5q84 0 167 -3
l14 -2t14 -3q14 -5 22 -16t8 -24v-6q-4 -31 -35 -39q-5 -1 -10.5 -1.5t-10.5 -0.5h-7q-12 1 -23.5 1h-23.5q-28 0 -56 -1l-56 -2l-24 2q-12 0 -24 -1t-24 -1q-20 0 -20 -19l-1 -48q2 -54 3.5 -108t1.5 -109q0 -66 -2 -132.5t-6 -120.5q-1 -11 -1 -22v-22v-14q0 -9 1 -14
t5 -8t11.5 -4t20.5 -1l23 -1l45 1q12 0 24 -0.5t24 -4.5q16 -5 24.5 -17.5t8.5 -26.5q0 -8 -1 -12q-3 -15 -14.5 -25.5t-26.5 -10.5l-9 1q-10 2 -19 2.5t-19 0.5l-46 -1h-30q-13 0 -17.5 -5.5t-4.5 -18.5v-8q2 -21 2 -41.5v-41.5q0 -43 -0.5 -75t-1 -56.5t-1 -44t-0.5 -38.5
v-16q0 -14 -0.5 -36t-2.5 -42q-2 -22 -13 -27.5t-18 -5.5q-7 -1 -14 -1h-13h-13q-32 0 -64.5 -2.5t-65.5 -2.5z" />
    <glyph glyph-name="g" unicode="g" horiz-adv-x="781" 
d="M267 -302q-33 0 -59 10.5t-44.5 28.5t-30.5 41t-18 48q-20 87 -33 177q-13 82 -17.5 167t-4.5 189q0 61 2 121.5t4 121.5q3 84 35 157t78 142q38 59 107 60l93 1q21 0 42 -1t41 -4q64 -10 112 -42.5t76 -94.5q10 -23 10 -49q0 -14 -3 -29q-5 -19 -17 -29.5t-27 -10.5h-4
q-17 1 -28.5 13.5t-13.5 32.5q-9 89 -94 113q-13 4 -24 4q-16 0 -30 -22q-32 -51 -57 -103.5t-33 -112.5q-3 -28 -5 -56t-2 -56v-136q0 -79 1 -139.5t6 -117.5q5 -69 17 -136.5t26 -135.5q2 -8 5.5 -16.5t8.5 -16.5q16 -24 40 -24h7t8 2q31 9 59 24.5t50.5 38t36.5 52
t16 65.5l2 42q0 30 -1.5 55t-3.5 50q-2 15 -8.5 21.5t-22.5 6.5q-13 -1 -25.5 -2t-25.5 -4l-23 -7q-12 -3 -22 -3q-38 0 -47 33q-1 4 -1 11q0 31 42 48q41 14 82 15l88 3q33 0 49.5 -13.5t16.5 -44.5v-11q-3 -45 -3 -89q0 -66 4 -127t9 -122q1 -13 3 -26.5t4 -30.5l1 -20
q0 -16 -4 -28q-5 -16 -17 -25t-27 -9q-34 2 -43 36q-2 11 -3.5 24.5t-3.5 36.5q-20 -17 -38 -29.5t-35 -23.5q-66 -42 -147 -44h-136z" />
    <glyph glyph-name="h" unicode="h" horiz-adv-x="764" 
d="M135 -302q-41 0 -47 45q-2 17 -2.5 35t-1.5 36l-20 481q-2 23 -3 45.5t-1 43.5q0 33 1 64l2 62q1 75 1.5 150t2.5 150q1 21 3 41.5t4 41.5q5 39 20.5 53t54.5 15h144q57 -2 57 -45q0 -13 -4 -25q-8 -23 -9 -45.5t-1 -45.5q-2 -85 -4 -167.5t-2 -157.5q0 -95 3 -191
q1 -32 5.5 -43t24.5 -11q6 0 13.5 0.5t17.5 1.5q21 2 42 3t42 1h14.5t13.5 1q18 3 28.5 5.5t16.5 8t7.5 14t1.5 23.5l-1 72q0 53 2 103.5t5 94.5q3 42 3.5 84.5t0.5 85.5v134q0 8 -1.5 16t-2.5 16l-1 11q0 14 6 28q14 30 44 30h3q34 -2 42 -36q2 -11 2.5 -22t0.5 -22
q0 -127 -2.5 -250.5t-8.5 -240.5l-1 -50q0 -36 3 -70q1 -8 1 -15t4 -13q11 -19 11 -37q0 -15 -8 -30q-4 -7 -4 -17q0 -7 1 -13.5t2 -13.5l41 -364q1 -6 1.5 -12t0.5 -12q-2 -20 -12.5 -33t-27.5 -15h-6q-17 0 -29.5 10t-15.5 30q-5 30 -9 60.5t-7 61.5q-8 75 -14 137
t-13 129q-2 16 -4.5 21t-10.5 5l-20 -2q-42 -4 -83.5 -6t-83.5 -4q-18 -1 -23 -3.5t-5 -16.5l15 -325v-48q-5 -48 -48 -48q-19 -1 -37 -1h-36z" />
    <glyph glyph-name="i" unicode="i" horiz-adv-x="403" 
d="M164 -303q-11 0 -21.5 2.5t-21.5 5.5q-38 11 -40 53q-8 148 -14.5 293.5t-6.5 293.5q0 55 1 111t4 117q4 78 3.5 154t1.5 154q1 45 17 62t58 17l128 -5q32 -3 44.5 -16t12.5 -45v-27q0 -42 1 -83t1 -82q0 -11 -1 -36t-2 -58t-3 -70t-3 -72t-2 -64t-1 -46q0 -41 1 -81
t4 -80q1 -8 1 -31v-48v-62q0 -53 4.5 -105t9.5 -106q3 -27 3 -54l-1 -30q-4 -54 -58 -58q-30 -2 -60 -3t-60 -1z" />
    <glyph glyph-name="j" unicode="j" horiz-adv-x="700" 
d="M442 -305q-30 1 -59.5 1.5t-59.5 2.5t-59.5 7t-58.5 16q-63 24 -103.5 65.5t-51.5 110.5q-5 29 -7.5 57t-2.5 56q0 17 1 33t4 33q4 23 5.5 45.5t3.5 45.5q1 6 1 12.5t2 11.5q5 19 17 30t29 11h5q17 -2 28.5 -14.5t11.5 -32.5v-4q-2 -25 -4 -49.5t-6 -49.5
q-2 -19 -3.5 -37.5t-1.5 -37.5q0 -25 2.5 -50t7.5 -50q12 -58 61 -84q15 -8 30.5 -13.5t32.5 -9.5q12 -3 23 -3q27 0 44.5 16.5t22.5 45.5q3 18 5 36t3 36q0 118 1 239v108t0.5 114.5t0.5 114.5v109v137.5t-1 87.5v28v14.5t1 13.5q6 59 62 60l50 1q45 0 90 -3q38 -4 52 -20
t14 -51l-1 -42q0 -35 1.5 -69t3.5 -69q0 -7 1 -24q0 -14 0.5 -39.5t0.5 -65.5t-0.5 -97.5t-1.5 -135.5t-2.5 -179.5t-3.5 -229.5q-1 -33 -5 -65.5t-12 -64.5q-5 -19 -14.5 -33t-23.5 -26q-28 -23 -59 -36.5t-67 -13.5h-10z" />
    <glyph glyph-name="k" unicode="k" horiz-adv-x="734" 
d="M131 -302q-38 0 -47 40q-3 10 -3 20l-21 431q0 59 1 114q0 23 0.5 47t1 46.5t0.5 41.5v33v26q-2 103 -2 205v199q0 27 10.5 40.5t36.5 16.5q22 2 43 3t43 1q23 0 47 -1t47 -3q26 -2 38 -15.5t15 -39.5q1 -8 1 -17.5v-17.5v-237.5t1 -242.5v-25q9 8 11.5 15t4.5 14
q41 121 88 251.5t100 262.5q4 8 7 16.5t8 16.5q14 20 39 20h6.5t7.5 -2q29 -11 29 -44q0 -11 -3 -20t-7 -19q-56 -140 -105.5 -277.5t-92.5 -266.5q-11 -32 -22.5 -62.5t-24.5 -60.5q-5 -13 -5 -21q0 -10 8 -24q56 -100 106.5 -182.5t107.5 -155.5q13 -17 32 -30
q5 -3 9.5 -6.5t9.5 -7.5q17 -15 17 -36q0 -14 -8 -25q-13 -20 -37 -20q-8 0 -20 5q-24 11 -43 28t-36 38q-38 51 -75 106t-75 130q-5 10 -12 19.5t-17 23.5q-1 -14 -1 -26v-24q0 -26 1.5 -49.5t3.5 -46.5q3 -34 5 -68t2 -68v-16q-2 -27 -13.5 -39.5t-37.5 -13.5
q-19 -1 -38 -1h-38z" />
    <glyph glyph-name="l" unicode="l" horiz-adv-x="726" 
d="M144 -302q-64 0 -64 68v22q0 88 -8.5 173.5t-8.5 173.5v37q0 38 -1.5 75t-1.5 71q1 143 1.5 285.5t6.5 285.5q1 21 4 34.5t11 21t21.5 11t35.5 4.5l32 1q32 0 64 -2t64 -2h3q23 0 34.5 -12.5t14.5 -35.5v-20q-5 -85 -4.5 -168t-2.5 -168v-160q0 -63 1 -122t3 -122
q2 -70 6.5 -139.5t7.5 -139.5l-1 -40q0 -9 1.5 -17t6.5 -14q5 -5 10.5 -6t12.5 -3q11 -2 22.5 -2.5t22.5 -0.5h59q28 0 55 1.5t54 6.5q13 3 28 3q19 0 35 -4q17 -5 27 -17.5t10 -29.5v-4q-3 -37 -47 -40q-41 -2 -81 -3t-81 -1h-41t-41 1h-15q-64 0 -127.5 -1t-128.5 -1z" />
    <glyph glyph-name="m" unicode="m" horiz-adv-x="846" 
d="M130 -305q-41 0 -47 46q-2 18 -3 36l-2 36q-3 109 -8 218.5t-6 219.5q0 32 -2 64t-2 64l2 501q2 67 64 73q33 4 65.5 6.5t65.5 2.5h18t19 -1q32 -2 45 -14t18 -43q23 -118 61 -251.5t81 -271.5l7 -16q7 5 8.5 8.5t2.5 8.5q32 142 70.5 277t73.5 256q12 47 49 47h6
q20 -3 33 -19.5t14 -41.5v-232l-1 -63q0 -74 2.5 -146.5t6.5 -146.5q5 -81 8 -170t6 -170q2 -31 3.5 -61.5t3.5 -61.5q2 -23 4 -45.5t8 -45.5l2 -13q0 -17 -11.5 -30.5t-28.5 -17.5q-4 -1 -11 -1q-14 0 -26 9.5t-18 26.5q-4 11 -5.5 21.5t-2.5 21.5q-11 192 -19.5 391
t-13.5 392q-1 5 -2 9t-3 9q-13 -28 -20 -56.5t-14 -57.5q-16 -66 -30.5 -130.5t-28.5 -130.5q-3 -11 -6 -23t-8 -23q-7 -13 -17.5 -19t-22.5 -6q-23 0 -38 21q-6 8 -9 17.5t-6 19.5q-28 89 -58 176.5t-54 178.5q-2 5 -2.5 9.5t-5.5 7.5h-2q-3 0 -3 -4q-1 -37 -1.5 -73.5
t-0.5 -73.5q0 -57 4 -112t4 -112q0 -175 9 -347q1 -17 1.5 -35t2.5 -36l1 -11q0 -26 -13.5 -39t-41.5 -17q-43 -5 -86 -4.5t-86 -1.5h-3z" />
    <glyph glyph-name="n" unicode="n" horiz-adv-x="748" 
d="M320 -303q-48 0 -94.5 1t-93.5 2q-39 0 -50 38q-6 18 -6 36q-2 31 -5 61.5t-3 61.5q0 24 -1 58.5t-1.5 73t-1.5 79t-2 76.5t-1.5 65.5t-0.5 46.5v16l1 47q2 54 2.5 106.5t0.5 106.5v97t-2 93v20q0 25 1 49.5t1 49.5v23q0 23 13.5 37t37.5 16q40 3 82 3q29 0 57 -1t57 -3
q25 -2 36.5 -13t14.5 -34q23 -156 65.5 -308.5t85.5 -307.5q16 -58 32.5 -115t33.5 -115q2 -8 5 -15t6 -15q2 10 3 19.5t1 18.5q0 15 -1 29.5t-3 28.5q-8 114 -15 227t-7 228l-1 180q0 30 0.5 59.5t2.5 55.5q1 10 1 20t2 20q4 19 16 29t29 10h2q18 -2 29.5 -13.5t12.5 -31.5
l-1 -88q-1 -37 -1 -77v-81q0 -106 3 -210.5t11 -210.5q9 -119 17.5 -235.5t14.5 -228.5q1 -6 1.5 -12t0.5 -12q-3 -49 -46 -58l-15 -2q-31 0 -47 33q-11 21 -20 43t-19 45q-37 86 -62 182t-54 193q-22 73 -42 146l-40 146q-2 6 -3.5 11.5t-6.5 9.5q-4 -1 -4 -7v-26
q0 -54 -1 -105.5t-1 -97.5q0 -9 0.5 -40t1 -73.5t1 -92t2 -96t3 -85.5t3.5 -60q2 -17 2.5 -34t4.5 -34l2 -15q0 -20 -12 -31.5t-35 -12.5z" />
    <glyph glyph-name="o" unicode="o" 
d="M442 -205q22 0 39 30q7 13 11.5 25.5t9.5 26.5q36 112 53.5 226t21.5 233v7q0 125 -22.5 240.5t-60.5 230.5q-2 5 -4 9t-4 9q-17 27 -45 27q-11 0 -22.5 -5.5t-19.5 -16.5q-17 -23 -26 -48t-16 -51q-21 -85 -29 -170.5t-13 -173.5q-2 -20 -2 -40v-40q0 -115 16 -221
t46 -211q5 -17 11 -32.5t17 -29.5q19 -25 39 -25zM265 -302q-23 0 -40.5 10.5t-33.5 25.5q-26 25 -40.5 55t-24.5 63q-33 114 -49.5 228.5t-16.5 237.5q0 48 3 98q5 89 15 175.5t31 172.5q23 89 80 155q12 15 26 24t34 11l54 4t55 2q32 0 63 -3.5t62 -12.5q39 -11 63 -37
t36 -64q28 -88 49.5 -176.5t30.5 -181.5q3 -30 5.5 -59.5t2.5 -58.5v-22q-5 -131 -23.5 -254.5t-57.5 -243.5q-5 -17 -11 -32.5t-14 -30.5q-33 -70 -112 -81q-25 -4 -49.5 -5t-49.5 -1z" />
    <glyph glyph-name="p" unicode="p" horiz-adv-x="700" 
d="M378 240q6 0 13.5 1t17.5 3q3 0 6 1t5 2q54 13 80.5 48t33.5 86q5 29 7.5 55.5t4.5 40.5q1 5 1 10v10q0 10 -0.5 18.5t-0.5 15.5q-5 113 -40 219q-14 42 -42 67.5t-67 40.5q-8 2 -16 3.5t-16 3.5l-8 1q-17 0 -17 -19l1 -43q2 -69 3.5 -134.5t3.5 -117.5v-116.5t1 -141.5
q0 -31 5 -42.5t24 -11.5zM151 -304q-5 0 -10.5 0.5t-10.5 1.5q-55 9 -56 65q-3 64 -4 132.5t-1.5 137.5t-0.5 137.5v131.5v143q0 51 -0.5 100.5t-2.5 99.5q-2 55 -2.5 110t-2.5 110v16q1 42 16.5 58.5t57.5 19.5l38 1l74 -1h80l40 -2q85 -10 143.5 -54t85.5 -128
q39 -121 45 -246v-9v-23.5t-2 -41.5q-2 -20 -6 -48t-9 -57q-7 -37 -24.5 -72.5t-47 -63.5t-71.5 -45.5t-97 -18.5q-20 0 -25 -3t-5 -18v-79q0 -35 -0.5 -71t-0.5 -72v-32t1 -32l4 -90q0 -39 -40 -49q-8 -2 -15.5 -2.5t-15.5 -1.5q-32 -2 -64 -2.5t-64 -1.5h-7z" />
    <glyph glyph-name="q" unicode="q" horiz-adv-x="729" 
d="M439 -203q9 0 20 6q10 6 10 14q0 5 -3 10t-5 10q-21 38 -33.5 78t-20 81t-12 82.5t-7.5 83.5q0 10 0.5 20t3.5 19q4 17 16 25.5t28 8.5q34 -2 42 -37l2 -19q2 -47 7.5 -92t13.5 -91q2 -12 5.5 -25t15.5 -28l6 26l18 82q31 140 31 290q0 118 -20.5 233.5t-59.5 230.5
q-2 7 -4.5 13.5t-5.5 12.5q-17 29 -45 29q-25 0 -43 -23q-17 -22 -25.5 -47t-15.5 -51q-27 -100 -34 -200.5t-11 -203.5l-1 -37q0 -113 18.5 -219t49.5 -211q11 -37 35 -61q11 -10 24 -10zM625 -323q-13 0 -25 6q-13 7 -24 15.5t-21 18.5q-7 6 -13 10t-14 4q-10 0 -21 -8
q-13 -10 -28.5 -14t-31.5 -6q-28 -3 -55.5 -4t-54.5 -1h-70q-21 0 -38.5 9.5t-32.5 23.5q-26 23 -41.5 51.5t-24.5 60.5q-32 109 -51 218t-19 225q0 39 3 78q1 103 11.5 203t35.5 199q11 45 31 82.5t49 72.5q11 14 25 22.5t32 10.5q26 2 53 4t53 2q32 0 62.5 -3t61.5 -11
q80 -20 106 -105q27 -88 48 -175.5t31 -178.5q4 -35 5.5 -69.5t1.5 -69.5q0 -130 -21 -252t-56 -243q-3 -11 -5 -17.5t-2 -11.5q0 -8 5 -14t18 -17q11 -9 22 -17.5t21 -18.5q18 -17 18 -36q0 -13 -9 -25q-13 -19 -35 -19z" />
    <glyph glyph-name="r" unicode="r" horiz-adv-x="709" 
d="M385 238q39 0 74 20t53 55q9 17 14.5 35t8.5 37q2 9 4 24.5t3.5 31.5t2 28.5t0.5 16.5q-1 29 -2.5 59t-3.5 59q-3 42 -13 81t-24 78q-8 20 -23 38t-34.5 32.5t-41 23t-42.5 9.5h-3q-19 0 -19 -21l1 -52q2 -66 4 -131.5t4 -131.5q1 -18 1 -35.5v-35.5l-1 -96v-101
q0 -11 4 -16.5t16 -6.5zM151 -306q-72 0 -72 69v18q0 19 -1.5 37.5t-3.5 37.5q-1 135 -4 252t-3 231l1 109q0 74 -2 146.5t-4 145.5q-1 27 -1.5 54t-0.5 54v40q0 68 68 71q32 2 65 3t65 1q29 0 57 -1t56 -5q81 -10 138 -53t84 -122q23 -69 34 -138t12 -139l-2 -45
q-2 -20 -5.5 -47.5t-8.5 -56.5q-12 -75 -53.5 -126.5t-117.5 -74.5q-4 -1 -8 -3t-12 -5q11 -11 27 -34t33.5 -52.5t36.5 -63.5t36 -65.5t31 -58t23 -42.5q5 -10 11.5 -18.5t13.5 -17.5q5 -7 9.5 -13t8.5 -14q7 -13 7 -26q0 -18 -14 -32q-13 -11 -29 -11q-19 0 -33 14
q-19 17 -33 38.5t-28 44.5q-18 30 -35.5 66.5t-37 74t-40 72.5t-44.5 61q-4 3 -7 6.5t-7 7.5q-6 -3 -7.5 -7t-1.5 -8l1 -14l7 -302q0 -27 -12 -38.5t-41 -14.5l-78 -4t-78 -2z" />
    <glyph glyph-name="s" unicode="s" horiz-adv-x="750" 
d="M396 -303q-30 0 -58 3q-50 3 -90 24.5t-73 57.5q-51 55 -78 118.5t-27 138.5v4v46t1 46q3 46 43 49h2q37 0 48 -43l2 -15q0 -6 -1 -12.5t-2 -12.5l-2 -40q0 -35 6 -71q10 -52 36 -93t65 -75q13 -11 27 -17q21 -10 43 -10q33 0 55 23t23 64v16q0 65 -22 125q-10 27 -20 53
t-22 52q-2 3 -7 11.5t-12 18t-14 19.5t-13 16q-11 12 -22.5 24.5t-22.5 24t-20 20t-13 12.5q-17 16 -34.5 34.5t-35.5 38.5q-38 40 -60 84t-30 81q-4 25 -6 49.5t-2 49.5q0 28 3 57q8 66 36 122t74 103q29 31 64.5 48t78.5 17h53q22 0 43.5 0.5t33.5 0.5h16
q62 0 103.5 -30.5t64.5 -83.5q38 -92 38 -193q0 -67 -17 -140q-5 -20 -16.5 -30t-27.5 -10q-8 0 -12 1q-16 4 -25.5 16t-9.5 29l2 15q12 55 12 110q0 47 -7 88q-5 31 -13.5 60t-33.5 52q-20 19 -38 19q-12 0 -30 -9q-9 -5 -17.5 -10.5t-14.5 -13.5q-28 -29 -49 -62.5
t-30 -74.5q-9 -42 -9 -84q0 -24 2.5 -47.5t7.5 -47.5q2 -7 9 -24t12 -25q7 -10 15.5 -22t19.5 -24q20 -21 38.5 -42t38.5 -38t44 -42.5t44 -50.5q7 -8 15.5 -20t16 -24t13 -21.5t7.5 -12.5q15 -31 27.5 -62.5t23.5 -63.5q24 -69 24 -140q0 -11 -0.5 -21t-1.5 -21
q-3 -30 -16 -58t-34.5 -50.5t-52 -36.5t-67.5 -15l-122 -2v0z" />
    <glyph glyph-name="t" unicode="t" horiz-adv-x="698" 
d="M328 -307q-21 0 -41.5 1.5t-41.5 5.5q-23 5 -32.5 16.5t-11.5 36.5q-9 117 -14.5 232.5t-5.5 233.5l1 77q2 103 2.5 205.5t5.5 207.5q2 34 4.5 66.5t6.5 59.5v4q0 13 -5.5 19t-19.5 8q-26 3 -51 3h-18.5t-18.5 -1q-9 1 -18 1t-17 2q-15 4 -24 15t-9 26v3q0 27 28 41
q13 5 27 5l12 -1q103 -1 203.5 -1.5t203.5 -0.5h68q18 0 40 -5q17 -5 26.5 -16.5t9.5 -26.5l-1 -7q-2 -16 -14 -26.5t-31 -11.5h-88q-12 0 -18.5 -0.5t-9.5 -3.5t-4.5 -9.5t-2.5 -18.5q-11 -91 -13.5 -182.5t-2.5 -182.5v-164q-1 -35 -1.5 -70.5t-0.5 -70.5q0 -47 1 -93.5
t5 -93.5q4 -49 4 -97.5t8 -97.5q1 -3 1 -6.5v-6.5l-1 -19q-3 -21 -13.5 -33t-31.5 -15q-24 -4 -48 -6t-48 -2z" />
    <glyph glyph-name="u" unicode="u" horiz-adv-x="736" 
d="M332 -305q-27 0 -54 2.5t-53 6.5q-50 6 -79.5 38t-43.5 78q-12 38 -16.5 76.5t-6.5 77.5l-17 289q-2 19 -2 58.5v78.5v56.5t1 31.5q4 119 10.5 217t15.5 192q4 32 18 45t47 15q26 2 52.5 3.5t52.5 1.5h19t19 -1q35 -3 48.5 -14.5t13.5 -41.5l-1 -16q-4 -47 -8 -93t-7 -94
q-4 -60 -7 -119.5t-6 -119.5v-18q0 -16 0.5 -40.5t1 -50t1 -49t1.5 -37.5q5 -76 9 -151.5t9 -153.5q2 -21 4.5 -42t5.5 -42q1 -8 3 -15.5t4 -15.5q6 -17 16.5 -30.5t28.5 -16.5l7 -1q16 0 26.5 11t19.5 25q24 38 37 80t24 85q20 86 28 171t10 172v25.5t2 25.5q7 58 10 117
t4 118.5t1 120.5t1 124q0 11 0.5 21.5t2.5 21.5q5 20 16.5 30.5t28.5 10.5h6q40 -5 40 -51q-1 -61 -2 -114.5t-1 -105.5q-1 -76 -4 -151.5t-11 -151.5q-5 -52 -5.5 -103.5t-5.5 -104.5q-8 -75 -21.5 -149t-37.5 -146q-9 -28 -22 -53.5t-28 -50.5q-18 -31 -45.5 -47.5
t-60.5 -24.5q-25 -6 -49.5 -8.5t-50.5 -2.5z" />
    <glyph glyph-name="v" unicode="v" horiz-adv-x="732" 
d="M313 -305h-30.5t-30.5 2q-15 1 -24.5 3.5t-16.5 8t-11.5 14.5t-9.5 24q-6 17 -8.5 35t-2.5 36q-1 42 -8.5 83t-13.5 83q-23 141 -43 277.5t-30 263.5q-15 178 -24 355v15.5t1 15.5q6 42 43 46q21 2 41.5 3t41.5 1q24 0 48.5 -1.5t48.5 -3.5q40 -4 40 -55
q1 -63 5.5 -125.5t9.5 -125.5q8 -115 20.5 -240.5t37.5 -254.5q4 -17 4.5 -35.5t11.5 -41.5q8 54 14 102t14 95q26 166 58.5 324.5t69.5 295.5q3 11 7 22.5t11 21.5q15 20 38 20q11 0 19 -4q13 -5 20.5 -16t7.5 -24q0 -9 -3 -16q-41 -124 -69 -271t-57 -300
q-20 -106 -31.5 -213t-22.5 -215q-4 -38 -9.5 -75t-16.5 -74q-8 -32 -21.5 -42t-45.5 -12q-21 -1 -41.5 -1.5t-41.5 -0.5z" />
    <glyph glyph-name="w" unicode="w" horiz-adv-x="884" 
d="M238 -303q-28 0 -40.5 10t-20.5 36q-9 32 -14 64.5t-7 65.5q-6 89 -20 174t-25 179l-5 47.5t-6 63.5t-6.5 74.5t-6.5 79.5q-7 100 -14.5 199t-12.5 197v5q0 34 17 50t48 16l128 1q35 -1 49 -14.5t15 -48.5q6 -149 18.5 -298t23.5 -301q2 -20 5.5 -49t8.5 -64t11 -74.5
t13 -79.5h10q9 51 18 101.5t17 101.5q11 72 23.5 144t17.5 145q2 21 9 39q5 16 19.5 24.5t31.5 8.5h7q18 -2 29 -13.5t14 -31.5l-1 -53q0 -48 3.5 -95t8 -94.5t8.5 -94.5t5 -94q1 -36 6.5 -72t13.5 -73q9 4 9.5 10.5t2.5 12.5q16 102 28 204t20.5 200.5t15 191t13.5 175.5
q2 29 2.5 58t1.5 58v11.5t1 11.5q6 53 48 53h4q41 -5 41 -55v-3q-1 -81 -7 -161.5t-12 -161.5q-3 -41 -7 -91t-8.5 -105.5t-11 -115.5t-15.5 -120q-15 -99 -27 -198q-6 -43 -9.5 -86t-11.5 -85q-3 -12 -5 -23.5t-7 -22.5q-14 -34 -45 -34q-18 0 -34 13q-20 16 -30 37.5
t-16 44.5q-14 60 -24 118q-10 50 -18.5 99.5t-15.5 100.5q-12 -35 -18 -70t-11 -71q-8 -53 -18.5 -104.5t-25.5 -102.5q-6 -19 -12 -31.5t-15.5 -20t-23 -10.5t-34.5 -3l-62 -1z" />
    <glyph glyph-name="x" unicode="x" horiz-adv-x="779" 
d="M103 -301q-11 0 -21 6q-22 13 -22 39q0 8 1 12q2 6 4.5 11.5t4.5 10.5q41 96 89.5 197.5t99.5 204.5q11 24 11 43q-2 16 -4 25.5t-5 18.5q-38 115 -70 229t-63 223q-11 41 -16.5 82t-19.5 82q-2 5 -3 10t-1 10q0 21 16 36t44 18q24 2 48 2t48 1q11 0 22 -1t22 -1
q21 -1 33 -3t20 -8t13.5 -18t12.5 -32q5 -14 8.5 -28.5t5.5 -29.5q10 -57 27.5 -121.5t39.5 -136.5q8 5 13.5 14.5t10.5 18.5q39 82 79.5 160t70.5 147q5 14 14 23q14 14 31 14q8 0 16 -3q25 -9 28 -36v-6q0 -16 -5 -29t-11 -26q-37 -74 -78 -159t-86 -173
q-18 -37 -27 -56.5t-9 -39.5q0 -15 5 -33.5t13 -41.5q26 -83 49.5 -165t49.5 -164q20 -63 44 -124t56 -119q3 -7 5 -13t2 -13q0 -17 -12 -31t-34 -19q-20 -5 -41 -6.5t-42 -1.5h-92q-22 2 -36.5 12t-22.5 30q-25 67 -53 132t-47 134q-5 19 -10 37t-13 29q-10 -5 -13 -12.5
t-7 -15.5q-37 -74 -70.5 -145.5t-61.5 -137.5q-5 -12 -10 -23.5t-14 -21.5q-15 -18 -37 -18z" />
    <glyph glyph-name="y" unicode="y" horiz-adv-x="703" 
d="M325 -303q-23 0 -45 0.5t-45 1.5q-41 3 -46 46q-1 5 -1 16v16q-1 69 -3.5 137t-2.5 137l2 67q0 16 -4 27q-19 68 -30.5 136.5t-22.5 137.5q-14 76 -27 151.5t-26 151.5q-7 37 -13.5 73t-16.5 72q-2 7 -3 13.5t-1 12.5q0 28 18.5 45t51.5 19l55 1h51h24.5t25.5 -1
q27 -1 37.5 -14.5t15.5 -39.5q10 -60 21 -118t22 -118l44 -251l10 -48q11 19 13.5 37t7.5 35q27 112 49 224.5t55 223.5q3 11 7 22.5t9 21.5q7 14 18 20.5t24 6.5q10 0 15 -2q29 -11 29 -42l-2 -14q-6 -24 -14 -47.5t-13 -48.5q-30 -134 -59 -267t-61 -267
q-17 -65 -26 -126.5t-9 -109.5l1 -42q3 -56 3 -111.5t1 -111.5v-7q0 -32 -14 -46t-47 -17q-39 -3 -78 -3z" />
    <glyph glyph-name="z" unicode="z" horiz-adv-x="716" 
d="M118 -305q-58 5 -58 57v7.5t1 8.5q31 193 78 380.5t104 375.5q19 58 41 121.5t48 127.5q8 20 15.5 41t14.5 52q-32 0 -63.5 1.5t-63.5 1.5q-31 0 -62 -3q-11 -1 -21 -2t-21 -1l-18 1q-49 6 -49 46v2q0 20 13.5 31t37.5 13q30 2 74.5 3t92.5 1q34 0 66.5 -0.5t59 -0.5
t44.5 -0.5t24 -0.5q28 0 55 -1t55 -2q50 -1 53 -57q0 -11 -2.5 -21t-6.5 -21q-19 -62 -42.5 -121t-44.5 -119q-35 -100 -64.5 -208.5t-62.5 -217.5q-28 -92 -43.5 -184.5t-34.5 -186.5l-3 -18q0 -13 20 -13h69h58.5t58.5 1q13 1 25.5 2.5t26.5 1.5h12t12 -2
q18 -4 28.5 -16.5t10.5 -29.5v-2q0 -17 -12 -29t-32 -14q-98 -1 -194.5 -4t-194.5 -3z" />
    <glyph glyph-name="braceleft" unicode="{" horiz-adv-x="533" 
d="M346 -304q-22 0 -44 2t-45 5q-18 3 -30 15t-21 27q-26 41 -37.5 85.5t-16.5 92.5q-2 22 -2.5 44.5t-0.5 45.5v144q-1 35 -12.5 63t-41.5 50q-35 27 -35 52q0 26 35 52q31 23 42 53t12 65v167q0 42 3.5 83.5t16.5 82.5q14 42 26.5 68.5t29.5 41t41.5 19.5t63.5 5h25l36 -2
t36 -3q22 -3 34 -15t12 -29q0 -15 -10 -29q-32 -46 -42 -96.5t-12 -104.5l-1 -65l1 -114q0 -45 -10 -86.5t-42 -76.5q-6 -6 -6 -12t6 -12q31 -34 41 -74.5t11 -84.5v-150q0 -26 1.5 -52t6.5 -52q5 -31 14.5 -60t27.5 -55q14 -20 14 -37q0 -32 -45 -44q-20 -5 -40.5 -7
t-41.5 -2z" />
    <glyph glyph-name="bar" unicode="|" horiz-adv-x="402" 
d="M131 -303q-29 2 -41.5 14t-14.5 41q-4 56 -6 115q-2 98 -5 195t-3 195v428q1 51 1 102t7 102q2 17 5.5 28t10 18t18 10.5t28.5 6.5q26 3 50.5 5t50.5 2q27 -1 46.5 -1.5t32.5 -5.5t19 -16.5t6 -32.5q-1 -24 -2.5 -44.5t-2.5 -41t-1.5 -42t-0.5 -47.5q1 -60 1.5 -107
t1 -92.5t1 -96t0.5 -117.5v-171t2 -171q1 -48 4 -93.5t3 -92.5q0 -23 -1 -37.5t-7 -23.5t-18 -14.5t-34 -9.5q-21 -4 -42 -5t-42 -1z" />
    <glyph glyph-name="braceright" unicode="}" horiz-adv-x="356" 
d="M104 -303q-17 0 -30.5 14t-13.5 31q0 19 16 36q20 21 28 46.5t13 51.5q7 32 9 64.5t2 65.5l-2 105q0 28 2 52.5t7 47.5t14.5 45.5t25.5 46.5q4 6 6.5 11t2.5 11q0 8 -6 17q-30 44 -41.5 92.5t-11.5 100.5q1 30 1.5 59.5t0.5 54.5q0 41 -3 84t-15 81q-6 18 -13.5 35
t-21.5 32q-14 16 -14 33q0 18 13 31.5t31 13.5q25 0 45.5 -22.5t32.5 -51.5q20 -47 28 -95.5t10 -99.5v-80h-1v-50.5t1 -49.5q0 -82 54 -142q23 -26 23 -44q0 -17 -23 -43q-53 -62 -55 -146l1 -161q-1 -51 -8.5 -101t-27.5 -98q-8 -17 -17 -33.5t-25 -28.5q-21 -16 -38 -16z
" />
    <glyph glyph-name="asciitilde" unicode="~" horiz-adv-x="700" 
d="M463 250q-45 0 -87 10t-83 26q-21 8 -40.5 15.5t-39.5 7.5q-28 0 -53 -16l-31 -17q-14 -6 -26 -6q-19 0 -31 13.5t-12 30.5q0 23 21 38q30 22 62.5 36.5t69.5 14.5q26 0 52.5 -8.5t54.5 -20.5q32 -14 71.5 -23.5t74.5 -9.5q27 0 51 9.5t44 35.5q14 17 34 17
q18 0 31.5 -13.5t13.5 -32.5q0 -14 -4.5 -21t-12.5 -19q-33 -39 -70.5 -53t-89.5 -14z" />
    <glyph glyph-name="exclamdown" unicode="&#xa1;" horiz-adv-x="422" 
d="M173 546q30 -1 60 -1t60 -2q38 -2 52.5 -18.5t15.5 -54.5l1 -51q0 -84 -5 -166.5t-7 -165.5l-4 -308v-14t-1 -14q-3 -22 -13.5 -33.5t-32.5 -14.5q-28 -4 -56 -5.5t-57 -1.5q-39 0 -78 3q-46 3 -46 55v7q2 36 3 72.5t1 76.5l-1 119q0 97 6.5 199.5t6.5 208.5l-1 43
q0 26 10 37t35 20q24 9 51 9zM213 959q22 0 43.5 -0.5t43.5 -1.5q43 -1 51 -47q2 -12 2.5 -25t0.5 -26l4 -128q0 -33 -14 -47.5t-49 -16.5l-28 -1l-112 -2l-28 1q-52 3 -55 55q-1 26 -1 52v52q-1 15 -2 29.5t-6 29.5q-3 9 -3 18q0 20 13.5 34t35.5 17q26 4 52 5.5t52 1.5z
" />
    <glyph glyph-name="cent" unicode="&#xa2;" horiz-adv-x="700" 
d="M336 245q25 70 41 141.5t30 143.5v3q0 6 -5 6q-3 0 -6 -1t-5 -2q-22 -11 -33 -29t-16 -40q-12 -65 -12 -129q0 -47 6 -93zM268 -303q-5 0 -13 2q-31 10 -31 42q0 4 0.5 7.5t1.5 8.5q8 36 16.5 76t19.5 81q6 20 10 41t9 41l1 7q0 15 -19 16l-40 3q-38 2 -66 21t-45 53
q-24 48 -38 97t-14 103v15q2 43 4 85.5t10 85.5q24 123 141 158q69 22 144 22l42 -2l21 -2q14 0 18 7.5t10 28.5q8 31 16.5 59.5t17.5 56.5t18.5 56t20.5 59q11 34 43 34h4q17 -2 28.5 -14.5t12.5 -31.5v-7q0 -14 -4.5 -26.5t-9.5 -24.5q-21 -51 -33 -96t-28 -97
q-3 -9 -3 -14q0 -13 17 -25q33 -24 50.5 -59.5t17.5 -73.5q0 -22 -6 -44q-5 -15 -12 -25q-15 -21 -36 -21l-12 2q-31 8 -31 42v4q0 7 1 14l2 14v11q0 12 -3.5 25t-16.5 28q-22 -111 -47 -215t-53 -208q19 -9 38 -9q17 0 33.5 6.5t33.5 14.5q9 5 14 13.5t8 18.5q6 20 9.5 41
t6.5 41q2 11 3.5 22t5.5 21q5 15 16 22.5t25 7.5h5q14 -2 26 -11.5t12 -24.5q-1 -28 -2.5 -56t-7.5 -55t-17.5 -52t-31.5 -47q-24 -26 -57 -38.5t-68 -15.5l-37 -1h-20q-13 0 -19 -7t-8 -20q-4 -29 -10.5 -57.5t-14 -56.5t-14.5 -55t-11 -54q-1 -9 -3.5 -17.5t-6.5 -16.5
q-7 -17 -18.5 -25.5t-25.5 -8.5z" />
    <glyph glyph-name="sterling" unicode="&#xa3;" horiz-adv-x="736" 
d="M254 -309q-44 0 -91 11q-37 10 -50.5 26.5t-13.5 53.5v5q1 65 17 127t30 124q5 21 12 41.5t9 42.5q-13 5 -28 5h-17l-16 2t-16 3q-30 11 -30 40v6q4 31 36 39q8 2 15.5 2t15.5 1h16h8t8 2l1 8q0 10 -4.5 18t-7.5 16q-26 67 -36.5 135.5t-10.5 140.5v11q1 62 6 123.5
t22 121.5q3 11 6 21t7 21q46 120 175 121h102h35t35 -1q40 -2 68.5 -21.5t45.5 -54.5t25 -71.5t8 -72.5q0 -57 -17 -117q-5 -18 -17 -27.5t-26 -9.5q-7 0 -11 1q-16 3 -25 15t-9 30q0 9 1 14q5 24 8.5 47.5t3.5 47.5q0 43 -14 78q-8 23 -23.5 34.5t-32.5 11.5q-29 0 -52 -26
q-17 -19 -25 -45q-13 -44 -20.5 -88t-9.5 -89q-1 -18 -1 -35.5v-35.5q0 -45 3 -88t14 -87q8 -37 21.5 -71t30.5 -67q13 -23 38 -23q53 2 104 6l25 1h11q20 -2 32 -13.5t13 -28.5v-4q0 -15 -9.5 -25.5t-26.5 -15.5q-12 -3 -24 -4.5t-24 -2.5q-42 -3 -84 -3h-19q-29 0 -39 -26
q-8 -21 -13.5 -42t-11.5 -43q-11 -41 -21.5 -83.5t-26.5 -99.5l-3 -18q0 -11 16 -11l35 1q20 0 38.5 -4t41.5 -6q8 -1 16 -1.5t16 -0.5q23 0 44 6t41 23q11 11 28 11q18 0 30 -12q14 -14 14 -32q0 -14 -11 -30q-20 -26 -46.5 -38t-56.5 -17q-15 -3 -29 -3l-15 1
q-10 1 -19 1.5t-19 0.5q-18 0 -53.5 3.5t-69.5 3.5q-9 0 -17 -0.5t-16 -1.5q-18 -3 -34.5 -6t-35.5 -3z" />
    <glyph glyph-name="currency" unicode="&#xa4;" horiz-adv-x="887" 
d="M453 220q45 5 83.5 25.5t67.5 54.5q21 24 21 47q0 32 -36 59q-26 18 -52 25.5t-46 8.5h-14q-38 0 -65 -10.5t-50 -27.5q-12 -9 -23 -18t-11 -26l3 -17q0 -5 -2.5 -9.5t-4.5 -8.5q-5 -9 -5 -20q0 -17 14 -31q23 -23 48.5 -38t56.5 -15zM783 -17q-14 0 -25 8q-8 5 -14 11
t-12 13q-63 68 -127 139q-5 5 -10 8.5t-11 3.5t-13 -4q-40 -25 -83 -32t-88 -7l-43 1q-27 0 -46 -8t-35 -29q-17 -21 -35.5 -40.5t-37.5 -39.5l-7 -7t-8 -6q-13 -10 -30 -10t-28 10q-15 15 -15 33q0 12 8 26q8 11 17.5 21.5t18.5 21.5q15 18 32 35q2 2 2 4t1 7
q-18 11 -36.5 22t-35.5 25q-31 27 -45.5 60t-16.5 76v6q0 53 23 87.5t65 60.5q15 10 30.5 19.5t32.5 20.5l-68 70q-5 5 -9 8.5t-7 8.5q-12 15 -12 31t13 31q14 14 34 14q15 0 29 -9q7 -4 14 -13q23 -30 50.5 -54.5t53.5 -50.5q10 -11 21 -14.5t25 -3.5h32q48 0 94.5 -3
t91.5 -18l9 -2q10 0 19 11q32 33 66.5 63.5t64.5 65.5q4 5 7.5 9.5t8.5 8.5q14 10 31 10q21 0 35 -14q13 -16 13 -32t-13 -30q-14 -16 -28.5 -31t-29.5 -30l-40 -38q-11 -11 -24 -20.5t-17 -23.5l-1 -5q0 -12 10.5 -21.5t15.5 -20.5q17 -33 17 -68q0 -25 -8.5 -48.5
t-23.5 -46.5l-10.5 -16.5t-3.5 -10.5q0 -6 4.5 -11.5t14.5 -16.5l105 -116q8 -8 14.5 -16t11.5 -19q5 -12 5 -21q0 -20 -16 -33q-13 -10 -27 -10z" />
    <glyph glyph-name="yen" unicode="&#xa5;" horiz-adv-x="731" 
d="M357 -304q-46 0 -92 3q-39 2 -42 45q-1 8 -1.5 23t-0.5 32v23q0 26 -27 26h-20l-48 1q-9 0 -18 0.5t-17 4.5q-31 11 -31 42v4q5 32 36 38q8 2 17 2.5t18 0.5q15 0 30 -0.5t30 -1.5h6q21 0 21 21l-1 68v27q0 15 -7 20t-20 5h-19l-45 1l-16 2t-15 3q-15 5 -23 16t-8 25v5
q4 31 36 39q16 3 32 3l43 -2l15 -1q17 0 17 11q0 7 -3 21q-29 144 -52 285.5t-47 275.5q-5 24 -10 48.5t-12 48.5q-5 18 -5 31q0 30 19.5 47.5t55.5 18.5h148q28 -2 38.5 -14.5t16.5 -41.5q10 -48 19.5 -105t20.5 -116l45 -252l4 -22t5 -26q11 20 14 39.5t8 37.5
q27 112 48 222t50 210q3 11 7 22.5t10 22.5q7 12 17.5 18t21.5 6q10 0 15 -2q14 -5 22 -15.5t8 -25.5l-2 -13q-6 -25 -13.5 -48.5t-13.5 -47.5q-24 -115 -50.5 -238.5t-55.5 -249.5q-7 -32 -14.5 -62.5t-15.5 -62.5l-3 -18q0 -8 4 -10t14 -2h12l30 2t30 3h16h8t8 -1
q17 -2 26.5 -13.5t11.5 -26.5v-4q0 -31 -32 -41q-12 -4 -25 -5t-26 -3q-14 -2 -28 -2t-28 -1q-11 -1 -17 -1.5t-9 -3.5t-3.5 -9t-0.5 -16v-39.5t1 -39.5t4 -26t17 -6l15 1q15 1 29.5 2t29.5 3h28q37 -6 40 -39v-7q0 -14 -8 -25t-25 -16q-23 -6 -45.5 -7t-45.5 -3
q-13 -1 -20.5 -1.5t-11.5 -3.5t-5 -8t-1 -15v-14q1 -13 2 -25t1 -17q-2 -52 -50 -56q-23 -2 -46 -3t-46 -1z" />
    <glyph glyph-name="brokenbar" unicode="&#xa6;" horiz-adv-x="402" 
d="M173 374h-27.5t-27.5 1q-42 3 -46 46q-3 24 -4 48l-2 48l-6 332q0 15 1 30t3 29q5 36 41 44q41 7 86 7q24 0 48.5 -2t48.5 -4q18 -2 27.5 -15.5t9.5 -35.5v-35q0 -50 1 -98.5t3 -93.5v-65q0 -41 0.5 -79t3.5 -76l1 -14l-2 -21q-4 -19 -13.5 -29t-29.5 -12
q-29 -2 -58 -3.5t-58 -1.5zM198 -304q-19 0 -37.5 0.5t-37.5 1.5q-38 1 -43 44q-5 44 -6 88l-6 359q0 27 3.5 44t14 26.5t29 13.5t48.5 7q8 1 15 1h15q25 0 49 -2t49 -4q41 -3 42 -53v-92l2 -72q0 -17 0.5 -33.5t1.5 -33.5q1 -54 0.5 -106.5t3.5 -105.5l1 -16l-1 -16
q-3 -22 -13.5 -33.5t-32.5 -13.5q-25 -2 -49 -3t-48 -1z" />
    <glyph glyph-name="section" unicode="&#xa7;" horiz-adv-x="776" 
d="M389 224q10 0 26 10q9 7 16 14.5t12 18.5q8 21 8 45q0 32 -12.5 65.5t-33.5 51.5q-11 9 -20 9q-7 0 -19 -7q-25 -14 -33 -36.5t-9 -48.5q2 -29 11 -55.5t29 -49.5q14 -17 25 -17zM248 -302q-35 1 -66.5 17t-55.5 41.5t-38 57.5t-14 67v7q2 23 13.5 37t31.5 15h2
q17 0 29.5 -11.5t14.5 -33.5q2 -20 9 -37t17 -33q20 -34 52 -34q8 0 19 3q39 9 68.5 29.5t41.5 62.5q5 20 8.5 39.5t3.5 39.5q0 39 -10 69q-7 19 -18 29.5t-32 15.5q-44 11 -86 25t-80 40q-23 16 -41 38.5t-31 49t-19.5 55.5t-6.5 58q0 23 4.5 46t14.5 43q11 25 29.5 42.5
t41.5 31.5q11 8 16 12t5 9q0 6 -9 24q-35 69 -35 139q0 80 44 159q11 22 29 38t40 28q35 18 71 29.5t75 11.5h112h21t21 -1q56 -1 96 -43q53 -55 65 -130l1 -12q0 -14 -5 -27q-11 -27 -40 -29h-3q-26 0 -38 26q-3 6 -4.5 13t-2.5 14q-1 18 -8.5 33t-15.5 29q-20 34 -53 34
q-9 0 -18 -3q-39 -9 -68.5 -29.5t-41.5 -62.5q-5 -20 -8.5 -39.5t-3.5 -39.5q0 -33 10 -63q6 -19 17.5 -29.5t32.5 -15.5q44 -11 86 -25t80 -40q23 -16 41 -38.5t31 -49t19.5 -55.5t6.5 -58q0 -23 -4.5 -46t-14.5 -43q-11 -25 -29.5 -42.5t-41.5 -31.5l-16.5 -12t-5.5 -9
q0 -4 2.5 -9.5t7.5 -14.5q35 -69 35 -145q0 -80 -44 -159q-11 -21 -28 -36.5t-37 -27.5q-38 -20 -77 -32t-82 -12z" />
    <glyph glyph-name="dieresis" unicode="&#xa8;" horiz-adv-x="753" 
d="M208 664q-23 0 -45 0.5t-45 1.5q-24 1 -35.5 12.5t-16.5 36.5q-2 14 -3 27t-1 27v9v22.5t-2 22.5v68q0 32 12.5 47t45.5 17q29 2 57 3t57 1h28.5t28.5 -1q29 -2 42 -15.5t15 -42.5q2 -26 1.5 -52t0.5 -52q0 -14 1 -27.5t5 -27.5q3 -11 3 -20q0 -20 -13.5 -33.5
t-37.5 -17.5q-25 -4 -49.5 -5t-48.5 -1zM538 666h-80q-26 1 -38.5 12t-17.5 37q-2 11 -2.5 21t-0.5 21v50l-2 46t-1 46q0 26 12 40t38 15q32 2 62.5 3.5t61.5 1.5h27.5t27.5 -2q29 -2 42 -15.5t15 -42.5q2 -26 1.5 -51.5t0.5 -51.5q0 -14 1 -27.5t5 -27.5q3 -11 3 -20
q0 -20 -13.5 -34t-37.5 -17q-26 -3 -52 -3.5t-52 -2.5v2z" />
    <glyph glyph-name="copyright" unicode="&#xa9;" horiz-adv-x="1131" 
d="M558 -149q72 0 135.5 28t122.5 81q54 49 88.5 110.5t56.5 129.5q20 63 20 125q0 28 -4 55.5t-13 55.5q-20 64 -50 121.5t-77 107.5q-16 17 -30.5 34.5t-29.5 34.5q-19 23 -41.5 38.5t-48.5 27.5q-17 8 -29.5 12t-23.5 4q-15 0 -29 -9t-34 -29q-22 -20 -39 -20
q-23 0 -39 27q-5 8 -10 11t-10 3q-3 0 -6 -0.5t-7 -1.5q-20 -5 -39 -13.5t-37 -19.5q-24 -14 -46.5 -31t-45.5 -34q-55 -43 -83 -110q-32 -74 -44 -151t-13 -157q0 -68 10.5 -132.5t39.5 -127.5q19 -38 46.5 -65t66.5 -42l117 -41q65 -22 126 -22zM560 -243q-73 0 -147 25
l-121 42q-63 23 -106.5 64.5t-71.5 102.5q-30 69 -42 139.5t-12 144.5l1 49q3 78 17.5 152.5t44.5 146.5q19 45 46.5 82t65.5 66q35 27 70.5 52.5t76.5 43.5q28 12 56.5 20t58.5 8q11 0 22 -1t22 -4l9 -1q11 0 22 6q27 13 59 13q27 0 54 -9q43 -14 80.5 -35.5t67.5 -54.5
q28 -31 55.5 -61t51.5 -63q29 -40 53 -82.5t41.5 -89t27 -99t9.5 -112.5v-4q-7 -126 -65.5 -240.5t-173.5 -202.5q-63 -48 -130.5 -73t-141.5 -25zM549 14q-33 0 -70 3t-75 7q-35 4 -59 22.5t-40 49.5q-25 48 -39 97t-14 103v15q2 44 4.5 87.5t11.5 87.5q23 115 132 151
q39 13 77.5 19.5t77.5 6.5q79 0 160 -26q22 -7 39.5 -22t30.5 -35.5t20 -44t7 -47.5q0 -32 -13 -57q-16 -31 -43 -31l-12 2q-31 9 -31 47v3q1 10 2.5 19.5t1.5 20.5v8q-4 27 -17.5 40t-40.5 14h-4q-20 0 -40.5 -5t-37.5 -16.5t-29 -30.5t-16 -48q-5 -35 -8 -70.5t-3 -71.5
l2 -50q2 -33 13 -64t25 -61q6 -11 14 -18t21 -7h2q11 0 20.5 -2t20.5 -2l15 2q32 8 52.5 26t24.5 53q2 21 5.5 41.5t8.5 41.5q8 44 45 44h6q17 -3 27.5 -15.5t10.5 -32.5v-8q-3 -36 -9 -71.5t-19 -69.5q-11 -29 -31 -48t-47 -33q-21 -11 -42.5 -15.5t-43.5 -6t-45.5 -1.5
t-47.5 -1z" />
    <glyph glyph-name="ordfeminine" unicode="&#xaa;" horiz-adv-x="623" 
d="M341 677q53 6 103 9q13 1 19.5 6t6.5 18v3q-1 18 -1 36v36q-1 46 -14.5 63.5t-53.5 17.5l-19 -1l-23 -3q-11 -2 -17.5 -4.5t-10.5 -6t-5 -10.5t-2 -18l-2 -127q0 -19 16 -19h3zM232 452q-32 0 -62.5 2t-62.5 5q-45 6 -45 66q-1 20 -1 39v39v78h-1v147q2 60 29 90t87 36
q36 3 72 3.5t72 1.5q18 0 36 -1t36 -1q17 -1 33.5 -2.5t33.5 -6.5q45 -12 68.5 -38t29.5 -73q4 -26 5 -52t1 -52v-39l-7 -176v-10t-1 -10q-4 -19 -15.5 -30t-28.5 -11h-2q-18 0 -30 11.5t-14 31.5l-1 22q0 13 0.5 25t1.5 25v3q0 19 -19 19h-4l-48 -4l-48 -4q-21 -2 -21 -21
v-2q0 -11 0.5 -22t1.5 -22l1 -11q0 -52 -51 -55z" />
    <glyph glyph-name="guillemotleft" unicode="&#xab;" horiz-adv-x="765" 
d="M373 0q-15 0 -29 11q-12 11 -23 22.5t-22 23.5q-51 54 -100.5 110t-106.5 106q-32 28 -32 56q0 18 12 44q18 42 37.5 82t39.5 81q12 25 25.5 49.5t23.5 50.5q13 36 52 44q12 2 24 3t24 1q24 0 48 -3.5t47 -9.5q17 -5 24.5 -16.5t7.5 -28.5q0 -13 -4.5 -24t-9.5 -22
l-97 -201q-13 -26 -24 -51t-23 -51q-7 -13 -7 -26q0 -17 15 -31q31 -32 60.5 -64t60.5 -64q10 -10 16 -20t6 -23l-1 -9q-3 -18 -15.5 -29t-28.5 -11zM652 -8q-16 0 -29 12q-11 10 -20.5 19.5t-18.5 20.5q-31 33 -60.5 67t-60.5 66q-23 23 -46 45l-46 44q-31 30 -31 56
q0 16 11 41q20 46 42 90.5t44 89.5q8 18 18 35.5t16 36.5q11 32 32 45.5t53 14.5l19 2q23 -2 44.5 -4t43.5 -8q42 -11 42 -45q0 -12 -4 -24q-6 -18 -14 -35t-17 -34q-34 -63 -63 -127t-59 -129q-8 -16 -8 -28q0 -17 16 -33q31 -31 60 -64t61 -63q9 -8 15 -18.5t6 -23.5v-3
q-2 -30 -27 -42q-8 -4 -19 -4z" />
    <glyph glyph-name="logicalnot" unicode="&#xac;" horiz-adv-x="772" 
d="M498 147q-35 0 -48 35q-11 30 -11 59l-1 46q0 29 2.5 58.5t9.5 58.5q2 7 3 12t1 9q0 8 -7.5 10t-24.5 2h-28q-42 0 -83 -3t-83 -3h-21q-22 1 -43 1h-43h-13q-22 2 -35 14.5t-13 29.5q0 12 7 23q8 13 19 18t25 7h18q71 0 141 3.5t142 3.5q33 0 66 -3h155q8 -1 15.5 -1.5
t15.5 -2.5q25 -6 36.5 -20t11.5 -40q0 -35 -8 -75q-10 -44 -10 -94q0 -19 1.5 -38t5.5 -38q1 -5 1.5 -9.5t0.5 -9.5q0 -23 -13 -33.5t-41 -12.5l-74 -4t-74 -3h-3z" />
    <glyph glyph-name="registered" unicode="&#xae;" horiz-adv-x="668" 
d="M295 464q14 0 27.5 2t27.5 2h3q41 0 70.5 20t51.5 52q23 35 32.5 71.5t9.5 74.5q0 15 -1.5 30t-3.5 31q-4 35 -34 65q-23 25 -50.5 35t-58.5 16q-17 3 -33 3q-35 0 -64 -14.5t-54 -40.5q-52 -54 -61 -127q-3 -23 -3 -45q0 -29 4 -57t10 -57t23.5 -42t47.5 -15
q9 -1 18 -1.5t18 -0.5zM292 373q-21 0 -41.5 1t-40.5 4q-45 7 -77 32t-46 68q-13 38 -20 77.5t-7 78.5q0 61 19 119q21 71 73 123q38 39 83.5 61t99.5 22l29 -2q29 -3 57 -10t55 -18q66 -29 96.5 -81t35.5 -121v-40q0 -56 -13.5 -107t-46.5 -97q-34 -48 -78 -75.5
t-104 -31.5q-38 -3 -74 -3zM335 678q15 11 21.5 19t8.5 16v3q0 10 -7 17.5t-18 7.5h-2q-8 0 -10 -4.5t-2 -9.5l1 -22q0 -8 1 -14.5t7 -12.5zM283 490q-14 0 -26 8t-17 23q-4 16 -4 36l-2 207q0 39 36 57q28 15 62 15q31 0 59.5 -13.5t46.5 -39.5q22 -29 22 -63
q0 -22 -11 -47q-5 -10 -10.5 -19.5t-11.5 -18.5t-6 -15q0 -8 9 -15q11 -9 16 -18q8 -11 8 -27q0 -19 -13 -32t-30 -13q-15 0 -28 9q-14 8 -24.5 20t-25.5 18q-4 -7 -4 -16v-11q0 -7 -1 -10q-5 -16 -15.5 -25.5t-26.5 -9.5h-3z" />
    <glyph glyph-name="macron" unicode="&#xaf;" horiz-adv-x="950" 
d="M602 958q113 0 227 -3h16q20 -4 32.5 -16.5t12.5 -29.5v-2q-1 -17 -12.5 -29t-32.5 -14q-8 -1 -16.5 -1h-16.5l-47 1q-42 1 -84.5 2t-88.5 1q-67 0 -145 -3h-240q-24 -1 -48 -1h-48q-44 0 -50 37l-1 7q0 34 40 45q19 6 40 6h9.5t9.5 -1l92 -1q88 0 175.5 1t175.5 1z" />
    <glyph glyph-name="degree" unicode="&#xb0;" horiz-adv-x="612" 
d="M381 603q14 0 24.5 8t16.5 20q17 30 27 62.5t10 67.5l-2 26q-4 40 -37 64q-17 13 -34 13q-14 0 -25 -9t-17 -26q-9 -26 -12 -52.5t-3 -54.5q0 -21 1 -41.5t9 -40.5q5 -14 13.5 -24.5t24.5 -12.5h4zM287 505h-44h-22t-22 1q-80 4 -115 80q-9 18 -13.5 37.5t-7.5 39.5
q-3 25 -3 52q0 32 4 63t12 63q9 38 33 68q17 22 38.5 34t50.5 15h4q34 0 67.5 0.5t68.5 0.5l43 -2q57 -5 100 -36.5t60 -85.5q11 -38 11 -72q0 -17 -3 -35q-5 -37 -15.5 -72.5t-29.5 -67.5q-20 -36 -51 -57t-74 -23l-92 -6v3z" />
    <glyph glyph-name="plusminus" unicode="&#xb1;" horiz-adv-x="727" 
d="M416 82q-34 0 -67.5 3t-68.5 7q-38 4 -44 48q-4 24 -6 48.5t-2 49.5v90q0 12 -5 18.5t-19 6.5h-21l-46 1h-15.5t-15.5 2q-17 5 -27.5 16.5t-10.5 26.5v2q0 17 10 28.5t29 14.5q15 3 29 3l39 -2l29 -1q11 0 17 2t9 8t3.5 17t1.5 29l2 140q1 31 14 46t42 17q19 1 37.5 2
t37.5 1q26 0 52 -2.5t52 -10.5q25 -8 34.5 -18.5t10.5 -36.5l-2 -176q0 -16 2.5 -20.5t15.5 -4.5h10l28 2t28 3h28q17 -3 27.5 -13.5t12.5 -25.5v-4q0 -15 -9 -27t-25 -17q-20 -5 -39.5 -6.5t-39.5 -2.5q-17 -1 -26 -1.5t-13.5 -4t-5.5 -12t-1 -26.5v-7q0 -34 0.5 -67.5
t5.5 -67.5l1 -16q0 -58 -68 -61zM484 -48q-26 0 -52.5 0.5t-52.5 1.5q-2 0 -14 0.5t-30 1t-40.5 1t-44.5 1.5q-54 2 -119 4q-9 0 -18 0.5t-18 2.5q-17 5 -26 16.5t-9 26.5v4q2 32 38 40q8 2 14.5 2h14.5l35 -1q71 -2 141.5 -3t142.5 -6l37 -1q48 0 98 6q6 1 12 1h12
q24 0 38 -11t16 -31v-2q0 -37 -45 -45q-32 -5 -65 -7t-65 -2z" />
    <glyph glyph-name="twosuperior" unicode="&#xb2;" horiz-adv-x="557" 
d="M160 431q-28 0 -49 10q-17 8 -26 20.5t-9 27.5q0 11 5 24q4 11 9.5 20t11.5 18l66 101q38 61 46 135l1 13q0 50 -38 50q-16 0 -37 -9q-5 -2 -9.5 -4.5t-9.5 -4.5q-9 -3 -18 -3q-22 0 -35 18q-8 11 -8 25q0 17 11 31q8 10 18 16t21 10q94 30 191 30h27t27 -2
q45 -4 75.5 -37t35.5 -81l1 -25q0 -31 -6.5 -61t-16.5 -59q-9 -27 -22.5 -51.5t-28.5 -47.5q-7 -11 -14.5 -22t-12.5 -28h83q41 -2 47 -35l1 -9q0 -30 -34 -43q-16 -6 -32.5 -9t-33.5 -4q-55 -4 -109.5 -7t-109.5 -6l-18 -1v0z" />
    <glyph glyph-name="threesuperior" unicode="&#xb3;" horiz-adv-x="523" 
d="M194 434q-20 0 -38.5 1t-38.5 3q-33 3 -39 34q-1 4 -1 12q0 25 23 39q17 11 33.5 19t33.5 17q34 19 34 54q0 9 -3 21q-5 21 -21 21l-7 -1q-7 -1 -13.5 -2.5t-13.5 -2.5h-7q-26 0 -42 22q-8 13 -8 25t10 27q8 11 16.5 20.5t17.5 18.5q12 12 23.5 25t19.5 28q9 16 9 25
q0 13 -28 17q-12 2 -24 2.5t-24 1.5q-43 4 -46 41v6q0 17 10.5 28.5t30.5 15.5q31 5 61.5 6t61.5 1q31 -2 62 -2.5t62 -5.5q48 -8 72.5 -36t24.5 -66q0 -32 -16 -63q-2 -3 -4 -6.5t-4 -7.5q-5 -10 -8 -15.5t-3 -10.5q0 -8 16 -25q19 -21 28 -46t9 -52q0 -39 -19.5 -76
t-54.5 -60q-47 -31 -95.5 -42t-99.5 -11z" />
    <glyph glyph-name="acute" unicode="&#xb4;" horiz-adv-x="457" 
d="M249 654q-15 1 -30 1h-30l-32 -1q-13 0 -25.5 1t-25.5 4q-46 9 -46 44q0 7 3 18q15 56 39.5 107t53.5 100q11 19 32 22q23 4 45.5 6.5t45.5 2.5q39 0 75 -10q43 -12 43 -44q0 -14 -8 -29q-24 -44 -43.5 -89.5t-38.5 -92.5q-15 -40 -58 -40z" />
    <glyph glyph-name="mu" unicode="&#xb5;" horiz-adv-x="711" 
d="M199 1q-22 0 -43.5 0.5t-43.5 1.5q-17 0 -28 11t-15 29q-2 8 -2.5 17.5t-0.5 18.5q-2 88 -4 174t-2 173l1 84q0 20 1 38.5t3 37.5q1 16 4.5 26t9.5 16.5t16.5 10t26.5 5.5q29 4 58.5 5t59.5 1h34q36 0 48 -34q17 -43 17 -87l-2 -27q-3 -26 -3 -50q0 -22 2 -43t5 -42
q5 -32 23.5 -53t48.5 -30q6 -2 12 -3t12 -1q28 0 50 18t31 48q12 41 16 82.5t4 83.5l-1 88q1 26 22.5 45.5t46.5 19.5h3q18 -2 30 -15.5t12 -36.5v-2q0 -18 -1.5 -36t-2.5 -36q-1 -71 -1 -140.5t-2 -139.5q0 -9 -0.5 -18t-2.5 -18q-6 -29 -34 -35q-4 -1 -11 -1q-20 0 -34 19
q-3 4 -5.5 8.5t-6.5 11.5q-59 -36 -117 -36q-55 0 -107 33v-155q0 -31 -12 -44.5t-46 -18.5q-17 -2 -34.5 -3t-34.5 -1z" />
    <glyph glyph-name="paragraph" unicode="&#xb6;" horiz-adv-x="1107" 
d="M831 -304q-29 0 -41 27q-5 10 -5.5 21t-0.5 22q-5 93 -7 200t-2 228l1 125l-2 98q0 97 4.5 201.5t6.5 212.5v14q0 17 -5.5 19.5t-27.5 3.5q-23 0 -46 -1t-46 -1q-27 0 -28 -26l-1 -28q0 -57 -1 -114.5t-1 -114.5q0 -71 3 -143q1 -19 1 -37v-37q0 -51 -1 -101.5t-1 -101.5
v-37.5t1 -37.5q3 -70 5 -137t4 -122q1 -17 1.5 -34t0.5 -34q-1 -24 -10.5 -36.5t-32.5 -17.5q-28 -6 -55.5 -8.5t-56.5 -2.5q-32 0 -63 3q-48 4 -49 53q-4 80 -6.5 151t-4.5 152q-1 32 -1 63v63v77t2 77v68q0 24 -22 24l-19 -1q-26 0 -51 5t-51 7q-44 2 -75 22.5t-49 62.5
q-39 91 -39 186q0 60 15 120q12 51 46.5 77.5t84.5 34.5q38 7 77 8.5t78 3.5q91 2 181.5 2.5t181.5 2.5l53 1q54 0 107.5 -1.5t107.5 -2.5q13 0 24 -4q31 -11 31 -42v-4q-3 -31 -35 -39q-17 -3 -35 -3t-36 0.5t-36 1.5h-3q-24 0 -24 -25t-1.5 -50t-2.5 -50q-5 -102 -6 -203
t-1 -203l1 -242q1 -86 1.5 -169t6.5 -152l1 -17q0 -8 -1 -15.5t-5 -15.5q-13 -27 -40 -27z" />
    <glyph glyph-name="periodcentered" unicode="&#xb7;" horiz-adv-x="417" 
d="M207 179q-23 0 -45.5 0.5t-45.5 1.5t-34 13t-16 35q-2 14 -3 26.5t-1 26.5v9v22.5t-2 22.5v76q0 26 11.5 40t37.5 17q28 3 55.5 4t56.5 1h37.5t37.5 -2q47 -3 50 -56q2 -24 1.5 -48t0.5 -48q0 -17 1 -33.5t6 -33.5q2 -5 2 -9v-8q0 -20 -13.5 -34t-36.5 -17
q-25 -4 -49.5 -5t-50.5 -1z" />
    <glyph glyph-name="periodcentered" unicode="&#x2219;" horiz-adv-x="417" 
d="M207 179q-23 0 -45.5 0.5t-45.5 1.5t-34 13t-16 35q-2 14 -3 26.5t-1 26.5v9v22.5t-2 22.5v76q0 26 11.5 40t37.5 17q28 3 55.5 4t56.5 1h37.5t37.5 -2q47 -3 50 -56q2 -24 1.5 -48t0.5 -48q0 -17 1 -33.5t6 -33.5q2 -5 2 -9v-8q0 -20 -13.5 -34t-36.5 -17
q-25 -4 -49.5 -5t-50.5 -1z" />
    <glyph glyph-name="cedilla" unicode="&#xb8;" horiz-adv-x="556" 
d="M253 -481q-32 5 -62.5 3.5t-61.5 6.5q-15 3 -28 9.5t-24 17.5q-17 17 -17 36q0 15 11 29q8 9 18 14.5t21 5.5q13 0 25 -9q9 -8 18.5 -10.5t19.5 -2.5l40 1q17 0 20 19q1 5 1.5 8.5t0.5 8.5t-1 10.5t-5 10.5t-10 5q-4 0 -12 -2l-20 -2q-27 0 -38 14.5t-13 46.5
q-1 12 -1.5 24t-0.5 24v3q0 48 47 54q18 2 36 3t36 1q25 0 50 -2l50 -4q34 -4 40 -38q2 -13 7 -19.5t19 -10.5q38 -13 57.5 -44t19.5 -76v-10q-2 -45 -26 -75t-67 -40q-16 -4 -31.5 -6.5t-31.5 -3.5l-29 -1z" />
    <glyph glyph-name="onesuperior" unicode="&#xb9;" horiz-adv-x="485" 
d="M122 413q-33 0 -44 27q-4 8 -4 19q0 23 27 41q11 7 14 14.5t3 18.5q-1 65 -1 129.5v129.5q0 11 -4 17.5t-16 11.5q-37 13 -37 41q0 21 25 44q53 46 123 49q23 2 46 3t46 1q41 0 58 -17t18 -58q1 -81 1.5 -160t0.5 -160q0 -16 4 -27.5t21 -20.5q11 -5 16.5 -14t5.5 -20
q0 -9 -4.5 -18.5t-12.5 -17.5q-22 -22 -54 -22q-25 -1 -50 -1h-50q-60 -2 -120 -9l-12 -1v0z" />
    <glyph glyph-name="ordmasculine" unicode="&#xba;" horiz-adv-x="526" 
d="M162 535q9 10 15.5 19.5t11 19.5t7 21.5t4.5 27.5q1 13 1.5 26t0.5 26q0 37 -3.5 73.5t-10.5 72.5q-1 4 -3 4l-3 -1q-7 -15 -12.5 -37t-9 -47.5t-5.5 -53t-2 -54.5t2 -52t7 -45zM153 433q-59 0 -79 59q-4 11 -6 23l-4 24q-2 23 -3 46t-1 46q0 51 5.5 101t19.5 100
q7 26 18.5 50.5t26.5 47.5q16 24 46 26l171 3h3q58 0 86 -57q5 -13 9.5 -26t6.5 -27q6 -45 10 -88.5t4 -88.5v-14q0 -40 -8 -77.5t-28 -72.5q-41 -72 -120 -73h-96q-11 0 -24.5 -0.5t-27.5 -1.5h-9z" />
    <glyph glyph-name="guillemotright" unicode="&#xbb;" horiz-adv-x="766" 
d="M393 -7q-14 0 -26 9q-20 14 -20 39q0 10 5 22q4 8 9.5 13.5t11.5 10.5q30 32 59.5 64t60.5 64q13 13 13 28q0 11 -6 23q-29 63 -57 125.5t-61 123.5q-11 20 -21 40.5t-17 43.5q-4 11 -4 22q0 33 40 45q22 5 44.5 7.5t48.5 4.5q9 -2 21 -3t25 -3q33 -8 48 -39l115 -241
q5 -10 9 -20t9 -21q6 -15 6 -28q0 -29 -24 -48q-67 -59 -125.5 -126t-120.5 -131l-11 -12q-8 -7 -16 -10t-16 -3zM112 -15q-17 0 -28 11q-17 15 -17 37q0 14 7 25q3 5 6.5 9.5t8.5 8.5q32 30 61 63t60 64q16 16 16 33q0 6 -2 12t-5 13q-29 63 -57.5 125.5t-60.5 123.5
q-10 17 -18 35.5t-16 36.5q-3 9 -5 17t-2 15q0 33 47 45q20 5 40.5 7t43.5 4q10 -2 22 -3t25 -3q33 -6 48 -38l118 -245q4 -8 7.5 -16.5t6.5 -16.5q7 -15 7 -32q0 -28 -25 -52q-16 -15 -32.5 -29.5t-31.5 -30.5l-180 -193l-10 -12q-15 -14 -34 -14z" />
    <glyph glyph-name="onequarter" unicode="&#xbc;" horiz-adv-x="986" 
d="M605 -65q12 1 18.5 2t9.5 4.5t4 10t1 18.5v76l-6 2l-48 -111l12 -1.5t9 -0.5zM753 -301l-52 3q-25 2 -37 13t-15 36q-2 16 -2 31.5t-2 32.5q-2 18 -4.5 23.5t-15.5 5.5l-14 -1q-10 -1 -19.5 -2t-20.5 -3l-27 -2q-15 0 -28 3q-47 11 -47 53q0 5 0.5 9t1.5 9q3 16 9 30.5
t14 28.5q26 51 46.5 104t37.5 107q5 15 9.5 24t11.5 14.5t16.5 8t24.5 3.5l66 2q59 0 118 -6q22 -2 36 -7t22.5 -14t12 -23.5t3.5 -36.5v-84h1v-94q0 -12 3 -23t14 -21q10 -10 10 -25q0 -12 -8 -23q-8 -10 -10.5 -20.5t-2.5 -21.5l1 -15q1 -13 1.5 -26t0.5 -26
q0 -36 -13 -50.5t-51 -16.5l-30 -1zM119 414q-14 0 -24.5 7.5t-16.5 18.5q-4 8 -4 20q0 25 23 39q12 8 16.5 17t4.5 21v5q-1 63 -1.5 126t-0.5 126q0 12 -4 18.5t-18 11.5q-17 5 -25.5 16t-8.5 25q0 21 19 37q21 19 44.5 33t53.5 19q21 3 42 4t42 1l59 -1q27 -2 40 -15.5
t16 -40.5q1 -8 1 -16v-16q1 -78 1 -156v-156q0 -13 3.5 -21.5t17.5 -15.5q27 -14 27 -38q0 -22 -23 -40q-13 -11 -28 -14t-32 -5l-44 -2h-87q-20 0 -40 -1t-40 -5zM333 -303q-3 0 -6 0.5t-7 1.5q-32 11 -32 44l2 14q8 36 16.5 72t16.5 72q16 76 35.5 153.5t39.5 156.5
t39.5 159.5t36.5 161.5q19 93 45 181t57 169q4 9 6.5 18.5t5.5 19.5q12 38 43 38h6q18 -2 29.5 -16t12.5 -37v-4q0 -8 -2.5 -16t-5.5 -16q-42 -107 -73 -222.5t-55 -235.5q-19 -93 -43.5 -183t-47.5 -182q-17 -72 -32.5 -142t-30.5 -132q-2 -11 -4.5 -21.5t-7.5 -20.5
q-14 -33 -44 -33z" />
    <glyph glyph-name="onehalf" unicode="&#xbd;" horiz-adv-x="1012" 
d="M620 -303q-13 0 -25.5 1.5t-24.5 6.5q-39 16 -39 51q0 11 5 24q4 10 10 19t11 19l34 52l34 52q20 33 31.5 68.5t12.5 74.5v3q0 48 -36 48q-10 0 -28 -5q-7 -2 -13 -5.5t-12 -6.5q-11 -4 -22 -4q-23 0 -35 18q-7 11 -7 25q0 9 3 18t10 17q8 9 19 14.5t22 9.5q91 27 187 27
h27t27 -2q21 -2 39.5 -11t32.5 -23t23 -33t12 -40t3 -41q0 -47 -13.5 -89.5t-36.5 -84.5q-11 -21 -24.5 -41.5t-28.5 -46.5h81q44 0 52 -35l1 -10q0 -31 -37 -45q-33 -11 -67 -12q-54 -3 -107.5 -6t-107.5 -7h-13zM119 413q-28 0 -41 27q-5 12 -5 21q0 11 5.5 20.5
t17.5 16.5q14 8 18 18t4 24q-1 62 -1.5 122.5t-0.5 121.5q0 15 -3 25t-23 15q-15 5 -22.5 15t-7.5 23q0 21 18 39q27 25 58.5 39.5t69.5 16.5q24 1 48 1.5t48 0.5q39 -1 55.5 -17.5t17.5 -55.5l3 -320q0 -15 3 -27t21 -21q23 -12 23 -34t-20 -39q-14 -12 -30 -16t-33 -6
l-44 -2h-78q-23 0 -45 -1t-44 -6zM323 -301q-15 5 -24 16.5t-9 28.5q0 8 1 12l16 72l16 72q15 74 34 150t38.5 153.5t39 156t35.5 158.5q20 96 46.5 187t58.5 175q4 11 6.5 21t5.5 21q13 36 45 36h6q18 -3 29 -18t11 -39q-2 -6 -3.5 -15t-5.5 -19q-40 -103 -70.5 -214.5
t-53.5 -228.5q-20 -95 -45 -188t-48 -188l-61 -269q-2 -13 -5.5 -25.5t-8.5 -24.5q-6 -16 -17 -24t-25 -8z" />
    <glyph glyph-name="threequarters" unicode="&#xbe;" horiz-adv-x="1002" 
d="M620 -65q12 1 18.5 2t10 4.5t4 10t0.5 18.5v76l-6 1l-47 -106q6 -6 14 -6h6zM822 -303q-29 0 -57.5 2.5t-57.5 3.5q-40 2 -43 49q-2 16 -2 32t-1 32q-2 17 -5 22t-17 5h-10q-10 -1 -19.5 -2t-20.5 -3l-30 -2q-14 0 -29 3q-46 11 -46 54l1 11q2 15 7.5 28.5t12.5 27.5
q28 54 49.5 109.5t38.5 112.5q8 24 22 35.5t38 12.5l79 1q29 0 56.5 -1t56.5 -4q39 -5 52.5 -21t15.5 -55q0 -11 1 -23t1 -24v-44h-1v-88q0 -14 3 -26.5t15 -23.5q10 -9 10 -24q0 -14 -9 -24q-13 -16 -13 -37l1 -15q3 -32 3 -64q-1 -27 -13.5 -40.5t-40.5 -16.5
q-24 -3 -48 -3zM192 437q-35 0 -69 3q-35 2 -44 34q-2 8 -2 13q0 26 27 41q15 10 31 17.5t32 16.5q35 20 35 55q0 5 -0.5 9.5t-1.5 9.5q-4 22 -23 22l-9 -1q-8 -2 -17 -3.5t-18 -1.5q-20 2 -32.5 15t-12.5 31q0 11 4 20q5 13 14 22.5t18 18.5q14 14 28 28.5t23 32.5
q8 16 8 23q0 13 -27 17q-12 2 -24 2t-24 2q-46 6 -48 44q0 20 12.5 33t35.5 15q11 1 40.5 1.5t64.5 0.5q44 0 85 -1t58 -4q42 -8 65.5 -35.5t23.5 -64.5q0 -27 -12 -55q-5 -13 -14 -25t-10 -25v-2q0 -13 12 -21t20 -19q12 -18 17.5 -38.5t5.5 -41.5q0 -40 -20 -77.5
t-56 -60.5q-47 -30 -96 -40.5t-100 -10.5zM341 -304q-16 4 -25.5 17t-9.5 33l26 122q36 168 80.5 339t82.5 348q18 88 43 171.5t56 159.5q4 9 6 18.5t5 19.5q5 16 17 25t27 9h4q17 -2 28.5 -14.5t13.5 -31.5v-5q0 -17 -7 -34q-45 -114 -77 -236t-58 -250q-19 -88 -42.5 -173
t-43.5 -172q-17 -69 -31.5 -136.5t-27.5 -127.5q-3 -15 -6 -29.5t-11 -27.5q-7 -13 -18 -19.5t-23 -6.5z" />
    <glyph glyph-name="questiondown" unicode="&#xbf;" horiz-adv-x="722" 
d="M336 587q31 0 61.5 -4t60.5 -9q35 -6 35 -44q-3 -43 -11 -81.5t-26 -75.5q-34 -69 -63 -147.5t-40 -165.5q-4 -29 -8.5 -57t-8.5 -57q-2 -16 -2.5 -32.5t-0.5 -33.5q0 -15 7.5 -30.5t20.5 -27.5t29 -20t33 -8q32 3 57 12.5t43 34.5q22 30 35 61.5t13 64.5q0 41 -24 86
q-8 13 -8 28q0 20 14.5 31.5t32.5 11.5q19 0 33.5 -14.5t24 -37t14 -49t4.5 -50.5q0 -37 -9 -74q-26 -104 -92 -151t-175 -50h-67q-27 0 -53.5 0.5t-38.5 2.5q-38 4 -68.5 20.5t-52 42.5t-33.5 59.5t-13 72.5q0 24 3 50q13 125 44.5 243t84.5 222q13 26 18 53t9 55
q4 31 15.5 43t41.5 19q30 6 60 6zM434 958q38 -1 49 -23.5t11 -61.5q0 -42 0.5 -75.5t2.5 -72.5q0 -54 -53 -55q-30 -2 -60.5 -3.5t-61.5 -1.5h-26.5t-26.5 2q-30 2 -42.5 14.5t-14.5 42.5q-2 28 -1.5 55.5t-0.5 56.5q0 17 -5 34t-5 32q0 28 21 41t53 13z" />
    <glyph glyph-name="Agrave" unicode="&#xc0;" horiz-adv-x="782" 
d="M335 469q0 -48 3 -95t5 -95q0 -13 5 -19t20 -8q12 -1 24 -1.5t24 -0.5q36 0 71.5 3.5t71.5 6.5q14 1 22 3.5t12 7.5t5 14t2 24q0 11 0.5 22.5t0.5 22.5q0 66 -4.5 131t-9.5 131q-3 29 -7.5 57t-11.5 57q-8 33 -24.5 61t-38.5 53q-14 17 -31 22.5t-36 5.5q-8 0 -16 -0.5
t-16 -1.5q-23 -2 -31 -17.5t-15 -31.5q-32 -79 -32 -167q0 -6 0.5 -12t0.5 -12q1 -37 2.5 -73.5t3.5 -74.5v-13zM74 258q-4 97 -7.5 192t-5.5 191q0 4 -0.5 8t-0.5 8q1 57 12.5 111t35.5 106q34 78 116 85q37 4 73.5 5.5t73.5 1.5q48 0 96 -3q34 -2 61 -17.5t49 -41.5
q33 -40 56 -84.5t31 -96.5q14 -88 21.5 -173.5t7.5 -173.5q0 -30 -1 -59.5t-3 -59.5q-2 -27 -3.5 -53.5t-1.5 -53.5q0 -32 2.5 -62.5t7.5 -62.5q3 -41 4.5 -79.5t3.5 -74t6 -67.5t12 -58q2 -8 2 -11q0 -20 -21 -33q-13 -8 -25 -8q-14 0 -28 8q-11 8 -17 19t-8 25
q-3 20 -7 41t-4 42q-1 55 -4.5 99t-7 80.5t-6.5 68t-3 62.5v9q0 20 -19 20h-7q-35 -3 -70.5 -7t-70.5 -4q-25 0 -50 3h-5q-19 0 -19 -23q1 -41 1 -81.5v-82.5l-3 -207q0 -35 -13.5 -50t-48.5 -17q-44 -3 -87 -3q-12 0 -24.5 0.5t-24.5 0.5q-38 1 -54 16.5t-17 54.5
q-1 32 -1 63v63l3 190q0 44 -2 87t-5 87zM396 997q-38 0 -59 1.5t-33.5 10t-21 27.5t-21.5 54q-8 24 -20 47t-22.5 44t-18 38.5t-7.5 31.5t10 24t26 16t37 9t44 3t45.5 -2.5t45.5 -5.5q14 -2 22 -10t15 -19q26 -47 48.5 -94.5t37.5 -98.5l3.5 -14t1.5 -12q0 -36 -49 -45
q-21 -4 -42 -4t-42 -1z" />
    <glyph glyph-name="Aacute" unicode="&#xc1;" horiz-adv-x="782" 
d="M335 469q0 -48 3 -95t5 -95q0 -13 5 -19t20 -8q12 -1 24 -1.5t24 -0.5q36 0 71.5 3.5t71.5 6.5q14 1 22 3.5t12 7.5t5 14t2 24q0 11 0.5 22.5t0.5 22.5q0 66 -4.5 131t-9.5 131q-3 29 -7.5 57t-11.5 57q-8 33 -24.5 61t-38.5 53q-14 17 -31 22.5t-36 5.5q-8 0 -16 -0.5
t-16 -1.5q-23 -2 -31 -17.5t-15 -31.5q-32 -79 -32 -167q0 -6 0.5 -12t0.5 -12q1 -37 2.5 -73.5t3.5 -74.5v-13zM74 258q-4 97 -7.5 192t-5.5 191q0 4 -0.5 8t-0.5 8q1 57 12.5 111t35.5 106q34 78 116 85q37 4 73.5 5.5t73.5 1.5q48 0 96 -3q34 -2 61 -17.5t49 -41.5
q33 -40 56 -84.5t31 -96.5q14 -88 21.5 -173.5t7.5 -173.5q0 -30 -1 -59.5t-3 -59.5q-2 -27 -3.5 -53.5t-1.5 -53.5q0 -32 2.5 -62.5t7.5 -62.5q3 -41 4.5 -79.5t3.5 -74t6 -67.5t12 -58q2 -8 2 -11q0 -20 -21 -33q-13 -8 -25 -8q-14 0 -28 8q-11 8 -17 19t-8 25
q-3 20 -7 41t-4 42q-1 55 -4.5 99t-7 80.5t-6.5 68t-3 62.5v9q0 20 -19 20h-7q-35 -3 -70.5 -7t-70.5 -4q-25 0 -50 3h-5q-19 0 -19 -23q1 -41 1 -81.5v-82.5l-3 -207q0 -35 -13.5 -50t-48.5 -17q-44 -3 -87 -3q-12 0 -24.5 0.5t-24.5 0.5q-38 1 -54 16.5t-17 54.5
q-1 32 -1 63v63l3 190q0 44 -2 87t-5 87zM467 997q-15 1 -30 1h-30l-32 -1q-13 0 -25.5 1t-25.5 4q-46 9 -46 44q0 7 3 18q15 56 39.5 107t53.5 100q11 19 32 22q23 4 45.5 6.5t45.5 2.5q39 0 75 -10q43 -12 43 -44q0 -14 -8 -29q-24 -44 -43.5 -89.5t-38.5 -92.5
q-15 -40 -58 -40z" />
    <glyph glyph-name="Acircumflex" unicode="&#xc2;" horiz-adv-x="782" 
d="M335 469q0 -48 3 -95t5 -95q0 -13 5 -19t20 -8q12 -1 24 -1.5t24 -0.5q36 0 71.5 3.5t71.5 6.5q14 1 22 3.5t12 7.5t5 14t2 24q0 11 0.5 22.5t0.5 22.5q0 66 -4.5 131t-9.5 131q-3 29 -7.5 57t-11.5 57q-8 33 -24.5 61t-38.5 53q-14 17 -31 22.5t-36 5.5q-8 0 -16 -0.5
t-16 -1.5q-23 -2 -31 -17.5t-15 -31.5q-32 -79 -32 -167q0 -6 0.5 -12t0.5 -12q1 -37 2.5 -73.5t3.5 -74.5v-13zM74 258q-4 97 -7.5 192t-5.5 191q0 4 -0.5 8t-0.5 8q1 57 12.5 111t35.5 106q34 78 116 85q37 4 73.5 5.5t73.5 1.5q48 0 96 -3q34 -2 61 -17.5t49 -41.5
q33 -40 56 -84.5t31 -96.5q14 -88 21.5 -173.5t7.5 -173.5q0 -30 -1 -59.5t-3 -59.5q-2 -27 -3.5 -53.5t-1.5 -53.5q0 -32 2.5 -62.5t7.5 -62.5q3 -41 4.5 -79.5t3.5 -74t6 -67.5t12 -58q2 -8 2 -11q0 -20 -21 -33q-13 -8 -25 -8q-14 0 -28 8q-11 8 -17 19t-8 25
q-3 20 -7 41t-4 42q-1 55 -4.5 99t-7 80.5t-6.5 68t-3 62.5v9q0 20 -19 20h-7q-35 -3 -70.5 -7t-70.5 -4q-25 0 -50 3h-5q-19 0 -19 -23q1 -41 1 -81.5v-82.5l-3 -207q0 -35 -13.5 -50t-48.5 -17q-44 -3 -87 -3q-12 0 -24.5 0.5t-24.5 0.5q-38 1 -54 16.5t-17 54.5
q-1 32 -1 63v63l3 190q0 44 -2 87t-5 87zM202 986q-8 0 -15 3q-28 12 -28 45l1 11l1 4q21 54 39.5 108.5t50.5 104.5q18 27 48 34q17 5 34.5 6.5t34.5 1.5q23 0 46.5 -2.5t46.5 -6.5q13 -2 21.5 -10t14.5 -19q26 -46 49 -93.5t38 -99.5q4 -12 4 -25q0 -41 -53 -46
q-42 -3 -82 -3l-58 1q-38 1 -52 36l-29 70q-3 8 -5.5 17t-14.5 16l-35 -88q-3 -9 -5.5 -17.5t-7.5 -16.5q-16 -31 -44 -31z" />
    <glyph glyph-name="Atilde" unicode="&#xc3;" horiz-adv-x="782" 
d="M335 469q0 -48 3 -95t5 -95q0 -13 5 -19t20 -8q12 -1 24 -1.5t24 -0.5q36 0 71.5 3.5t71.5 6.5q14 1 22 3.5t12 7.5t5 14t2 24q0 11 0.5 22.5t0.5 22.5q0 66 -4.5 131t-9.5 131q-3 29 -7.5 57t-11.5 57q-8 33 -24.5 61t-38.5 53q-14 17 -31 22.5t-36 5.5q-8 0 -16 -0.5
t-16 -1.5q-23 -2 -31 -17.5t-15 -31.5q-32 -79 -32 -167q0 -6 0.5 -12t0.5 -12q1 -37 2.5 -73.5t3.5 -74.5v-13zM74 258q-4 97 -7.5 192t-5.5 191q0 4 -0.5 8t-0.5 8q1 57 12.5 111t35.5 106q34 78 116 85q37 4 73.5 5.5t73.5 1.5q48 0 96 -3q34 -2 61 -17.5t49 -41.5
q33 -40 56 -84.5t31 -96.5q14 -88 21.5 -173.5t7.5 -173.5q0 -30 -1 -59.5t-3 -59.5q-2 -27 -3.5 -53.5t-1.5 -53.5q0 -32 2.5 -62.5t7.5 -62.5q3 -41 4.5 -79.5t3.5 -74t6 -67.5t12 -58q2 -8 2 -11q0 -20 -21 -33q-13 -8 -25 -8q-14 0 -28 8q-11 8 -17 19t-8 25
q-3 20 -7 41t-4 42q-1 55 -4.5 99t-7 80.5t-6.5 68t-3 62.5v9q0 20 -19 20h-7q-35 -3 -70.5 -7t-70.5 -4q-25 0 -50 3h-5q-19 0 -19 -23q1 -41 1 -81.5v-82.5l-3 -207q0 -35 -13.5 -50t-48.5 -17q-44 -3 -87 -3q-12 0 -24.5 0.5t-24.5 0.5q-38 1 -54 16.5t-17 54.5
q-1 32 -1 63v63l3 190q0 44 -2 87t-5 87zM427 997q-11 0 -23 2t-24 7l-40 18q-23 10 -39 10q-24 0 -45 -21q-14 -14 -30 -14q-15 0 -28 11q-17 14 -17 35q0 15 7 26q4 9 14 19q15 16 44 27.5t55 11.5q39 -2 79 -23q26 -13 47 -13q24 0 45 17q6 4 15 6q5 2 15 2q12 0 22.5 -6
t16.5 -17t6 -23q0 -18 -16 -31q-24 -20 -49.5 -32t-54.5 -12z" />
    <glyph glyph-name="Adieresis" unicode="&#xc4;" horiz-adv-x="782" 
d="M335 469q0 -48 3 -95t5 -95q0 -13 5 -19t20 -8q12 -1 24 -1.5t24 -0.5q36 0 71.5 3.5t71.5 6.5q14 1 22 3.5t12 7.5t5 14t2 24q0 11 0.5 22.5t0.5 22.5q0 66 -4.5 131t-9.5 131q-3 29 -7.5 57t-11.5 57q-8 33 -24.5 61t-38.5 53q-14 17 -31 22.5t-36 5.5q-8 0 -16 -0.5
t-16 -1.5q-23 -2 -31 -17.5t-15 -31.5q-32 -79 -32 -167q0 -6 0.5 -12t0.5 -12q1 -37 2.5 -73.5t3.5 -74.5v-13zM74 258q-4 97 -7.5 192t-5.5 191q0 4 -0.5 8t-0.5 8q1 57 12.5 111t35.5 106q34 78 116 85q37 4 73.5 5.5t73.5 1.5q48 0 96 -3q34 -2 61 -17.5t49 -41.5
q33 -40 56 -84.5t31 -96.5q14 -88 21.5 -173.5t7.5 -173.5q0 -30 -1 -59.5t-3 -59.5q-2 -27 -3.5 -53.5t-1.5 -53.5q0 -32 2.5 -62.5t7.5 -62.5q3 -41 4.5 -79.5t3.5 -74t6 -67.5t12 -58q2 -8 2 -11q0 -20 -21 -33q-13 -8 -25 -8q-14 0 -28 8q-11 8 -17 19t-8 25
q-3 20 -7 41t-4 42q-1 55 -4.5 99t-7 80.5t-6.5 68t-3 62.5v9q0 20 -19 20h-7q-35 -3 -70.5 -7t-70.5 -4q-25 0 -50 3h-5q-19 0 -19 -23q1 -41 1 -81.5v-82.5l-3 -207q0 -35 -13.5 -50t-48.5 -17q-44 -3 -87 -3q-12 0 -24.5 0.5t-24.5 0.5q-38 1 -54 16.5t-17 54.5
q-1 32 -1 63v63l3 190q0 44 -2 87t-5 87zM234 997q-23 0 -45 0.5t-45 1.5q-24 1 -35.5 12.5t-16.5 36.5q-2 14 -3 27t-1 27v9v22.5t-2 22.5v68q0 32 12.5 47t45.5 17q29 2 57 3t57 1h28.5t28.5 -1q29 -2 42 -15.5t15 -42.5q2 -26 1.5 -52t0.5 -52q0 -14 1 -27.5t5 -27.5
q3 -11 3 -20q0 -20 -13.5 -33.5t-37.5 -17.5q-25 -4 -49.5 -5t-48.5 -1zM668 1003q-13 -2 -43 -3t-62 -1q-37 -1 -79 0q-26 1 -38.5 12t-17.5 37q-2 11 -2.5 21t-0.5 21v50l-2 46t-1 46q0 26 12 40t38 15q32 2 62.5 3.5t61.5 1.5h27.5t27.5 -2q29 -2 42 -15.5t15 -42.5
q2 -26 1.5 -51.5t0.5 -51.5q0 -14 1 -27.5t5 -27.5q3 -11 3 -20q0 -20 -13.5 -34t-37.5 -17z" />
    <glyph glyph-name="Aring" unicode="&#xc5;" horiz-adv-x="782" 
d="M335 469q0 -48 3 -95t5 -95q0 -13 5 -19t20 -8q12 -1 24 -1.5t24 -0.5q36 0 71.5 3.5t71.5 6.5q14 1 22 3.5t12 7.5t5 14t2 24q0 11 0.5 22.5t0.5 22.5q0 66 -4.5 131t-9.5 131q-3 29 -7.5 57t-11.5 57q-8 33 -24.5 61t-38.5 53q-14 17 -31 22.5t-36 5.5q-8 0 -16 -0.5
t-16 -1.5q-23 -2 -31 -17.5t-15 -31.5q-32 -79 -32 -167q0 -6 0.5 -12t0.5 -12q1 -37 2.5 -73.5t3.5 -74.5v-13zM74 258q-4 97 -7.5 192t-5.5 191q0 4 -0.5 8t-0.5 8q1 57 12.5 111t35.5 106q34 78 116 85q37 4 73.5 5.5t73.5 1.5q48 0 96 -3q34 -2 61 -17.5t49 -41.5
q33 -40 56 -84.5t31 -96.5q14 -88 21.5 -173.5t7.5 -173.5q0 -30 -1 -59.5t-3 -59.5q-2 -27 -3.5 -53.5t-1.5 -53.5q0 -32 2.5 -62.5t7.5 -62.5q3 -41 4.5 -79.5t3.5 -74t6 -67.5t12 -58q2 -8 2 -11q0 -20 -21 -33q-13 -8 -25 -8q-14 0 -28 8q-11 8 -17 19t-8 25
q-3 20 -7 41t-4 42q-1 55 -4.5 99t-7 80.5t-6.5 68t-3 62.5v9q0 20 -19 20h-7q-35 -3 -70.5 -7t-70.5 -4q-25 0 -50 3h-5q-19 0 -19 -23q1 -41 1 -81.5v-82.5l-3 -207q0 -35 -13.5 -50t-48.5 -17q-44 -3 -87 -3q-12 0 -24.5 0.5t-24.5 0.5q-38 1 -54 16.5t-17 54.5
q-1 32 -1 63v63l3 190q0 44 -2 87t-5 87zM444 1097q7 0 11 10q5 14 5.5 27.5t2.5 27.5l1 12q-1 5 -1 11t-8 8h-1q-7 0 -9.5 -5.5t-4.5 -10.5q-3 -13 -5 -26t-2 -26l1 -14q0 -5 1.5 -9.5t7.5 -4.5h1zM259 998q-30 1 -54.5 21t-30.5 52q-6 30 -6 60q0 35 9.5 69t32.5 66
q11 17 27 26.5t37 9.5h166q24 0 45 -8.5t36.5 -23.5t25 -35.5t10.5 -44.5v-11q0 -23 -3 -46t-8 -46q-20 -86 -112 -89l-87 -1z" />
    <glyph glyph-name="AE" unicode="&#xc6;" horiz-adv-x="1071" 
d="M415 240q36 0 72 3.5t71 6.5q15 1 23 3.5t12 7.5t5 14t1 24l1 52q0 64 -4.5 127.5t-9.5 127.5q-2 29 -7 57t-12 57q-8 33 -24.5 60.5t-37.5 53.5q-14 17 -31 22.5t-36 5.5q-8 0 -16 -0.5t-16 -1.5q-23 -2 -31 -17t-15 -32q-17 -42 -24.5 -84.5t-7.5 -87.5v-19
q2 -37 3.5 -74t3.5 -75v-25q0 -44 2.5 -88t4.5 -89q1 -14 6 -20t19 -7q12 -1 24 -1.5t24 -0.5zM152 -302q-38 1 -54 16.5t-17 54.5q-1 27 -1 53.5v53.5l1 172q0 50 -2 99.5t-6 99.5q-3 97 -7 192t-6 192v15q0 57 11.5 111.5t35.5 106.5q34 78 116 85q78 7 167.5 7t171.5 1
h25q53 0 105 0.5t104 0.5q40 0 79 -0.5t78 -2.5l14 -2t13 -3q14 -5 22.5 -16.5t8.5 -25.5v-4q-5 -32 -36 -39q-5 -1 -11 -1.5t-11 -0.5h-6h-20q-11 0 -26 0.5t-38 0.5h-53t-68 -1q-15 0 -32 -0.5t-32.5 -0.5t-27.5 -0.5t-18 -0.5q-19 0 -19 -17q19 -30 32 -62.5t18 -69.5
q13 -81 20.5 -161.5t8.5 -162.5l1 -26l-1 -32v-9.5t-1 -9.5v-20q0 -14 0.5 -21.5t4.5 -11.5t11.5 -6t22.5 -3q8 -1 16.5 -1h17.5h48q8 0 16.5 -0.5t16.5 -3.5q34 -13 34 -46q0 -7 -1 -11q-3 -15 -14.5 -25.5t-27.5 -10.5l-9 1q-10 2 -19.5 2.5t-19.5 0.5h-38h-12.5t-13.5 1
h-8q-14 0 -19.5 -6t-5.5 -21v-5q3 -41 3 -91l-1 -88q5 -38 6 -77.5t7 -78.5l9 -1l226 5q15 0 26 -4q30 -13 30 -43q0 -29 -28 -40q-10 -5 -21 -6l-22 -2l-262 -3q-12 0 -26 8q-11 8 -17 19t-8 25q-3 20 -7 41t-4 42q0 31 -1.5 69.5t-4 79t-4 79.5t-1.5 70v7q0 14 -5 18.5
t-16 4.5h-5q-35 -3 -71 -7t-71 -4q-25 0 -50 3h-5q-18 0 -18 -23v-86v-91.5t0.5 -91.5t0.5 -86q0 -38 -12.5 -54t-50.5 -18q-44 -3 -86 -3z" />
    <glyph glyph-name="Ccedilla" unicode="&#xc7;" horiz-adv-x="757" 
d="M234 -299q-44 7 -72 36q-37 37 -49 91q-10 45 -18.5 90t-15.5 91q-18 130 -18 284v31q-1 13 -1 25.5v25.5l1 111q0 27 0.5 54t1.5 53q15 169 111 305q42 64 118 64h93l50 -1q97 -3 165 -70q48 -43 58 -107l1 -14q0 -17 -4 -29q-13 -37 -44 -37h-6q-38 5 -38 42v6
q0 44 -25 68q-26 24 -61 39q-19 8 -31 8q-20 0 -37 -29q-86 -128 -92 -281l-1 -164q0 -174 9 -289q6 -63 16.5 -124.5t24.5 -124.5q2 -8 4 -14q0 -4 1 -5q16 -43 50 -43q12 0 29 6q63 22 103 67q40 43 46 120l1 34q0 58 -9 114q0 5 -1 7q-1 8 -1.5 17t-0.5 17v9t1 9
q10 42 44 42h2q17 0 28 -10q12 -11 15 -30q3 -23 6 -45t5 -44q2 -23 3 -45t1 -45q0 -17 -1 -34t-3 -34q-10 -94 -82 -160q-44 -41 -95 -65q-10 -5 -25 -10q1 -2 1 -3.5t1 -3.5q1 -12 8 -19q4 -6 18 -11q40 -14 58 -44q19 -31 19 -76v-10q-6 -92 -93 -115q-16 -4 -31.5 -6.5
t-31.5 -3.5l-29 -1l-58 1q-27 3 -53 3q-18 0 -36 1.5t-35 5.5q-29 4 -52 27q-17 17 -17 36q0 15 11 29q17 20 39 20q13 0 25 -9q19 -13 38 -13l40 1q16 0 20 19q2 10 2 17q0 10 -6 21q-5 5 -10 5q-7 0 -10 -1q-1 -1 -2 -1l-20 -2q-28 0 -38 15q-11 13 -13 46q-1 12 -1.5 24
t-0.5 24v12v0z" />
    <glyph glyph-name="Egrave" unicode="&#xc8;" horiz-adv-x="714" 
d="M130 -313q-36 0 -50.5 12.5t-15.5 50.5q-1 17 -1.5 34.5t-0.5 34.5l1 39l2 115q0 55 -2.5 109.5t-2.5 109.5q0 44 3 89v64q3 70 5.5 139.5t2.5 137.5q0 65 -3 131l-1 55q0 23 0.5 44.5t1.5 44.5q2 29 13 41.5t40 16.5q40 6 84 6h23q51 0 100 0.5t100 0.5q84 0 167 -3
l14 -2t14 -3q14 -5 22 -16t8 -24v-6q-4 -31 -35 -39q-5 -1 -10.5 -1.5t-10.5 -0.5h-7q-12 1 -23.5 1h-23.5q-28 0 -56 -1l-56 -2l-24 2q-12 0 -24 -1t-24 -1q-20 0 -20 -19l-1 -48q2 -54 3.5 -108t1.5 -109q0 -66 -2 -132.5t-6 -120.5q-1 -11 -1 -22v-22v-14q0 -9 1 -14
t5 -8t11.5 -4t20.5 -1l23 -1l45 1q12 0 24 -0.5t24 -4.5q16 -5 24.5 -17.5t8.5 -26.5q0 -8 -1 -12q-3 -15 -14.5 -25.5t-26.5 -10.5l-9 1q-10 2 -19 2.5t-19 0.5l-46 -1h-30q-13 0 -17.5 -5.5t-4.5 -18.5v-8q2 -21 2 -41.5v-41.5q0 -43 -0.5 -75t-1 -56.5t-1 -44t-0.5 -38.5
q0 -21 3 -27.5t18 -6.5l230 11q14 0 25 -4q30 -11 30 -41v-2q0 -27 -27 -40q-11 -5 -21.5 -6t-21.5 -1q-63 -2 -124.5 -6t-123.5 -4q-6 0 -16 -0.5t-21 -0.5h-25q-32 0 -64.5 -2.5t-65.5 -2.5zM343 997q-38 0 -59 1.5t-33.5 10t-21 27.5t-21.5 54q-8 24 -20 47t-22.5 44
t-18 38.5t-7.5 31.5t10 24t26 16t37 9t44 3t45.5 -2.5t45.5 -5.5q14 -2 22 -10t15 -19q26 -47 48.5 -94.5t37.5 -98.5l3.5 -14t1.5 -12q0 -36 -49 -45q-21 -4 -42 -4t-42 -1z" />
    <glyph glyph-name="Eacute" unicode="&#xc9;" horiz-adv-x="714" 
d="M130 -313q-36 0 -50.5 12.5t-15.5 50.5q-1 17 -1.5 34.5t-0.5 34.5l1 39l2 115q0 55 -2.5 109.5t-2.5 109.5q0 44 3 89v64q3 70 5.5 139.5t2.5 137.5q0 65 -3 131l-1 55q0 23 0.5 44.5t1.5 44.5q2 29 13 41.5t40 16.5q40 6 84 6h23q51 0 100 0.5t100 0.5q84 0 167 -3
l14 -2t14 -3q14 -5 22 -16t8 -24v-6q-4 -31 -35 -39q-5 -1 -10.5 -1.5t-10.5 -0.5h-7q-12 1 -23.5 1h-23.5q-28 0 -56 -1l-56 -2l-24 2q-12 0 -24 -1t-24 -1q-20 0 -20 -19l-1 -48q2 -54 3.5 -108t1.5 -109q0 -66 -2 -132.5t-6 -120.5q-1 -11 -1 -22v-22v-14q0 -9 1 -14
t5 -8t11.5 -4t20.5 -1l23 -1l45 1q12 0 24 -0.5t24 -4.5q16 -5 24.5 -17.5t8.5 -26.5q0 -8 -1 -12q-3 -15 -14.5 -25.5t-26.5 -10.5l-9 1q-10 2 -19 2.5t-19 0.5l-46 -1h-30q-13 0 -17.5 -5.5t-4.5 -18.5v-8q2 -21 2 -41.5v-41.5q0 -43 -0.5 -75t-1 -56.5t-1 -44t-0.5 -38.5
q0 -21 3 -27.5t18 -6.5l230 11q14 0 25 -4q30 -11 30 -41v-2q0 -27 -27 -40q-11 -5 -21.5 -6t-21.5 -1q-63 -2 -124.5 -6t-123.5 -4q-6 0 -16 -0.5t-21 -0.5h-25q-32 0 -64.5 -2.5t-65.5 -2.5zM413 997q-15 1 -30 1h-30l-32 -1q-13 0 -25.5 1t-25.5 4q-46 9 -46 44q0 7 3 18
q15 56 39.5 107t53.5 100q11 19 32 22q23 4 45.5 6.5t45.5 2.5q39 0 75 -10q43 -12 43 -44q0 -14 -8 -29q-24 -44 -43.5 -89.5t-38.5 -92.5q-15 -40 -58 -40z" />
    <glyph glyph-name="Ecircumflex" unicode="&#xca;" horiz-adv-x="714" 
d="M130 -313q-36 0 -50.5 12.5t-15.5 50.5q-1 17 -1.5 34.5t-0.5 34.5l1 39l2 115q0 55 -2.5 109.5t-2.5 109.5q0 44 3 89v64q3 70 5.5 139.5t2.5 137.5q0 65 -3 131l-1 55q0 23 0.5 44.5t1.5 44.5q2 29 13 41.5t40 16.5q40 6 84 6h23q51 0 100 0.5t100 0.5q84 0 167 -3
l14 -2t14 -3q14 -5 22 -16t8 -24v-6q-4 -31 -35 -39q-5 -1 -10.5 -1.5t-10.5 -0.5h-7q-12 1 -23.5 1h-23.5q-28 0 -56 -1l-56 -2l-24 2q-12 0 -24 -1t-24 -1q-20 0 -20 -19l-1 -48q2 -54 3.5 -108t1.5 -109q0 -66 -2 -132.5t-6 -120.5q-1 -11 -1 -22v-22v-14q0 -9 1 -14
t5 -8t11.5 -4t20.5 -1l23 -1l45 1q12 0 24 -0.5t24 -4.5q16 -5 24.5 -17.5t8.5 -26.5q0 -8 -1 -12q-3 -15 -14.5 -25.5t-26.5 -10.5l-9 1q-10 2 -19 2.5t-19 0.5l-46 -1h-30q-13 0 -17.5 -5.5t-4.5 -18.5v-8q2 -21 2 -41.5v-41.5q0 -43 -0.5 -75t-1 -56.5t-1 -44t-0.5 -38.5
q0 -21 3 -27.5t18 -6.5l230 11q14 0 25 -4q30 -11 30 -41v-2q0 -27 -27 -40q-11 -5 -21.5 -6t-21.5 -1q-63 -2 -124.5 -6t-123.5 -4q-6 0 -16 -0.5t-21 -0.5h-25q-32 0 -64.5 -2.5t-65.5 -2.5zM192 986q-8 0 -15 3q-28 12 -28 45l1 11l1 4q21 54 39.5 108.5t50.5 104.5
q18 27 48 34q17 5 34.5 6.5t34.5 1.5q23 0 46.5 -2.5t46.5 -6.5q13 -2 21.5 -10t14.5 -19q26 -46 49 -93.5t38 -99.5q4 -12 4 -25q0 -41 -53 -46q-42 -3 -82 -3l-58 1q-38 1 -52 36l-29 70q-3 8 -5.5 17t-14.5 16l-35 -88q-3 -9 -5.5 -17.5t-7.5 -16.5q-16 -31 -44 -31z" />
    <glyph glyph-name="Edieresis" unicode="&#xcb;" horiz-adv-x="714" 
d="M130 -313q-36 0 -50.5 12.5t-15.5 50.5q-1 17 -1.5 34.5t-0.5 34.5l1 39l2 115q0 55 -2.5 109.5t-2.5 109.5q0 44 3 89v64q3 70 5.5 139.5t2.5 137.5q0 65 -3 131l-1 55q0 23 0.5 44.5t1.5 44.5q2 29 13 41.5t40 16.5q40 6 84 6h23q51 0 100 0.5t100 0.5q84 0 167 -3
l14 -2t14 -3q14 -5 22 -16t8 -24v-6q-4 -31 -35 -39q-5 -1 -10.5 -1.5t-10.5 -0.5h-7q-12 1 -23.5 1h-23.5q-28 0 -56 -1l-56 -2l-24 2q-12 0 -24 -1t-24 -1q-20 0 -20 -19l-1 -48q2 -54 3.5 -108t1.5 -109q0 -66 -2 -132.5t-6 -120.5q-1 -11 -1 -22v-22v-14q0 -9 1 -14
t5 -8t11.5 -4t20.5 -1l23 -1l45 1q12 0 24 -0.5t24 -4.5q16 -5 24.5 -17.5t8.5 -26.5q0 -8 -1 -12q-3 -15 -14.5 -25.5t-26.5 -10.5l-9 1q-10 2 -19 2.5t-19 0.5l-46 -1h-30q-13 0 -17.5 -5.5t-4.5 -18.5v-8q2 -21 2 -41.5v-41.5q0 -43 -0.5 -75t-1 -56.5t-1 -44t-0.5 -38.5
q0 -21 3 -27.5t18 -6.5l230 11q14 0 25 -4q30 -11 30 -41v-2q0 -27 -27 -40q-11 -5 -21.5 -6t-21.5 -1q-63 -2 -124.5 -6t-123.5 -4q-6 0 -16 -0.5t-21 -0.5h-25q-32 0 -64.5 -2.5t-65.5 -2.5zM194 997q-23 0 -45 0.5t-45 1.5q-24 1 -35.5 12.5t-16.5 36.5q-2 14 -3 27
t-1 27v9v22.5t-2 22.5v68q0 32 12.5 47t45.5 17q29 2 57 3t57 1h28.5t28.5 -1q29 -2 42 -15.5t15 -42.5q2 -26 1.5 -52t0.5 -52q0 -14 1 -27.5t5 -27.5q3 -11 3 -20q0 -20 -13.5 -33.5t-37.5 -17.5q-25 -4 -49.5 -5t-48.5 -1zM628 1003q-13 -2 -43 -3t-62 -1q-37 -1 -79 0
q-26 1 -38.5 12t-17.5 37q-2 11 -2.5 21t-0.5 21v50l-2 46t-1 46q0 26 12 40t38 15q32 2 62.5 3.5t61.5 1.5h27.5t27.5 -2q29 -2 42 -15.5t15 -42.5q2 -26 1.5 -51.5t0.5 -51.5q0 -14 1 -27.5t5 -27.5q3 -11 3 -20q0 -20 -13.5 -34t-37.5 -17z" />
    <glyph glyph-name="Igrave" unicode="&#xcc;" horiz-adv-x="403" 
d="M164 -303q-11 0 -21.5 2.5t-21.5 5.5q-38 11 -40 53q-8 148 -14.5 293.5t-6.5 293.5q0 55 1 111t4 117q4 78 3.5 154t1.5 154q1 45 17 62t58 17l128 -5q32 -3 44.5 -16t12.5 -45v-27q0 -42 1 -83t1 -82q0 -11 -1 -36t-2 -58t-3 -70t-3 -72t-2 -64t-1 -46q0 -41 1 -81
t4 -80q1 -8 1 -31v-48v-62q0 -53 4.5 -105t9.5 -106q3 -27 3 -54l-1 -30q-4 -54 -58 -58q-30 -2 -60 -3t-60 -1zM203 997q-38 0 -59 1.5t-33.5 10t-21 27.5t-21.5 54q-8 24 -20 47t-22.5 44t-18 38.5t-7.5 31.5t10 24t26 16t37 9t44 3t45.5 -2.5t45.5 -5.5q14 -2 22 -10
t15 -19q26 -47 48.5 -94.5t37.5 -98.5l3.5 -14t1.5 -12q0 -36 -49 -45q-21 -4 -42 -4t-42 -1z" />
    <glyph glyph-name="Iacute" unicode="&#xcd;" horiz-adv-x="403" 
d="M164 -303q-11 0 -21.5 2.5t-21.5 5.5q-38 11 -40 53q-8 148 -14.5 293.5t-6.5 293.5q0 55 1 111t4 117q4 78 3.5 154t1.5 154q1 45 17 62t58 17l128 -5q32 -3 44.5 -16t12.5 -45v-27q0 -42 1 -83t1 -82q0 -11 -1 -36t-2 -58t-3 -70t-3 -72t-2 -64t-1 -46q0 -41 1 -81
t4 -80q1 -8 1 -31v-48v-62q0 -53 4.5 -105t9.5 -106q3 -27 3 -54l-1 -30q-4 -54 -58 -58q-30 -2 -60 -3t-60 -1zM270 997q-15 1 -30 1h-30l-32 -1q-13 0 -25.5 1t-25.5 4q-46 9 -46 44q0 7 3 18q15 56 39.5 107t53.5 100q11 19 32 22q23 4 45.5 6.5t45.5 2.5q39 0 75 -10
q43 -12 43 -44q0 -14 -8 -29q-24 -44 -43.5 -89.5t-38.5 -92.5q-15 -40 -58 -40z" />
    <glyph glyph-name="Icircumflex" unicode="&#xce;" horiz-adv-x="403" 
d="M164 -303q-11 0 -21.5 2.5t-21.5 5.5q-38 11 -40 53q-8 148 -14.5 293.5t-6.5 293.5q0 55 1 111t4 117q4 78 3.5 154t1.5 154q1 45 17 62t58 17l128 -5q32 -3 44.5 -16t12.5 -45v-27q0 -42 1 -83t1 -82q0 -11 -1 -36t-2 -58t-3 -70t-3 -72t-2 -64t-1 -46q0 -41 1 -81
t4 -80q1 -8 1 -31v-48v-62q0 -53 4.5 -105t9.5 -106q3 -27 3 -54l-1 -30q-4 -54 -58 -58q-30 -2 -60 -3t-60 -1zM32 986q-8 0 -15 3q-28 12 -28 45l1 11l1 4q21 54 39.5 108.5t50.5 104.5q18 27 48 34q17 5 34.5 6.5t34.5 1.5q23 0 46.5 -2.5t46.5 -6.5q13 -2 21.5 -10
t14.5 -19q26 -46 49 -93.5t38 -99.5q4 -12 4 -25q0 -41 -53 -46q-42 -3 -82 -3l-58 1q-38 1 -52 36l-29 70q-3 8 -5.5 17t-14.5 16l-35 -88q-3 -9 -5.5 -17.5t-7.5 -16.5q-16 -31 -44 -31z" />
    <glyph glyph-name="Idieresis" unicode="&#xcf;" horiz-adv-x="403" 
d="M164 -303q-11 0 -21.5 2.5t-21.5 5.5q-38 11 -40 53q-8 148 -14.5 293.5t-6.5 293.5q0 55 1 111t4 117q4 78 3.5 154t1.5 154q1 45 17 62t58 17l128 -5q32 -3 44.5 -16t12.5 -45v-27q0 -42 1 -83t1 -82q0 -11 -1 -36t-2 -58t-3 -70t-3 -72t-2 -64t-1 -46q0 -41 1 -81
t4 -80q1 -8 1 -31v-48v-62q0 -53 4.5 -105t9.5 -106q3 -27 3 -54l-1 -30q-4 -54 -58 -58q-30 -2 -60 -3t-60 -1zM44 997q-23 0 -45 0.5t-45 1.5q-24 1 -35.5 12.5t-16.5 36.5q-2 14 -3 27t-1 27v9v22.5t-2 22.5v68q0 32 12.5 47t45.5 17q29 2 57 3t57 1h28.5t28.5 -1
q29 -2 42 -15.5t15 -42.5q2 -26 1.5 -52t0.5 -52q0 -14 1 -27.5t5 -27.5q3 -11 3 -20q0 -20 -13.5 -33.5t-37.5 -17.5q-25 -4 -49.5 -5t-48.5 -1zM478 1003q-13 -2 -43 -3t-62 -1q-37 -1 -79 0q-26 1 -38.5 12t-17.5 37q-2 11 -2.5 21t-0.5 21v50l-2 46t-1 46q0 26 12 40
t38 15q32 2 62.5 3.5t61.5 1.5h27.5t27.5 -2q29 -2 42 -15.5t15 -42.5q2 -26 1.5 -51.5t0.5 -51.5q0 -14 1 -27.5t5 -27.5q3 -11 3 -20q0 -20 -13.5 -34t-37.5 -17z" />
    <glyph glyph-name="Eth" unicode="&#xd0;" horiz-adv-x="711" 
d="M68 403q-2 23 -3 46.5t-1 46.5q-2 22 -3 43t-1 42q0 39 2 78t6 79l2 32t2 33q3 48 9 95q3 62 66 62h2q34 0 67.5 -1t67.5 -3l68 -2q64 -4 122 -35q46 -22 73 -66q73 -129 87 -276q8 -65 9 -128q1 -30 2.5 -60t4.5 -59l-1 -107l1 -64l1 -28q0 -85 -18 -167
q-22 -97 -95 -168q-48 -52 -106 -76q-59 -24 -127 -24l-22 1l-120 8q-41 1 -55 16q-14 13 -18 57q-5 48 -8 94.5t-5 94.5l-2 54q-5 94 -6 192v41.5t-1 40.5h-90q-20 0 -39 6q-29 11 -29 40v3q0 29 33 40q15 4 34 4l30 -1q16 -1 31 -1.5t30 -1.5v19zM341 376q23 1 46.5 2.5
t46.5 4.5l17 1l23 -2q14 -3 24 -14q9 -11 11 -25v-3q0 -28 -28 -41q-25 -8 -55 -10q-42 -3 -85 -3q1 -174 9 -347l2 -33q1 -28 3.5 -57t6.5 -61q73 31 120 83q46 51 63 128q12 72 12 142l-1 63l-4 92t-3 93q-1 37 -2 73.5t-3 73.5q-6 136 -69 256q-17 30 -42 45
q-27 13 -57 21q-3 1 -10 1q-17 0 -19 -23l-4 -64q-1 -10 -1.5 -20t-1.5 -20q-6 -77 -6 -154q0 -23 1 -46t3 -46q0 -47 3 -93v-17z" />
    <glyph glyph-name="Ntilde" unicode="&#xd1;" horiz-adv-x="768" 
d="M320 -303q-48 0 -94.5 1t-93.5 2q-39 0 -50 38q-6 18 -6 36q-2 31 -5 61.5t-3 61.5q0 24 -1 58.5t-1.5 73t-1.5 79t-2 76.5t-1.5 65.5t-0.5 46.5v16l1 47q2 54 2.5 106.5t0.5 106.5v97t-2 93v20q0 25 1 49.5t1 49.5v23q0 23 13.5 37t37.5 16q40 3 82 3q29 0 57 -1t57 -3
q25 -2 36.5 -13t14.5 -34q23 -156 65.5 -308.5t85.5 -307.5q16 -58 32.5 -115t33.5 -115q2 -8 5 -15t6 -15q2 10 3 19.5t1 18.5q0 15 -1 29.5t-3 28.5q-8 114 -15 227t-7 228l-1 180q0 30 0.5 59.5t2.5 55.5q1 10 1 20t2 20q4 19 16 29t29 10h2q18 -2 29.5 -13.5t12.5 -31.5
l-1 -88q-1 -37 -1 -77v-81q0 -106 3 -210.5t11 -210.5q9 -119 17.5 -235.5t14.5 -228.5q1 -6 1.5 -12t0.5 -12q-3 -49 -46 -58l-15 -2q-31 0 -47 33q-11 21 -20 43t-19 45q-37 86 -62 182t-54 193q-22 73 -42 146l-40 146q-2 6 -3.5 11.5t-6.5 9.5q-4 -1 -4 -7v-26
q0 -54 -1 -105.5t-1 -97.5q0 -9 0.5 -40t1 -73.5t1 -92t2 -96t3 -85.5t3.5 -60q2 -17 2.5 -34t4.5 -34l2 -15q0 -20 -12 -31.5t-35 -12.5zM452 997q-11 0 -23 2t-24 7l-40 18q-23 10 -39 10q-24 0 -45 -21q-14 -14 -30 -14q-15 0 -28 11q-17 14 -17 35q0 15 7 26q4 9 14 19
q15 16 44 27.5t55 11.5q39 -2 79 -23q26 -13 47 -13q24 0 45 17q6 4 15 6q5 2 15 2q12 0 22.5 -6t16.5 -17t6 -23q0 -18 -16 -31q-24 -20 -49.5 -32t-54.5 -12z" />
    <glyph glyph-name="Ograve" unicode="&#xd2;" 
d="M442 -205q22 0 39 30q7 13 11.5 25.5t9.5 26.5q36 112 53.5 226t21.5 233v7q0 125 -22.5 240.5t-60.5 230.5q-2 5 -4 9t-4 9q-17 27 -45 27q-11 0 -22.5 -5.5t-19.5 -16.5q-17 -23 -26 -48t-16 -51q-21 -85 -29 -170.5t-13 -173.5q-2 -20 -2 -40v-40q0 -115 16 -221
t46 -211q5 -17 11 -32.5t17 -29.5q19 -25 39 -25zM265 -302q-23 0 -40.5 10.5t-33.5 25.5q-26 25 -40.5 55t-24.5 63q-33 114 -49.5 228.5t-16.5 237.5q0 48 3 98q5 89 15 175.5t31 172.5q23 89 80 155q12 15 26 24t34 11l54 4t55 2q32 0 63 -3.5t62 -12.5q39 -11 63 -37
t36 -64q28 -88 49.5 -176.5t30.5 -181.5q3 -30 5.5 -59.5t2.5 -58.5v-22q-5 -131 -23.5 -254.5t-57.5 -243.5q-5 -17 -11 -32.5t-14 -30.5q-33 -70 -112 -81q-25 -4 -49.5 -5t-49.5 -1zM352 993q-38 0 -59 1.5t-33.5 10t-21 27.5t-21.5 54q-8 24 -20 47t-22.5 44t-18 38.5
t-7.5 31.5t10 24t26 16t37 9t44 3t45.5 -2.5t45.5 -5.5q14 -2 22 -10t15 -19q26 -47 48.5 -94.5t37.5 -98.5l3.5 -14t1.5 -12q0 -36 -49 -45q-21 -4 -42 -4t-42 -1z" />
    <glyph glyph-name="Oacute" unicode="&#xd3;" 
d="M442 -205q22 0 39 30q7 13 11.5 25.5t9.5 26.5q36 112 53.5 226t21.5 233v7q0 125 -22.5 240.5t-60.5 230.5q-2 5 -4 9t-4 9q-17 27 -45 27q-11 0 -22.5 -5.5t-19.5 -16.5q-17 -23 -26 -48t-16 -51q-21 -85 -29 -170.5t-13 -173.5q-2 -20 -2 -40v-40q0 -115 16 -221
t46 -211q5 -17 11 -32.5t17 -29.5q19 -25 39 -25zM265 -302q-23 0 -40.5 10.5t-33.5 25.5q-26 25 -40.5 55t-24.5 63q-33 114 -49.5 228.5t-16.5 237.5q0 48 3 98q5 89 15 175.5t31 172.5q23 89 80 155q12 15 26 24t34 11l54 4t55 2q32 0 63 -3.5t62 -12.5q39 -11 63 -37
t36 -64q28 -88 49.5 -176.5t30.5 -181.5q3 -30 5.5 -59.5t2.5 -58.5v-22q-5 -131 -23.5 -254.5t-57.5 -243.5q-5 -17 -11 -32.5t-14 -30.5q-33 -70 -112 -81q-25 -4 -49.5 -5t-49.5 -1zM427 993q-15 1 -30 1h-30l-32 -1q-13 0 -25.5 1t-25.5 4q-46 9 -46 44q0 7 3 18
q15 56 39.5 107t53.5 100q11 19 32 22q23 4 45.5 6.5t45.5 2.5q39 0 75 -10q43 -12 43 -44q0 -14 -8 -29q-24 -44 -43.5 -89.5t-38.5 -92.5q-15 -40 -58 -40z" />
    <glyph glyph-name="Ocircumflex" unicode="&#xd4;" 
d="M442 -205q22 0 39 30q7 13 11.5 25.5t9.5 26.5q36 112 53.5 226t21.5 233v7q0 125 -22.5 240.5t-60.5 230.5q-2 5 -4 9t-4 9q-17 27 -45 27q-11 0 -22.5 -5.5t-19.5 -16.5q-17 -23 -26 -48t-16 -51q-21 -85 -29 -170.5t-13 -173.5q-2 -20 -2 -40v-40q0 -115 16 -221
t46 -211q5 -17 11 -32.5t17 -29.5q19 -25 39 -25zM265 -302q-23 0 -40.5 10.5t-33.5 25.5q-26 25 -40.5 55t-24.5 63q-33 114 -49.5 228.5t-16.5 237.5q0 48 3 98q5 89 15 175.5t31 172.5q23 89 80 155q12 15 26 24t34 11l54 4t55 2q32 0 63 -3.5t62 -12.5q39 -11 63 -37
t36 -64q28 -88 49.5 -176.5t30.5 -181.5q3 -30 5.5 -59.5t2.5 -58.5v-22q-5 -131 -23.5 -254.5t-57.5 -243.5q-5 -17 -11 -32.5t-14 -30.5q-33 -70 -112 -81q-25 -4 -49.5 -5t-49.5 -1zM192 986q-8 0 -15 3q-28 12 -28 45l1 11l1 4q21 54 39.5 108.5t50.5 104.5q18 27 48 34
q17 5 34.5 6.5t34.5 1.5q23 0 46.5 -2.5t46.5 -6.5q13 -2 21.5 -10t14.5 -19q26 -46 49 -93.5t38 -99.5q4 -12 4 -25q0 -41 -53 -46q-42 -3 -82 -3l-58 1q-38 1 -52 36l-29 70q-3 8 -5.5 17t-14.5 16l-35 -88q-3 -9 -5.5 -17.5t-7.5 -16.5q-16 -31 -44 -31z" />
    <glyph glyph-name="Otilde" unicode="&#xd5;" 
d="M442 -205q22 0 39 30q7 13 11.5 25.5t9.5 26.5q36 112 53.5 226t21.5 233v7q0 125 -22.5 240.5t-60.5 230.5q-2 5 -4 9t-4 9q-17 27 -45 27q-11 0 -22.5 -5.5t-19.5 -16.5q-17 -23 -26 -48t-16 -51q-21 -85 -29 -170.5t-13 -173.5q-2 -20 -2 -40v-40q0 -115 16 -221
t46 -211q5 -17 11 -32.5t17 -29.5q19 -25 39 -25zM265 -302q-23 0 -40.5 10.5t-33.5 25.5q-26 25 -40.5 55t-24.5 63q-33 114 -49.5 228.5t-16.5 237.5q0 48 3 98q5 89 15 175.5t31 172.5q23 89 80 155q12 15 26 24t34 11l54 4t55 2q32 0 63 -3.5t62 -12.5q39 -11 63 -37
t36 -64q28 -88 49.5 -176.5t30.5 -181.5q3 -30 5.5 -59.5t2.5 -58.5v-22q-5 -131 -23.5 -254.5t-57.5 -243.5q-5 -17 -11 -32.5t-14 -30.5q-33 -70 -112 -81q-25 -4 -49.5 -5t-49.5 -1zM445 997q-11 0 -23 2t-24 7l-40 18q-23 10 -39 10q-24 0 -45 -21q-14 -14 -30 -14
q-15 0 -28 11q-17 14 -17 35q0 15 7 26q4 9 14 19q15 16 44 27.5t55 11.5q39 -2 79 -23q26 -13 47 -13q24 0 45 17q6 4 15 6q5 2 15 2q12 0 22.5 -6t16.5 -17t6 -23q0 -18 -16 -31q-24 -20 -49.5 -32t-54.5 -12z" />
    <glyph glyph-name="Odieresis" unicode="&#xd6;" 
d="M442 -205q22 0 39 30q7 13 11.5 25.5t9.5 26.5q36 112 53.5 226t21.5 233v7q0 125 -22.5 240.5t-60.5 230.5q-2 5 -4 9t-4 9q-17 27 -45 27q-11 0 -22.5 -5.5t-19.5 -16.5q-17 -23 -26 -48t-16 -51q-21 -85 -29 -170.5t-13 -173.5q-2 -20 -2 -40v-40q0 -115 16 -221
t46 -211q5 -17 11 -32.5t17 -29.5q19 -25 39 -25zM265 -302q-23 0 -40.5 10.5t-33.5 25.5q-26 25 -40.5 55t-24.5 63q-33 114 -49.5 228.5t-16.5 237.5q0 48 3 98q5 89 15 175.5t31 172.5q23 89 80 155q12 15 26 24t34 11l54 4t55 2q32 0 63 -3.5t62 -12.5q39 -11 63 -37
t36 -64q28 -88 49.5 -176.5t30.5 -181.5q3 -30 5.5 -59.5t2.5 -58.5v-22q-5 -131 -23.5 -254.5t-57.5 -243.5q-5 -17 -11 -32.5t-14 -30.5q-33 -70 -112 -81q-25 -4 -49.5 -5t-49.5 -1zM194 997q-23 0 -45 0.5t-45 1.5q-24 1 -35.5 12.5t-16.5 36.5q-2 14 -3 27t-1 27v9
v22.5t-2 22.5v68q0 32 12.5 47t45.5 17q29 2 57 3t57 1h28.5t28.5 -1q29 -2 42 -15.5t15 -42.5q2 -26 1.5 -52t0.5 -52q0 -14 1 -27.5t5 -27.5q3 -11 3 -20q0 -20 -13.5 -33.5t-37.5 -17.5q-25 -4 -49.5 -5t-48.5 -1zM628 1003q-13 -2 -43 -3t-62 -1q-37 -1 -79 0
q-26 1 -38.5 12t-17.5 37q-2 11 -2.5 21t-0.5 21v50l-2 46t-1 46q0 26 12 40t38 15q32 2 62.5 3.5t61.5 1.5h27.5t27.5 -2q29 -2 42 -15.5t15 -42.5q2 -26 1.5 -51.5t0.5 -51.5q0 -14 1 -27.5t5 -27.5q3 -11 3 -20q0 -20 -13.5 -34t-37.5 -17z" />
    <glyph glyph-name="multiply" unicode="&#xd7;" horiz-adv-x="710" 
d="M464 48q-17 0 -37 20q-27 27 -53.5 54.5t-52.5 54.5l-22 23q-6 6 -12 6q-5 0 -12 -7l-44 -52q-7 -8 -14 -14.5t-17 -10.5q-9 -3 -17 -3q-17 0 -30 12t-13 31v2q0 11 5.5 21t12.5 18q13 16 25.5 31.5t26.5 29.5q10 10 10 17q0 8 -11 19q-28 27 -56 54.5t-59 51.5
q-34 28 -34 53q0 22 26 51q28 30 59 56.5t63 52.5q16 13 32 13t37 -15q31 -23 58.5 -49t54.5 -53q15 -16 23.5 -23.5t16.5 -7.5t17 7.5t24 21.5q10 9 20 19t21 19q18 15 36 15t32 -15q11 -13 11 -29q0 -19 -16 -36q-14 -15 -29 -28.5t-29 -27.5q-10 -9 -14.5 -14.5
t-4.5 -10.5q0 -7 17 -24l108 -113q27 -29 27 -49q0 -21 -27 -49q-29 -30 -57 -59.5t-65 -49.5q-24 -13 -37 -13z" />
    <glyph glyph-name="Oslash" unicode="&#xd8;" 
d="M608 760q38 -136 54 -275v-2q4 -29 6 -58t2 -58v-22q-6 -260 -81 -498q-5 -17 -11 -32.5t-14 -30.5q-35 -71 -112 -81q-50 -6 -99 -6h-5q-2 -5 -4.5 -10t-4.5 -10q-17 -26 -41 -26l-9 1q-33 11 -35 47q-16 2 -29 10q-18 11 -34 25q-49 52 -65 118q-66 222 -66 466
q0 48 3 98q4 89 15 175.5t31 172.5q23 89 80 155q22 30 60 35q54 6 109 6q65 0 125 -16q46 -13 74 -49l4 14q1 4 2 7.5t2 7.5q15 34 44 34h4q38 -6 42 -46v-5q0 -19 -7 -34q-11 -28 -21 -56t-19 -57zM335 57q8 30 15 60.5t15 59.5q49 192 90 378q23 111 55 209l-16 50
q-2 5 -4 9t-4 9q-20 27 -45 27q-23 0 -42 -22q-32 -47 -42 -99q-37 -169 -42 -344q-1 -20 -1.5 -40t-0.5 -40q0 -57 4 -112t12 -109zM555 579q-24 -95 -42 -192q-11 -50 -23 -98.5t-25 -97.5q-10 -37 -19.5 -74t-18.5 -75q-8 -37 -17 -75t-18 -78q-2 -8 -4 -16.5t-4 -17.5
q4 -9 9 -18t10 -17q19 -25 39 -25q21 0 39 30q14 26 21 52q70 222 75 459v7q0 61 -5.5 120t-16.5 116z" />
    <glyph glyph-name="Ugrave" unicode="&#xd9;" horiz-adv-x="736" 
d="M332 -305q-27 0 -54 2.5t-53 6.5q-50 6 -79.5 38t-43.5 78q-12 38 -16.5 76.5t-6.5 77.5l-17 289q-2 19 -2 58.5v78.5v56.5t1 31.5q4 119 10.5 217t15.5 192q4 32 18 45t47 15q26 2 52.5 3.5t52.5 1.5h19t19 -1q35 -3 48.5 -14.5t13.5 -41.5l-1 -16q-4 -47 -8 -93t-7 -94
q-4 -60 -7 -119.5t-6 -119.5v-18q0 -16 0.5 -40.5t1 -50t1 -49t1.5 -37.5q5 -76 9 -151.5t9 -153.5q2 -21 4.5 -42t5.5 -42q1 -8 3 -15.5t4 -15.5q6 -17 16.5 -30.5t28.5 -16.5l7 -1q16 0 26.5 11t19.5 25q24 38 37 80t24 85q20 86 28 171t10 172v25.5t2 25.5q7 58 10 117
t4 118.5t1 120.5t1 124q0 11 0.5 21.5t2.5 21.5q5 20 16.5 30.5t28.5 10.5h6q40 -5 40 -51q-1 -61 -2 -114.5t-1 -105.5q-1 -76 -4 -151.5t-11 -151.5q-5 -52 -5.5 -103.5t-5.5 -104.5q-8 -75 -21.5 -149t-37.5 -146q-9 -28 -22 -53.5t-28 -50.5q-18 -31 -45.5 -47.5
t-60.5 -24.5q-25 -6 -49.5 -8.5t-50.5 -2.5zM459 993q-38 0 -59 1.5t-33.5 10t-21 27.5t-21.5 54q-8 24 -20 47t-22.5 44t-18 38.5t-7.5 31.5t10 24t26 16t37 9t44 3t45.5 -2.5t45.5 -5.5q14 -2 22 -10t15 -19q26 -47 48.5 -94.5t37.5 -98.5l3.5 -14t1.5 -12q0 -36 -49 -45
q-21 -4 -42 -4t-42 -1z" />
    <glyph glyph-name="Uacute" unicode="&#xda;" horiz-adv-x="745" 
d="M332 -305q-27 0 -54 2.5t-53 6.5q-50 6 -79.5 38t-43.5 78q-12 38 -16.5 76.5t-6.5 77.5l-17 289q-2 19 -2 58.5v78.5v56.5t1 31.5q4 119 10.5 217t15.5 192q4 32 18 45t47 15q26 2 52.5 3.5t52.5 1.5h19t19 -1q35 -3 48.5 -14.5t13.5 -41.5l-1 -16q-4 -47 -8 -93t-7 -94
q-4 -60 -7 -119.5t-6 -119.5v-18q0 -16 0.5 -40.5t1 -50t1 -49t1.5 -37.5q5 -76 9 -151.5t9 -153.5q2 -21 4.5 -42t5.5 -42q1 -8 3 -15.5t4 -15.5q6 -17 16.5 -30.5t28.5 -16.5l7 -1q16 0 26.5 11t19.5 25q24 38 37 80t24 85q20 86 28 171t10 172v25.5t2 25.5q7 58 10 117
t4 118.5t1 120.5t1 124q0 11 0.5 21.5t2.5 21.5q5 20 16.5 30.5t28.5 10.5h6q40 -5 40 -51q-1 -61 -2 -114.5t-1 -105.5q-1 -76 -4 -151.5t-11 -151.5q-5 -52 -5.5 -103.5t-5.5 -104.5q-8 -75 -21.5 -149t-37.5 -146q-9 -28 -22 -53.5t-28 -50.5q-18 -31 -45.5 -47.5
t-60.5 -24.5q-25 -6 -49.5 -8.5t-50.5 -2.5zM537 993q-15 1 -30 1h-30l-32 -1q-13 0 -25.5 1t-25.5 4q-46 9 -46 44q0 7 3 18q15 56 39.5 107t53.5 100q11 19 32 22q23 4 45.5 6.5t45.5 2.5q39 0 75 -10q43 -12 43 -44q0 -14 -8 -29q-24 -44 -43.5 -89.5t-38.5 -92.5
q-15 -40 -58 -40z" />
    <glyph glyph-name="Ucircumflex" unicode="&#xdb;" horiz-adv-x="736" 
d="M332 -305q-27 0 -54 2.5t-53 6.5q-50 6 -79.5 38t-43.5 78q-12 38 -16.5 76.5t-6.5 77.5l-17 289q-2 19 -2 58.5v78.5v56.5t1 31.5q4 119 10.5 217t15.5 192q4 32 18 45t47 15q26 2 52.5 3.5t52.5 1.5h19t19 -1q35 -3 48.5 -14.5t13.5 -41.5l-1 -16q-4 -47 -8 -93t-7 -94
q-4 -60 -7 -119.5t-6 -119.5v-18q0 -16 0.5 -40.5t1 -50t1 -49t1.5 -37.5q5 -76 9 -151.5t9 -153.5q2 -21 4.5 -42t5.5 -42q1 -8 3 -15.5t4 -15.5q6 -17 16.5 -30.5t28.5 -16.5l7 -1q16 0 26.5 11t19.5 25q24 38 37 80t24 85q20 86 28 171t10 172v25.5t2 25.5q7 58 10 117
t4 118.5t1 120.5t1 124q0 11 0.5 21.5t2.5 21.5q5 20 16.5 30.5t28.5 10.5h6q40 -5 40 -51q-1 -61 -2 -114.5t-1 -105.5q-1 -76 -4 -151.5t-11 -151.5q-5 -52 -5.5 -103.5t-5.5 -104.5q-8 -75 -21.5 -149t-37.5 -146q-9 -28 -22 -53.5t-28 -50.5q-18 -31 -45.5 -47.5
t-60.5 -24.5q-25 -6 -49.5 -8.5t-50.5 -2.5zM262 986q-8 0 -15 3q-28 12 -28 45l1 11l1 4q21 54 39.5 108.5t50.5 104.5q18 27 48 34q17 5 34.5 6.5t34.5 1.5q23 0 46.5 -2.5t46.5 -6.5q13 -2 21.5 -10t14.5 -19q26 -46 49 -93.5t38 -99.5q4 -12 4 -25q0 -41 -53 -46
q-42 -3 -82 -3l-58 1q-38 1 -52 36l-29 70q-3 8 -5.5 17t-14.5 16l-35 -88q-3 -9 -5.5 -17.5t-7.5 -16.5q-16 -31 -44 -31z" />
    <glyph glyph-name="Udieresis" unicode="&#xdc;" horiz-adv-x="736" 
d="M332 -305q-27 0 -54 2.5t-53 6.5q-50 6 -79.5 38t-43.5 78q-12 38 -16.5 76.5t-6.5 77.5l-17 289q-2 19 -2 58.5v78.5v56.5t1 31.5q4 119 10.5 217t15.5 192q4 32 18 45t47 15q26 2 52.5 3.5t52.5 1.5h19t19 -1q35 -3 48.5 -14.5t13.5 -41.5l-1 -16q-4 -47 -8 -93t-7 -94
q-4 -60 -7 -119.5t-6 -119.5v-18q0 -16 0.5 -40.5t1 -50t1 -49t1.5 -37.5q5 -76 9 -151.5t9 -153.5q2 -21 4.5 -42t5.5 -42q1 -8 3 -15.5t4 -15.5q6 -17 16.5 -30.5t28.5 -16.5l7 -1q16 0 26.5 11t19.5 25q24 38 37 80t24 85q20 86 28 171t10 172v25.5t2 25.5q7 58 10 117
t4 118.5t1 120.5t1 124q0 11 0.5 21.5t2.5 21.5q5 20 16.5 30.5t28.5 10.5h6q40 -5 40 -51q-1 -61 -2 -114.5t-1 -105.5q-1 -76 -4 -151.5t-11 -151.5q-5 -52 -5.5 -103.5t-5.5 -104.5q-8 -75 -21.5 -149t-37.5 -146q-9 -28 -22 -53.5t-28 -50.5q-18 -31 -45.5 -47.5
t-60.5 -24.5q-25 -6 -49.5 -8.5t-50.5 -2.5zM214 997q-23 0 -45 0.5t-45 1.5q-24 1 -35.5 12.5t-16.5 36.5q-2 14 -3 27t-1 27v9v22.5t-2 22.5v68q0 32 12.5 47t45.5 17q29 2 57 3t57 1h28.5t28.5 -1q29 -2 42 -15.5t15 -42.5q2 -26 1.5 -52t0.5 -52q0 -14 1 -27.5t5 -27.5
q3 -11 3 -20q0 -20 -13.5 -33.5t-37.5 -17.5q-25 -4 -49.5 -5t-48.5 -1zM648 1003q-13 -2 -43 -3t-62 -1q-37 -1 -79 0q-26 1 -38.5 12t-17.5 37q-2 11 -2.5 21t-0.5 21v50l-2 46t-1 46q0 26 12 40t38 15q32 2 62.5 3.5t61.5 1.5h27.5t27.5 -2q29 -2 42 -15.5t15 -42.5
q2 -26 1.5 -51.5t0.5 -51.5q0 -14 1 -27.5t5 -27.5q3 -11 3 -20q0 -20 -13.5 -34t-37.5 -17z" />
    <glyph glyph-name="Ydieresis" unicode="&#x178;" horiz-adv-x="723" 
d="M345 -303q-23 0 -45 0.5t-45 1.5q-41 3 -46 46q-1 5 -1 16v16q-1 69 -3.5 137t-2.5 137l2 67q0 16 -4 27q-19 68 -30.5 136.5t-22.5 137.5q-14 76 -27 151.5t-26 151.5q-7 37 -13.5 73t-16.5 72q-2 7 -3 13.5t-1 12.5q0 28 18.5 45t51.5 19l55 1h51h24.5t25.5 -1
q27 -1 37.5 -14.5t15.5 -39.5q10 -60 21 -118t22 -118l44 -251l10 -48q11 19 13.5 37t7.5 35q27 112 49 224.5t55 223.5q3 11 7 22.5t9 21.5q7 14 18 20.5t24 6.5q10 0 15 -2q29 -11 29 -42l-2 -14q-6 -24 -14 -47.5t-13 -48.5q-30 -134 -59 -267t-61 -267
q-17 -65 -26 -126.5t-9 -109.5l1 -42q3 -56 3 -111.5t1 -111.5v-7q0 -32 -14 -46t-47 -17q-39 -3 -78 -3zM194 997q-23 0 -45 0.5t-45 1.5q-24 1 -35.5 12.5t-16.5 36.5q-2 14 -3 27t-1 27v9v22.5t-2 22.5v68q0 32 12.5 47t45.5 17q29 2 57 3t57 1h28.5t28.5 -1
q29 -2 42 -15.5t15 -42.5q2 -26 1.5 -52t0.5 -52q0 -14 1 -27.5t5 -27.5q3 -11 3 -20q0 -20 -13.5 -33.5t-37.5 -17.5q-25 -4 -49.5 -5t-48.5 -1zM628 1003q-13 -2 -43 -3t-62 -1q-37 -1 -79 0q-26 1 -38.5 12t-17.5 37q-2 11 -2.5 21t-0.5 21v50l-2 46t-1 46q0 26 12 40
t38 15q32 2 62.5 3.5t61.5 1.5h27.5t27.5 -2q29 -2 42 -15.5t15 -42.5q2 -26 1.5 -51.5t0.5 -51.5q0 -14 1 -27.5t5 -27.5q3 -11 3 -20q0 -20 -13.5 -34t-37.5 -17z" />
    <glyph glyph-name="Yacute" unicode="&#xdd;" horiz-adv-x="723" 
d="M345 -303q-23 0 -45 0.5t-45 1.5q-41 3 -46 46q-1 5 -1 16v16q-1 69 -3.5 137t-2.5 137l2 67q0 16 -4 27q-19 68 -30.5 136.5t-22.5 137.5q-14 76 -27 151.5t-26 151.5q-7 37 -13.5 73t-16.5 72q-2 7 -3 13.5t-1 12.5q0 28 18.5 45t51.5 19l55 1h51h24.5t25.5 -1
q27 -1 37.5 -14.5t15.5 -39.5q10 -60 21 -118t22 -118l44 -251l10 -48q11 19 13.5 37t7.5 35q27 112 49 224.5t55 223.5q3 11 7 22.5t9 21.5q7 14 18 20.5t24 6.5q10 0 15 -2q29 -11 29 -42l-2 -14q-6 -24 -14 -47.5t-13 -48.5q-30 -134 -59 -267t-61 -267
q-17 -65 -26 -126.5t-9 -109.5l1 -42q3 -56 3 -111.5t1 -111.5v-7q0 -32 -14 -46t-47 -17q-39 -3 -78 -3zM537 993q-15 1 -30 1h-30l-32 -1q-13 0 -25.5 1t-25.5 4q-46 9 -46 44q0 7 3 18q15 56 39.5 107t53.5 100q11 19 32 22q23 4 45.5 6.5t45.5 2.5q39 0 75 -10
q43 -12 43 -44q0 -14 -8 -29q-24 -44 -43.5 -89.5t-38.5 -92.5q-15 -40 -58 -40z" />
    <glyph glyph-name="Thorn" unicode="&#xde;" horiz-adv-x="717" 
d="M406 103q36 2 65 15.5t50 35t32.5 51t11.5 64.5v8q-3 56 -10 110.5t-31 107.5q-10 23 -26 35.5t-39 17.5q-20 3 -40 3l-32 -1q-17 0 -28 -3t-17 -9t-8 -17t-2 -28v-34q0 -75 2.5 -147.5t5.5 -146.5q1 -20 0.5 -32.5t2 -19t9 -9t20.5 -2.5zM236 -304q-19 0 -38 1t-39 4
q-30 4 -42.5 17t-15.5 42q-6 59 -11 115.5t-9 112t-6.5 112t-4.5 115.5q-2 47 -4.5 93t-2.5 92v25t1 25q-2 54 -3 106t-1 104q0 46 1 91t5 88q2 14 2 28t2 28q3 27 15.5 40.5t38.5 18.5q16 2 31.5 3.5t31.5 1.5q56 0 112 -15q38 -8 38 -50v-11q-3 -47 -3.5 -91.5t-5.5 -91.5
l-2 -32q0 -17 7.5 -21.5t29.5 -4.5l58 1h20.5t19.5 -2q51 -7 88.5 -32.5t59.5 -75.5q27 -62 37.5 -125.5t10.5 -129.5l-1 -50q-2 -36 -14 -64.5t-32 -52t-46 -42.5t-56 -35q-30 -15 -62 -20.5t-66 -5.5h-10q-11 0 -15 -2.5t-4 -12.5l1 -13q1 -24 2 -46t2 -43t3 -42.5
t6 -45.5q2 -10 4.5 -19t5.5 -19q2 -10 2 -16q0 -20 -12.5 -34t-34.5 -16q-23 -1 -46.5 -2t-47.5 -1z" />
    <glyph glyph-name="germandbls" unicode="&#xdf;" horiz-adv-x="726" 
d="M522 -211q11 0 18 4q20 11 27 29.5t7 39.5v6q-2 48 -12.5 92t-31.5 80q-23 46 -46 91t-46 91q-22 43 -22 87q0 41 20 86q21 48 55 88q16 18 28.5 38t15.5 46q2 26 4.5 51.5t2.5 51.5v5q0 96 -60 173q-13 16 -29 16l-9 -1q-11 -2 -22 -5t-19 -11q-31 -29 -52.5 -63.5
t-22.5 -80.5q-1 -38 -2 -75t-1 -75q0 -43 3 -86q2 -20 3 -39.5t1 -39.5q0 -25 -1 -50l-2 -50v-41q0 -82 4 -162t4 -155v-29l1 -2l3 -1q3 0 4.5 1.5l3.5 3.5q25 20 42 20q31 0 40 -47q7 -28 28 -52q32 -35 63 -35zM199 -304q-22 0 -43.5 0.5t-43.5 1.5q-18 1 -29 11.5
t-15 27.5q-1 5 -1 8.5v7.5v16q2 38 3 86.5t1 99.5q0 48 -1.5 101t-4.5 107l1 193q0 49 -1.5 97.5t-3.5 97.5q-1 11 -1 22v22q0 31 1.5 62t3.5 61q3 65 35.5 114t79.5 88q24 20 53.5 27t59.5 9q42 2 84 2t84 1h4q43 0 74 -34q40 -48 64.5 -100.5t29.5 -115.5q1 -10 1 -19.5
v-19.5q0 -25 -1.5 -49t-3.5 -48q-3 -43 -20 -79t-45 -68q-13 -15 -23 -30.5t-18 -33.5q-13 -25 -13 -52q0 -26 13 -51q23 -46 46.5 -91t45.5 -91q26 -47 38.5 -101.5t12.5 -112.5v-13q-2 -51 -28 -91q-22 -32 -52.5 -48t-64.5 -16q-47 0 -90 31q-31 23 -54.5 51t-40.5 65
q-2 -25 -2.5 -47.5t-2.5 -34.5q-2 -31 -13.5 -43t-41.5 -17q-20 -2 -38.5 -3t-38.5 -1z" />
    <glyph glyph-name="agrave" unicode="&#xe0;" horiz-adv-x="782" 
d="M335 469q0 -48 3 -95t5 -95q0 -13 5 -19t20 -8q12 -1 24 -1.5t24 -0.5q36 0 71.5 3.5t71.5 6.5q14 1 22 3.5t12 7.5t5 14t2 24q0 11 0.5 22.5t0.5 22.5q0 66 -4.5 131t-9.5 131q-3 29 -7.5 57t-11.5 57q-8 33 -24.5 61t-38.5 53q-14 17 -31 22.5t-36 5.5q-8 0 -16 -0.5
t-16 -1.5q-23 -2 -31 -17.5t-15 -31.5q-32 -79 -32 -167q0 -6 0.5 -12t0.5 -12q1 -37 2.5 -73.5t3.5 -74.5v-13zM74 258q-4 97 -7.5 192t-5.5 191q0 4 -0.5 8t-0.5 8q1 57 12.5 111t35.5 106q34 78 116 85q37 4 73.5 5.5t73.5 1.5q48 0 96 -3q34 -2 61 -17.5t49 -41.5
q33 -40 56 -84.5t31 -96.5q14 -88 21.5 -173.5t7.5 -173.5q0 -30 -1 -59.5t-3 -59.5q-2 -27 -3.5 -53.5t-1.5 -53.5q0 -32 2.5 -62.5t7.5 -62.5q3 -41 4.5 -79.5t3.5 -74t6 -67.5t12 -58q2 -8 2 -11q0 -20 -21 -33q-13 -8 -25 -8q-14 0 -28 8q-11 8 -17 19t-8 25
q-3 20 -7 41t-4 42q-1 55 -4.5 99t-7 80.5t-6.5 68t-3 62.5v9q0 20 -19 20h-7q-35 -3 -70.5 -7t-70.5 -4q-25 0 -50 3h-5q-19 0 -19 -23q1 -41 1 -81.5v-82.5l-3 -207q0 -35 -13.5 -50t-48.5 -17q-44 -3 -87 -3q-12 0 -24.5 0.5t-24.5 0.5q-38 1 -54 16.5t-17 54.5
q-1 32 -1 63v63l3 190q0 44 -2 87t-5 87zM396 997q-38 0 -59 1.5t-33.5 10t-21 27.5t-21.5 54q-8 24 -20 47t-22.5 44t-18 38.5t-7.5 31.5t10 24t26 16t37 9t44 3t45.5 -2.5t45.5 -5.5q14 -2 22 -10t15 -19q26 -47 48.5 -94.5t37.5 -98.5l3.5 -14t1.5 -12q0 -36 -49 -45
q-21 -4 -42 -4t-42 -1z" />
    <glyph glyph-name="aacute" unicode="&#xe1;" horiz-adv-x="782" 
d="M335 469q0 -48 3 -95t5 -95q0 -13 5 -19t20 -8q12 -1 24 -1.5t24 -0.5q36 0 71.5 3.5t71.5 6.5q14 1 22 3.5t12 7.5t5 14t2 24q0 11 0.5 22.5t0.5 22.5q0 66 -4.5 131t-9.5 131q-3 29 -7.5 57t-11.5 57q-8 33 -24.5 61t-38.5 53q-14 17 -31 22.5t-36 5.5q-8 0 -16 -0.5
t-16 -1.5q-23 -2 -31 -17.5t-15 -31.5q-32 -79 -32 -167q0 -6 0.5 -12t0.5 -12q1 -37 2.5 -73.5t3.5 -74.5v-13zM74 258q-4 97 -7.5 192t-5.5 191q0 4 -0.5 8t-0.5 8q1 57 12.5 111t35.5 106q34 78 116 85q37 4 73.5 5.5t73.5 1.5q48 0 96 -3q34 -2 61 -17.5t49 -41.5
q33 -40 56 -84.5t31 -96.5q14 -88 21.5 -173.5t7.5 -173.5q0 -30 -1 -59.5t-3 -59.5q-2 -27 -3.5 -53.5t-1.5 -53.5q0 -32 2.5 -62.5t7.5 -62.5q3 -41 4.5 -79.5t3.5 -74t6 -67.5t12 -58q2 -8 2 -11q0 -20 -21 -33q-13 -8 -25 -8q-14 0 -28 8q-11 8 -17 19t-8 25
q-3 20 -7 41t-4 42q-1 55 -4.5 99t-7 80.5t-6.5 68t-3 62.5v9q0 20 -19 20h-7q-35 -3 -70.5 -7t-70.5 -4q-25 0 -50 3h-5q-19 0 -19 -23q1 -41 1 -81.5v-82.5l-3 -207q0 -35 -13.5 -50t-48.5 -17q-44 -3 -87 -3q-12 0 -24.5 0.5t-24.5 0.5q-38 1 -54 16.5t-17 54.5
q-1 32 -1 63v63l3 190q0 44 -2 87t-5 87zM467 997q-15 1 -30 1h-30l-32 -1q-13 0 -25.5 1t-25.5 4q-46 9 -46 44q0 7 3 18q15 56 39.5 107t53.5 100q11 19 32 22q23 4 45.5 6.5t45.5 2.5q39 0 75 -10q43 -12 43 -44q0 -14 -8 -29q-24 -44 -43.5 -89.5t-38.5 -92.5
q-15 -40 -58 -40z" />
    <glyph glyph-name="acircumflex" unicode="&#xe2;" horiz-adv-x="782" 
d="M335 469q0 -48 3 -95t5 -95q0 -13 5 -19t20 -8q12 -1 24 -1.5t24 -0.5q36 0 71.5 3.5t71.5 6.5q14 1 22 3.5t12 7.5t5 14t2 24q0 11 0.5 22.5t0.5 22.5q0 66 -4.5 131t-9.5 131q-3 29 -7.5 57t-11.5 57q-8 33 -24.5 61t-38.5 53q-14 17 -31 22.5t-36 5.5q-8 0 -16 -0.5
t-16 -1.5q-23 -2 -31 -17.5t-15 -31.5q-32 -79 -32 -167q0 -6 0.5 -12t0.5 -12q1 -37 2.5 -73.5t3.5 -74.5v-13zM74 258q-4 97 -7.5 192t-5.5 191q0 4 -0.5 8t-0.5 8q1 57 12.5 111t35.5 106q34 78 116 85q37 4 73.5 5.5t73.5 1.5q48 0 96 -3q34 -2 61 -17.5t49 -41.5
q33 -40 56 -84.5t31 -96.5q14 -88 21.5 -173.5t7.5 -173.5q0 -30 -1 -59.5t-3 -59.5q-2 -27 -3.5 -53.5t-1.5 -53.5q0 -32 2.5 -62.5t7.5 -62.5q3 -41 4.5 -79.5t3.5 -74t6 -67.5t12 -58q2 -8 2 -11q0 -20 -21 -33q-13 -8 -25 -8q-14 0 -28 8q-11 8 -17 19t-8 25
q-3 20 -7 41t-4 42q-1 55 -4.5 99t-7 80.5t-6.5 68t-3 62.5v9q0 20 -19 20h-7q-35 -3 -70.5 -7t-70.5 -4q-25 0 -50 3h-5q-19 0 -19 -23q1 -41 1 -81.5v-82.5l-3 -207q0 -35 -13.5 -50t-48.5 -17q-44 -3 -87 -3q-12 0 -24.5 0.5t-24.5 0.5q-38 1 -54 16.5t-17 54.5
q-1 32 -1 63v63l3 190q0 44 -2 87t-5 87zM202 986q-8 0 -15 3q-28 12 -28 45l1 11l1 4q21 54 39.5 108.5t50.5 104.5q18 27 48 34q17 5 34.5 6.5t34.5 1.5q23 0 46.5 -2.5t46.5 -6.5q13 -2 21.5 -10t14.5 -19q26 -46 49 -93.5t38 -99.5q4 -12 4 -25q0 -41 -53 -46
q-42 -3 -82 -3l-58 1q-38 1 -52 36l-29 70q-3 8 -5.5 17t-14.5 16l-35 -88q-3 -9 -5.5 -17.5t-7.5 -16.5q-16 -31 -44 -31z" />
    <glyph glyph-name="atilde" unicode="&#xe3;" horiz-adv-x="782" 
d="M335 469q0 -48 3 -95t5 -95q0 -13 5 -19t20 -8q12 -1 24 -1.5t24 -0.5q36 0 71.5 3.5t71.5 6.5q14 1 22 3.5t12 7.5t5 14t2 24q0 11 0.5 22.5t0.5 22.5q0 66 -4.5 131t-9.5 131q-3 29 -7.5 57t-11.5 57q-8 33 -24.5 61t-38.5 53q-14 17 -31 22.5t-36 5.5q-8 0 -16 -0.5
t-16 -1.5q-23 -2 -31 -17.5t-15 -31.5q-32 -79 -32 -167q0 -6 0.5 -12t0.5 -12q1 -37 2.5 -73.5t3.5 -74.5v-13zM74 258q-4 97 -7.5 192t-5.5 191q0 4 -0.5 8t-0.5 8q1 57 12.5 111t35.5 106q34 78 116 85q37 4 73.5 5.5t73.5 1.5q48 0 96 -3q34 -2 61 -17.5t49 -41.5
q33 -40 56 -84.5t31 -96.5q14 -88 21.5 -173.5t7.5 -173.5q0 -30 -1 -59.5t-3 -59.5q-2 -27 -3.5 -53.5t-1.5 -53.5q0 -32 2.5 -62.5t7.5 -62.5q3 -41 4.5 -79.5t3.5 -74t6 -67.5t12 -58q2 -8 2 -11q0 -20 -21 -33q-13 -8 -25 -8q-14 0 -28 8q-11 8 -17 19t-8 25
q-3 20 -7 41t-4 42q-1 55 -4.5 99t-7 80.5t-6.5 68t-3 62.5v9q0 20 -19 20h-7q-35 -3 -70.5 -7t-70.5 -4q-25 0 -50 3h-5q-19 0 -19 -23q1 -41 1 -81.5v-82.5l-3 -207q0 -35 -13.5 -50t-48.5 -17q-44 -3 -87 -3q-12 0 -24.5 0.5t-24.5 0.5q-38 1 -54 16.5t-17 54.5
q-1 32 -1 63v63l3 190q0 44 -2 87t-5 87zM427 997q-11 0 -23 2t-24 7l-40 18q-23 10 -39 10q-24 0 -45 -21q-14 -14 -30 -14q-15 0 -28 11q-17 14 -17 35q0 15 7 26q4 9 14 19q15 16 44 27.5t55 11.5q39 -2 79 -23q26 -13 47 -13q24 0 45 17q6 4 15 6q5 2 15 2q12 0 22.5 -6
t16.5 -17t6 -23q0 -18 -16 -31q-24 -20 -49.5 -32t-54.5 -12z" />
    <glyph glyph-name="adieresis" unicode="&#xe4;" horiz-adv-x="782" 
d="M335 469q0 -48 3 -95t5 -95q0 -13 5 -19t20 -8q12 -1 24 -1.5t24 -0.5q36 0 71.5 3.5t71.5 6.5q14 1 22 3.5t12 7.5t5 14t2 24q0 11 0.5 22.5t0.5 22.5q0 66 -4.5 131t-9.5 131q-3 29 -7.5 57t-11.5 57q-8 33 -24.5 61t-38.5 53q-14 17 -31 22.5t-36 5.5q-8 0 -16 -0.5
t-16 -1.5q-23 -2 -31 -17.5t-15 -31.5q-32 -79 -32 -167q0 -6 0.5 -12t0.5 -12q1 -37 2.5 -73.5t3.5 -74.5v-13zM74 258q-4 97 -7.5 192t-5.5 191q0 4 -0.5 8t-0.5 8q1 57 12.5 111t35.5 106q34 78 116 85q37 4 73.5 5.5t73.5 1.5q48 0 96 -3q34 -2 61 -17.5t49 -41.5
q33 -40 56 -84.5t31 -96.5q14 -88 21.5 -173.5t7.5 -173.5q0 -30 -1 -59.5t-3 -59.5q-2 -27 -3.5 -53.5t-1.5 -53.5q0 -32 2.5 -62.5t7.5 -62.5q3 -41 4.5 -79.5t3.5 -74t6 -67.5t12 -58q2 -8 2 -11q0 -20 -21 -33q-13 -8 -25 -8q-14 0 -28 8q-11 8 -17 19t-8 25
q-3 20 -7 41t-4 42q-1 55 -4.5 99t-7 80.5t-6.5 68t-3 62.5v9q0 20 -19 20h-7q-35 -3 -70.5 -7t-70.5 -4q-25 0 -50 3h-5q-19 0 -19 -23q1 -41 1 -81.5v-82.5l-3 -207q0 -35 -13.5 -50t-48.5 -17q-44 -3 -87 -3q-12 0 -24.5 0.5t-24.5 0.5q-38 1 -54 16.5t-17 54.5
q-1 32 -1 63v63l3 190q0 44 -2 87t-5 87zM234 997q-23 0 -45 0.5t-45 1.5q-24 1 -35.5 12.5t-16.5 36.5q-2 14 -3 27t-1 27v9v22.5t-2 22.5v68q0 32 12.5 47t45.5 17q29 2 57 3t57 1h28.5t28.5 -1q29 -2 42 -15.5t15 -42.5q2 -26 1.5 -52t0.5 -52q0 -14 1 -27.5t5 -27.5
q3 -11 3 -20q0 -20 -13.5 -33.5t-37.5 -17.5q-25 -4 -49.5 -5t-48.5 -1zM668 1003q-13 -2 -43 -3t-62 -1q-37 -1 -79 0q-26 1 -38.5 12t-17.5 37q-2 11 -2.5 21t-0.5 21v50l-2 46t-1 46q0 26 12 40t38 15q32 2 62.5 3.5t61.5 1.5h27.5t27.5 -2q29 -2 42 -15.5t15 -42.5
q2 -26 1.5 -51.5t0.5 -51.5q0 -14 1 -27.5t5 -27.5q3 -11 3 -20q0 -20 -13.5 -34t-37.5 -17z" />
    <glyph glyph-name="aring" unicode="&#xe5;" horiz-adv-x="782" 
d="M335 469q0 -48 3 -95t5 -95q0 -13 5 -19t20 -8q12 -1 24 -1.5t24 -0.5q36 0 71.5 3.5t71.5 6.5q14 1 22 3.5t12 7.5t5 14t2 24q0 11 0.5 22.5t0.5 22.5q0 66 -4.5 131t-9.5 131q-3 29 -7.5 57t-11.5 57q-8 33 -24.5 61t-38.5 53q-14 17 -31 22.5t-36 5.5q-8 0 -16 -0.5
t-16 -1.5q-23 -2 -31 -17.5t-15 -31.5q-32 -79 -32 -167q0 -6 0.5 -12t0.5 -12q1 -37 2.5 -73.5t3.5 -74.5v-13zM74 258q-4 97 -7.5 192t-5.5 191q0 4 -0.5 8t-0.5 8q1 57 12.5 111t35.5 106q34 78 116 85q37 4 73.5 5.5t73.5 1.5q48 0 96 -3q34 -2 61 -17.5t49 -41.5
q33 -40 56 -84.5t31 -96.5q14 -88 21.5 -173.5t7.5 -173.5q0 -30 -1 -59.5t-3 -59.5q-2 -27 -3.5 -53.5t-1.5 -53.5q0 -32 2.5 -62.5t7.5 -62.5q3 -41 4.5 -79.5t3.5 -74t6 -67.5t12 -58q2 -8 2 -11q0 -20 -21 -33q-13 -8 -25 -8q-14 0 -28 8q-11 8 -17 19t-8 25
q-3 20 -7 41t-4 42q-1 55 -4.5 99t-7 80.5t-6.5 68t-3 62.5v9q0 20 -19 20h-7q-35 -3 -70.5 -7t-70.5 -4q-25 0 -50 3h-5q-19 0 -19 -23q1 -41 1 -81.5v-82.5l-3 -207q0 -35 -13.5 -50t-48.5 -17q-44 -3 -87 -3q-12 0 -24.5 0.5t-24.5 0.5q-38 1 -54 16.5t-17 54.5
q-1 32 -1 63v63l3 190q0 44 -2 87t-5 87zM444 1097q7 0 11 10q5 14 5.5 27.5t2.5 27.5l1 12q-1 5 -1 11t-8 8h-1q-7 0 -9.5 -5.5t-4.5 -10.5q-3 -13 -5 -26t-2 -26l1 -14q0 -5 1.5 -9.5t7.5 -4.5h1zM259 998q-30 1 -54.5 21t-30.5 52q-6 30 -6 60q0 35 9.5 69t32.5 66
q11 17 27 26.5t37 9.5h166q24 0 45 -8.5t36.5 -23.5t25 -35.5t10.5 -44.5v-11q0 -23 -3 -46t-8 -46q-20 -86 -112 -89l-87 -1z" />
    <glyph glyph-name="ae" unicode="&#xe6;" horiz-adv-x="1071" 
d="M415 240q36 0 72 3.5t71 6.5q15 1 23 3.5t12 7.5t5 14t1 24l1 52q0 64 -4.5 127.5t-9.5 127.5q-2 29 -7 57t-12 57q-8 33 -24.5 60.5t-37.5 53.5q-14 17 -31 22.5t-36 5.5q-8 0 -16 -0.5t-16 -1.5q-23 -2 -31 -17t-15 -32q-17 -42 -24.5 -84.5t-7.5 -87.5v-19
q2 -37 3.5 -74t3.5 -75v-25q0 -44 2.5 -88t4.5 -89q1 -14 6 -20t19 -7q12 -1 24 -1.5t24 -0.5zM152 -302q-38 1 -54 16.5t-17 54.5q-1 27 -1 53.5v53.5l1 172q0 50 -2 99.5t-6 99.5q-3 97 -7 192t-6 192v15q0 57 11.5 111.5t35.5 106.5q34 78 116 85q78 7 167.5 7t171.5 1
h25q53 0 105 0.5t104 0.5q40 0 79 -0.5t78 -2.5l14 -2t13 -3q14 -5 22.5 -16.5t8.5 -25.5v-4q-5 -32 -36 -39q-5 -1 -11 -1.5t-11 -0.5h-6h-20q-11 0 -26 0.5t-38 0.5h-53t-68 -1q-15 0 -32 -0.5t-32.5 -0.5t-27.5 -0.5t-18 -0.5q-19 0 -19 -17q19 -30 32 -62.5t18 -69.5
q13 -81 20.5 -161.5t8.5 -162.5l1 -26l-1 -32v-9.5t-1 -9.5v-20q0 -14 0.5 -21.5t4.5 -11.5t11.5 -6t22.5 -3q8 -1 16.5 -1h17.5h48q8 0 16.5 -0.5t16.5 -3.5q34 -13 34 -46q0 -7 -1 -11q-3 -15 -14.5 -25.5t-27.5 -10.5l-9 1q-10 2 -19.5 2.5t-19.5 0.5h-38h-12.5t-13.5 1
h-8q-14 0 -19.5 -6t-5.5 -21v-5q3 -41 3 -91l-1 -88q5 -38 6 -77.5t7 -78.5l9 -1l226 5q15 0 26 -4q30 -13 30 -43q0 -29 -28 -40q-10 -5 -21 -6l-22 -2l-262 -3q-12 0 -26 8q-11 8 -17 19t-8 25q-3 20 -7 41t-4 42q0 31 -1.5 69.5t-4 79t-4 79.5t-1.5 70v7q0 14 -5 18.5
t-16 4.5h-5q-35 -3 -71 -7t-71 -4q-25 0 -50 3h-5q-18 0 -18 -23v-86v-91.5t0.5 -91.5t0.5 -86q0 -38 -12.5 -54t-50.5 -18q-44 -3 -86 -3z" />
    <glyph glyph-name="ccedilla" unicode="&#xe7;" horiz-adv-x="757" 
d="M234 -299q-44 7 -72 36q-37 37 -49 91q-10 45 -18.5 90t-15.5 91q-18 130 -18 284v31q-1 13 -1 25.5v25.5l1 111q0 27 0.5 54t1.5 53q15 169 111 305q42 64 118 64h93l50 -1q97 -3 165 -70q48 -43 58 -107l1 -14q0 -17 -4 -29q-13 -37 -44 -37h-6q-38 5 -38 42v6
q0 44 -25 68q-26 24 -61 39q-19 8 -31 8q-20 0 -37 -29q-86 -128 -92 -281l-1 -164q0 -174 9 -289q6 -63 16.5 -124.5t24.5 -124.5q2 -8 4 -14q0 -4 1 -5q16 -43 50 -43q12 0 29 6q63 22 103 67q40 43 46 120l1 34q0 58 -9 114q0 5 -1 7q-1 8 -1.5 17t-0.5 17v9t1 9
q10 42 44 42h2q17 0 28 -10q12 -11 15 -30q3 -23 6 -45t5 -44q2 -23 3 -45t1 -45q0 -17 -1 -34t-3 -34q-10 -94 -82 -160q-44 -41 -95 -65q-10 -5 -25 -10q1 -2 1 -3.5t1 -3.5q1 -12 8 -19q4 -6 18 -11q40 -14 58 -44q19 -31 19 -76v-10q-6 -92 -93 -115q-16 -4 -31.5 -6.5
t-31.5 -3.5l-29 -1l-58 1q-27 3 -53 3q-18 0 -36 1.5t-35 5.5q-29 4 -52 27q-17 17 -17 36q0 15 11 29q17 20 39 20q13 0 25 -9q19 -13 38 -13l40 1q16 0 20 19q2 10 2 17q0 10 -6 21q-5 5 -10 5q-7 0 -10 -1q-1 -1 -2 -1l-20 -2q-28 0 -38 15q-11 13 -13 46q-1 12 -1.5 24
t-0.5 24v12v0z" />
    <glyph glyph-name="egrave" unicode="&#xe8;" horiz-adv-x="714" 
d="M130 -313q-36 0 -50.5 12.5t-15.5 50.5q-1 17 -1.5 34.5t-0.5 34.5l1 39l2 115q0 55 -2.5 109.5t-2.5 109.5q0 44 3 89v64q3 70 5.5 139.5t2.5 137.5q0 65 -3 131l-1 55q0 23 0.5 44.5t1.5 44.5q2 29 13 41.5t40 16.5q40 6 84 6h23q51 0 100 0.5t100 0.5q84 0 167 -3
l14 -2t14 -3q14 -5 22 -16t8 -24v-6q-4 -31 -35 -39q-5 -1 -10.5 -1.5t-10.5 -0.5h-7q-12 1 -23.5 1h-23.5q-28 0 -56 -1l-56 -2l-24 2q-12 0 -24 -1t-24 -1q-20 0 -20 -19l-1 -48q2 -54 3.5 -108t1.5 -109q0 -66 -2 -132.5t-6 -120.5q-1 -11 -1 -22v-22v-14q0 -9 1 -14
t5 -8t11.5 -4t20.5 -1l23 -1l45 1q12 0 24 -0.5t24 -4.5q16 -5 24.5 -17.5t8.5 -26.5q0 -8 -1 -12q-3 -15 -14.5 -25.5t-26.5 -10.5l-9 1q-10 2 -19 2.5t-19 0.5l-46 -1h-30q-13 0 -17.5 -5.5t-4.5 -18.5v-8q2 -21 2 -41.5v-41.5q0 -43 -0.5 -75t-1 -56.5t-1 -44t-0.5 -38.5
q0 -21 3 -27.5t18 -6.5l230 11q14 0 25 -4q30 -11 30 -41v-2q0 -27 -27 -40q-11 -5 -21.5 -6t-21.5 -1q-63 -2 -124.5 -6t-123.5 -4q-6 0 -16 -0.5t-21 -0.5h-25q-32 0 -64.5 -2.5t-65.5 -2.5zM343 997q-38 0 -59 1.5t-33.5 10t-21 27.5t-21.5 54q-8 24 -20 47t-22.5 44
t-18 38.5t-7.5 31.5t10 24t26 16t37 9t44 3t45.5 -2.5t45.5 -5.5q14 -2 22 -10t15 -19q26 -47 48.5 -94.5t37.5 -98.5l3.5 -14t1.5 -12q0 -36 -49 -45q-21 -4 -42 -4t-42 -1z" />
    <glyph glyph-name="eacute" unicode="&#xe9;" horiz-adv-x="714" 
d="M130 -313q-36 0 -50.5 12.5t-15.5 50.5q-1 17 -1.5 34.5t-0.5 34.5l1 39l2 115q0 55 -2.5 109.5t-2.5 109.5q0 44 3 89v64q3 70 5.5 139.5t2.5 137.5q0 65 -3 131l-1 55q0 23 0.5 44.5t1.5 44.5q2 29 13 41.5t40 16.5q40 6 84 6h23q51 0 100 0.5t100 0.5q84 0 167 -3
l14 -2t14 -3q14 -5 22 -16t8 -24v-6q-4 -31 -35 -39q-5 -1 -10.5 -1.5t-10.5 -0.5h-7q-12 1 -23.5 1h-23.5q-28 0 -56 -1l-56 -2l-24 2q-12 0 -24 -1t-24 -1q-20 0 -20 -19l-1 -48q2 -54 3.5 -108t1.5 -109q0 -66 -2 -132.5t-6 -120.5q-1 -11 -1 -22v-22v-14q0 -9 1 -14
t5 -8t11.5 -4t20.5 -1l23 -1l45 1q12 0 24 -0.5t24 -4.5q16 -5 24.5 -17.5t8.5 -26.5q0 -8 -1 -12q-3 -15 -14.5 -25.5t-26.5 -10.5l-9 1q-10 2 -19 2.5t-19 0.5l-46 -1h-30q-13 0 -17.5 -5.5t-4.5 -18.5v-8q2 -21 2 -41.5v-41.5q0 -43 -0.5 -75t-1 -56.5t-1 -44t-0.5 -38.5
q0 -21 3 -27.5t18 -6.5l230 11q14 0 25 -4q30 -11 30 -41v-2q0 -27 -27 -40q-11 -5 -21.5 -6t-21.5 -1q-63 -2 -124.5 -6t-123.5 -4q-6 0 -16 -0.5t-21 -0.5h-25q-32 0 -64.5 -2.5t-65.5 -2.5zM413 997q-15 1 -30 1h-30l-32 -1q-13 0 -25.5 1t-25.5 4q-46 9 -46 44q0 7 3 18
q15 56 39.5 107t53.5 100q11 19 32 22q23 4 45.5 6.5t45.5 2.5q39 0 75 -10q43 -12 43 -44q0 -14 -8 -29q-24 -44 -43.5 -89.5t-38.5 -92.5q-15 -40 -58 -40z" />
    <glyph glyph-name="ecircumflex" unicode="&#xea;" horiz-adv-x="714" 
d="M130 -313q-36 0 -50.5 12.5t-15.5 50.5q-1 17 -1.5 34.5t-0.5 34.5l1 39l2 115q0 55 -2.5 109.5t-2.5 109.5q0 44 3 89v64q3 70 5.5 139.5t2.5 137.5q0 65 -3 131l-1 55q0 23 0.5 44.5t1.5 44.5q2 29 13 41.5t40 16.5q40 6 84 6h23q51 0 100 0.5t100 0.5q84 0 167 -3
l14 -2t14 -3q14 -5 22 -16t8 -24v-6q-4 -31 -35 -39q-5 -1 -10.5 -1.5t-10.5 -0.5h-7q-12 1 -23.5 1h-23.5q-28 0 -56 -1l-56 -2l-24 2q-12 0 -24 -1t-24 -1q-20 0 -20 -19l-1 -48q2 -54 3.5 -108t1.5 -109q0 -66 -2 -132.5t-6 -120.5q-1 -11 -1 -22v-22v-14q0 -9 1 -14
t5 -8t11.5 -4t20.5 -1l23 -1l45 1q12 0 24 -0.5t24 -4.5q16 -5 24.5 -17.5t8.5 -26.5q0 -8 -1 -12q-3 -15 -14.5 -25.5t-26.5 -10.5l-9 1q-10 2 -19 2.5t-19 0.5l-46 -1h-30q-13 0 -17.5 -5.5t-4.5 -18.5v-8q2 -21 2 -41.5v-41.5q0 -43 -0.5 -75t-1 -56.5t-1 -44t-0.5 -38.5
q0 -21 3 -27.5t18 -6.5l230 11q14 0 25 -4q30 -11 30 -41v-2q0 -27 -27 -40q-11 -5 -21.5 -6t-21.5 -1q-63 -2 -124.5 -6t-123.5 -4q-6 0 -16 -0.5t-21 -0.5h-25q-32 0 -64.5 -2.5t-65.5 -2.5zM192 986q-8 0 -15 3q-28 12 -28 45l1 11l1 4q21 54 39.5 108.5t50.5 104.5
q18 27 48 34q17 5 34.5 6.5t34.5 1.5q23 0 46.5 -2.5t46.5 -6.5q13 -2 21.5 -10t14.5 -19q26 -46 49 -93.5t38 -99.5q4 -12 4 -25q0 -41 -53 -46q-42 -3 -82 -3l-58 1q-38 1 -52 36l-29 70q-3 8 -5.5 17t-14.5 16l-35 -88q-3 -9 -5.5 -17.5t-7.5 -16.5q-16 -31 -44 -31z" />
    <glyph glyph-name="edieresis" unicode="&#xeb;" horiz-adv-x="714" 
d="M130 -313q-36 0 -50.5 12.5t-15.5 50.5q-1 17 -1.5 34.5t-0.5 34.5l1 39l2 115q0 55 -2.5 109.5t-2.5 109.5q0 44 3 89v64q3 70 5.5 139.5t2.5 137.5q0 65 -3 131l-1 55q0 23 0.5 44.5t1.5 44.5q2 29 13 41.5t40 16.5q40 6 84 6h23q51 0 100 0.5t100 0.5q84 0 167 -3
l14 -2t14 -3q14 -5 22 -16t8 -24v-6q-4 -31 -35 -39q-5 -1 -10.5 -1.5t-10.5 -0.5h-7q-12 1 -23.5 1h-23.5q-28 0 -56 -1l-56 -2l-24 2q-12 0 -24 -1t-24 -1q-20 0 -20 -19l-1 -48q2 -54 3.5 -108t1.5 -109q0 -66 -2 -132.5t-6 -120.5q-1 -11 -1 -22v-22v-14q0 -9 1 -14
t5 -8t11.5 -4t20.5 -1l23 -1l45 1q12 0 24 -0.5t24 -4.5q16 -5 24.5 -17.5t8.5 -26.5q0 -8 -1 -12q-3 -15 -14.5 -25.5t-26.5 -10.5l-9 1q-10 2 -19 2.5t-19 0.5l-46 -1h-30q-13 0 -17.5 -5.5t-4.5 -18.5v-8q2 -21 2 -41.5v-41.5q0 -43 -0.5 -75t-1 -56.5t-1 -44t-0.5 -38.5
q0 -21 3 -27.5t18 -6.5l230 11q14 0 25 -4q30 -11 30 -41v-2q0 -27 -27 -40q-11 -5 -21.5 -6t-21.5 -1q-63 -2 -124.5 -6t-123.5 -4q-6 0 -16 -0.5t-21 -0.5h-25q-32 0 -64.5 -2.5t-65.5 -2.5zM194 997q-23 0 -45 0.5t-45 1.5q-24 1 -35.5 12.5t-16.5 36.5q-2 14 -3 27
t-1 27v9v22.5t-2 22.5v68q0 32 12.5 47t45.5 17q29 2 57 3t57 1h28.5t28.5 -1q29 -2 42 -15.5t15 -42.5q2 -26 1.5 -52t0.5 -52q0 -14 1 -27.5t5 -27.5q3 -11 3 -20q0 -20 -13.5 -33.5t-37.5 -17.5q-25 -4 -49.5 -5t-48.5 -1zM628 1003q-13 -2 -43 -3t-62 -1q-37 -1 -79 0
q-26 1 -38.5 12t-17.5 37q-2 11 -2.5 21t-0.5 21v50l-2 46t-1 46q0 26 12 40t38 15q32 2 62.5 3.5t61.5 1.5h27.5t27.5 -2q29 -2 42 -15.5t15 -42.5q2 -26 1.5 -51.5t0.5 -51.5q0 -14 1 -27.5t5 -27.5q3 -11 3 -20q0 -20 -13.5 -34t-37.5 -17z" />
    <glyph glyph-name="igrave" unicode="&#xec;" horiz-adv-x="403" 
d="M164 -303q-11 0 -21.5 2.5t-21.5 5.5q-38 11 -40 53q-8 148 -14.5 293.5t-6.5 293.5q0 55 1 111t4 117q4 78 3.5 154t1.5 154q1 45 17 62t58 17l128 -5q32 -3 44.5 -16t12.5 -45v-27q0 -42 1 -83t1 -82q0 -11 -1 -36t-2 -58t-3 -70t-3 -72t-2 -64t-1 -46q0 -41 1 -81
t4 -80q1 -8 1 -31v-48v-62q0 -53 4.5 -105t9.5 -106q3 -27 3 -54l-1 -30q-4 -54 -58 -58q-30 -2 -60 -3t-60 -1zM203 997q-38 0 -59 1.5t-33.5 10t-21 27.5t-21.5 54q-8 24 -20 47t-22.5 44t-18 38.5t-7.5 31.5t10 24t26 16t37 9t44 3t45.5 -2.5t45.5 -5.5q14 -2 22 -10
t15 -19q26 -47 48.5 -94.5t37.5 -98.5l3.5 -14t1.5 -12q0 -36 -49 -45q-21 -4 -42 -4t-42 -1z" />
    <glyph glyph-name="iacute" unicode="&#xed;" horiz-adv-x="403" 
d="M164 -303q-11 0 -21.5 2.5t-21.5 5.5q-38 11 -40 53q-8 148 -14.5 293.5t-6.5 293.5q0 55 1 111t4 117q4 78 3.5 154t1.5 154q1 45 17 62t58 17l128 -5q32 -3 44.5 -16t12.5 -45v-27q0 -42 1 -83t1 -82q0 -11 -1 -36t-2 -58t-3 -70t-3 -72t-2 -64t-1 -46q0 -41 1 -81
t4 -80q1 -8 1 -31v-48v-62q0 -53 4.5 -105t9.5 -106q3 -27 3 -54l-1 -30q-4 -54 -58 -58q-30 -2 -60 -3t-60 -1zM270 997q-15 1 -30 1h-30l-32 -1q-13 0 -25.5 1t-25.5 4q-46 9 -46 44q0 7 3 18q15 56 39.5 107t53.5 100q11 19 32 22q23 4 45.5 6.5t45.5 2.5q39 0 75 -10
q43 -12 43 -44q0 -14 -8 -29q-24 -44 -43.5 -89.5t-38.5 -92.5q-15 -40 -58 -40z" />
    <glyph glyph-name="icircumflex" unicode="&#xee;" horiz-adv-x="403" 
d="M164 -303q-11 0 -21.5 2.5t-21.5 5.5q-38 11 -40 53q-8 148 -14.5 293.5t-6.5 293.5q0 55 1 111t4 117q4 78 3.5 154t1.5 154q1 45 17 62t58 17l128 -5q32 -3 44.5 -16t12.5 -45v-27q0 -42 1 -83t1 -82q0 -11 -1 -36t-2 -58t-3 -70t-3 -72t-2 -64t-1 -46q0 -41 1 -81
t4 -80q1 -8 1 -31v-48v-62q0 -53 4.5 -105t9.5 -106q3 -27 3 -54l-1 -30q-4 -54 -58 -58q-30 -2 -60 -3t-60 -1zM32 986q-8 0 -15 3q-28 12 -28 45l1 11l1 4q21 54 39.5 108.5t50.5 104.5q18 27 48 34q17 5 34.5 6.5t34.5 1.5q23 0 46.5 -2.5t46.5 -6.5q13 -2 21.5 -10
t14.5 -19q26 -46 49 -93.5t38 -99.5q4 -12 4 -25q0 -41 -53 -46q-42 -3 -82 -3l-58 1q-38 1 -52 36l-29 70q-3 8 -5.5 17t-14.5 16l-35 -88q-3 -9 -5.5 -17.5t-7.5 -16.5q-16 -31 -44 -31z" />
    <glyph glyph-name="idieresis" unicode="&#xef;" horiz-adv-x="403" 
d="M164 -303q-11 0 -21.5 2.5t-21.5 5.5q-38 11 -40 53q-8 148 -14.5 293.5t-6.5 293.5q0 55 1 111t4 117q4 78 3.5 154t1.5 154q1 45 17 62t58 17l128 -5q32 -3 44.5 -16t12.5 -45v-27q0 -42 1 -83t1 -82q0 -11 -1 -36t-2 -58t-3 -70t-3 -72t-2 -64t-1 -46q0 -41 1 -81
t4 -80q1 -8 1 -31v-48v-62q0 -53 4.5 -105t9.5 -106q3 -27 3 -54l-1 -30q-4 -54 -58 -58q-30 -2 -60 -3t-60 -1zM44 997q-23 0 -45 0.5t-45 1.5q-24 1 -35.5 12.5t-16.5 36.5q-2 14 -3 27t-1 27v9v22.5t-2 22.5v68q0 32 12.5 47t45.5 17q29 2 57 3t57 1h28.5t28.5 -1
q29 -2 42 -15.5t15 -42.5q2 -26 1.5 -52t0.5 -52q0 -14 1 -27.5t5 -27.5q3 -11 3 -20q0 -20 -13.5 -33.5t-37.5 -17.5q-25 -4 -49.5 -5t-48.5 -1zM478 1003q-13 -2 -43 -3t-62 -1q-37 -1 -79 0q-26 1 -38.5 12t-17.5 37q-2 11 -2.5 21t-0.5 21v50l-2 46t-1 46q0 26 12 40
t38 15q32 2 62.5 3.5t61.5 1.5h27.5t27.5 -2q29 -2 42 -15.5t15 -42.5q2 -26 1.5 -51.5t0.5 -51.5q0 -14 1 -27.5t5 -27.5q3 -11 3 -20q0 -20 -13.5 -34t-37.5 -17z" />
    <glyph glyph-name="eth" unicode="&#xf0;" 
d="M442 -205q21 0 39 30q14 26 21 52q70 222 75 459v7q0 63 -5.5 122.5t-16.5 118.5q-11 58 -26.5 115.5t-34.5 114.5q-2 5 -4 9t-4 9q-20 27 -45 27q-23 0 -42 -22q-32 -47 -42 -99q-37 -169 -42 -344q-1 -20 -1.5 -40t-0.5 -40q0 -57 4 -112t12 -109t19.5 -106.5
t26.5 -104.5q10 -35 28 -62q19 -25 39 -25zM550 904q21 -24 32 -61q29 -88 49 -176.5t31 -181.5v-2q4 -29 6 -58t2 -58v-22q-6 -260 -81 -498q-5 -17 -11 -32.5t-14 -30.5q-35 -71 -112 -81q-50 -6 -99 -6l-88 1q-21 0 -40 11q-18 11 -34 25q-49 52 -65 118q-66 222 -66 466
q0 48 3 98q4 89 15 175.5t31 172.5q23 89 80 155q22 30 60 35q54 6 109 6q47 0 95 -9q-10 10 -19.5 20t-19.5 20l-18 18t-17 18l-22 23q-6 6 -12 6t-12 -7l-44 -52q-12 -16 -31 -25q-9 -3 -17 -3q-17 0 -30 12t-13 31v2q0 10 6 21q4 10 12 18q13 16 25.5 31.5t26.5 29.5
q10 10 10 17q0 4 -14 23q-8 9 -17.5 18.5t-22.5 19.5q-34 25 -34 53q0 11 11 30q10 17 42 43q16 13 32 13q17 0 37 -15q11 -9 22.5 -19t22.5 -21q7 -6 12.5 -11t10.5 -9q9 -9 13 -9q15 0 41 29q7 6 13 13q13 13 28 25q19 15 36 15q18 0 32 -15q11 -13 11 -29q0 -19 -16 -36
q-8 -9 -16.5 -17.5t-18.5 -16.5q-6 -5 -12 -11l-11 -11l-8.5 -8.5l-5.5 -5.5q-5 -7 -5 -11q0 -5 4 -9q2 -3 5 -6.5t8 -8.5l108 -113q27 -26 27 -49q0 -22 -27 -49q-23 -23 -36 -29z" />
    <glyph glyph-name="ntilde" unicode="&#xf1;" horiz-adv-x="768" 
d="M320 -303q-48 0 -94.5 1t-93.5 2q-39 0 -50 38q-6 18 -6 36q-2 31 -5 61.5t-3 61.5q0 24 -1 58.5t-1.5 73t-1.5 79t-2 76.5t-1.5 65.5t-0.5 46.5v16l1 47q2 54 2.5 106.5t0.5 106.5v97t-2 93v20q0 25 1 49.5t1 49.5v23q0 23 13.5 37t37.5 16q40 3 82 3q29 0 57 -1t57 -3
q25 -2 36.5 -13t14.5 -34q23 -156 65.5 -308.5t85.5 -307.5q16 -58 32.5 -115t33.5 -115q2 -8 5 -15t6 -15q2 10 3 19.5t1 18.5q0 15 -1 29.5t-3 28.5q-8 114 -15 227t-7 228l-1 180q0 30 0.5 59.5t2.5 55.5q1 10 1 20t2 20q4 19 16 29t29 10h2q18 -2 29.5 -13.5t12.5 -31.5
l-1 -88q-1 -37 -1 -77v-81q0 -106 3 -210.5t11 -210.5q9 -119 17.5 -235.5t14.5 -228.5q1 -6 1.5 -12t0.5 -12q-3 -49 -46 -58l-15 -2q-31 0 -47 33q-11 21 -20 43t-19 45q-37 86 -62 182t-54 193q-22 73 -42 146l-40 146q-2 6 -3.5 11.5t-6.5 9.5q-4 -1 -4 -7v-26
q0 -54 -1 -105.5t-1 -97.5q0 -9 0.5 -40t1 -73.5t1 -92t2 -96t3 -85.5t3.5 -60q2 -17 2.5 -34t4.5 -34l2 -15q0 -20 -12 -31.5t-35 -12.5zM452 997q-11 0 -23 2t-24 7l-40 18q-23 10 -39 10q-24 0 -45 -21q-14 -14 -30 -14q-15 0 -28 11q-17 14 -17 35q0 15 7 26q4 9 14 19
q15 16 44 27.5t55 11.5q39 -2 79 -23q26 -13 47 -13q24 0 45 17q6 4 15 6q5 2 15 2q12 0 22.5 -6t16.5 -17t6 -23q0 -18 -16 -31q-24 -20 -49.5 -32t-54.5 -12z" />
    <glyph glyph-name="ograve" unicode="&#xf2;" 
d="M442 -205q22 0 39 30q7 13 11.5 25.5t9.5 26.5q36 112 53.5 226t21.5 233v7q0 125 -22.5 240.5t-60.5 230.5q-2 5 -4 9t-4 9q-17 27 -45 27q-11 0 -22.5 -5.5t-19.5 -16.5q-17 -23 -26 -48t-16 -51q-21 -85 -29 -170.5t-13 -173.5q-2 -20 -2 -40v-40q0 -115 16 -221
t46 -211q5 -17 11 -32.5t17 -29.5q19 -25 39 -25zM265 -302q-23 0 -40.5 10.5t-33.5 25.5q-26 25 -40.5 55t-24.5 63q-33 114 -49.5 228.5t-16.5 237.5q0 48 3 98q5 89 15 175.5t31 172.5q23 89 80 155q12 15 26 24t34 11l54 4t55 2q32 0 63 -3.5t62 -12.5q39 -11 63 -37
t36 -64q28 -88 49.5 -176.5t30.5 -181.5q3 -30 5.5 -59.5t2.5 -58.5v-22q-5 -131 -23.5 -254.5t-57.5 -243.5q-5 -17 -11 -32.5t-14 -30.5q-33 -70 -112 -81q-25 -4 -49.5 -5t-49.5 -1zM352 993q-38 0 -59 1.5t-33.5 10t-21 27.5t-21.5 54q-8 24 -20 47t-22.5 44t-18 38.5
t-7.5 31.5t10 24t26 16t37 9t44 3t45.5 -2.5t45.5 -5.5q14 -2 22 -10t15 -19q26 -47 48.5 -94.5t37.5 -98.5l3.5 -14t1.5 -12q0 -36 -49 -45q-21 -4 -42 -4t-42 -1z" />
    <glyph glyph-name="oacute" unicode="&#xf3;" 
d="M442 -205q22 0 39 30q7 13 11.5 25.5t9.5 26.5q36 112 53.5 226t21.5 233v7q0 125 -22.5 240.5t-60.5 230.5q-2 5 -4 9t-4 9q-17 27 -45 27q-11 0 -22.5 -5.5t-19.5 -16.5q-17 -23 -26 -48t-16 -51q-21 -85 -29 -170.5t-13 -173.5q-2 -20 -2 -40v-40q0 -115 16 -221
t46 -211q5 -17 11 -32.5t17 -29.5q19 -25 39 -25zM265 -302q-23 0 -40.5 10.5t-33.5 25.5q-26 25 -40.5 55t-24.5 63q-33 114 -49.5 228.5t-16.5 237.5q0 48 3 98q5 89 15 175.5t31 172.5q23 89 80 155q12 15 26 24t34 11l54 4t55 2q32 0 63 -3.5t62 -12.5q39 -11 63 -37
t36 -64q28 -88 49.5 -176.5t30.5 -181.5q3 -30 5.5 -59.5t2.5 -58.5v-22q-5 -131 -23.5 -254.5t-57.5 -243.5q-5 -17 -11 -32.5t-14 -30.5q-33 -70 -112 -81q-25 -4 -49.5 -5t-49.5 -1zM427 993q-15 1 -30 1h-30l-32 -1q-13 0 -25.5 1t-25.5 4q-46 9 -46 44q0 7 3 18
q15 56 39.5 107t53.5 100q11 19 32 22q23 4 45.5 6.5t45.5 2.5q39 0 75 -10q43 -12 43 -44q0 -14 -8 -29q-24 -44 -43.5 -89.5t-38.5 -92.5q-15 -40 -58 -40z" />
    <glyph glyph-name="ocircumflex" unicode="&#xf4;" 
d="M442 -205q22 0 39 30q7 13 11.5 25.5t9.5 26.5q36 112 53.5 226t21.5 233v7q0 125 -22.5 240.5t-60.5 230.5q-2 5 -4 9t-4 9q-17 27 -45 27q-11 0 -22.5 -5.5t-19.5 -16.5q-17 -23 -26 -48t-16 -51q-21 -85 -29 -170.5t-13 -173.5q-2 -20 -2 -40v-40q0 -115 16 -221
t46 -211q5 -17 11 -32.5t17 -29.5q19 -25 39 -25zM265 -302q-23 0 -40.5 10.5t-33.5 25.5q-26 25 -40.5 55t-24.5 63q-33 114 -49.5 228.5t-16.5 237.5q0 48 3 98q5 89 15 175.5t31 172.5q23 89 80 155q12 15 26 24t34 11l54 4t55 2q32 0 63 -3.5t62 -12.5q39 -11 63 -37
t36 -64q28 -88 49.5 -176.5t30.5 -181.5q3 -30 5.5 -59.5t2.5 -58.5v-22q-5 -131 -23.5 -254.5t-57.5 -243.5q-5 -17 -11 -32.5t-14 -30.5q-33 -70 -112 -81q-25 -4 -49.5 -5t-49.5 -1zM192 986q-8 0 -15 3q-28 12 -28 45l1 11l1 4q21 54 39.5 108.5t50.5 104.5q18 27 48 34
q17 5 34.5 6.5t34.5 1.5q23 0 46.5 -2.5t46.5 -6.5q13 -2 21.5 -10t14.5 -19q26 -46 49 -93.5t38 -99.5q4 -12 4 -25q0 -41 -53 -46q-42 -3 -82 -3l-58 1q-38 1 -52 36l-29 70q-3 8 -5.5 17t-14.5 16l-35 -88q-3 -9 -5.5 -17.5t-7.5 -16.5q-16 -31 -44 -31z" />
    <glyph glyph-name="otilde" unicode="&#xf5;" 
d="M442 -205q22 0 39 30q7 13 11.5 25.5t9.5 26.5q36 112 53.5 226t21.5 233v7q0 125 -22.5 240.5t-60.5 230.5q-2 5 -4 9t-4 9q-17 27 -45 27q-11 0 -22.5 -5.5t-19.5 -16.5q-17 -23 -26 -48t-16 -51q-21 -85 -29 -170.5t-13 -173.5q-2 -20 -2 -40v-40q0 -115 16 -221
t46 -211q5 -17 11 -32.5t17 -29.5q19 -25 39 -25zM265 -302q-23 0 -40.5 10.5t-33.5 25.5q-26 25 -40.5 55t-24.5 63q-33 114 -49.5 228.5t-16.5 237.5q0 48 3 98q5 89 15 175.5t31 172.5q23 89 80 155q12 15 26 24t34 11l54 4t55 2q32 0 63 -3.5t62 -12.5q39 -11 63 -37
t36 -64q28 -88 49.5 -176.5t30.5 -181.5q3 -30 5.5 -59.5t2.5 -58.5v-22q-5 -131 -23.5 -254.5t-57.5 -243.5q-5 -17 -11 -32.5t-14 -30.5q-33 -70 -112 -81q-25 -4 -49.5 -5t-49.5 -1zM445 997q-11 0 -23 2t-24 7l-40 18q-23 10 -39 10q-24 0 -45 -21q-14 -14 -30 -14
q-15 0 -28 11q-17 14 -17 35q0 15 7 26q4 9 14 19q15 16 44 27.5t55 11.5q39 -2 79 -23q26 -13 47 -13q24 0 45 17q6 4 15 6q5 2 15 2q12 0 22.5 -6t16.5 -17t6 -23q0 -18 -16 -31q-24 -20 -49.5 -32t-54.5 -12z" />
    <glyph glyph-name="odieresis" unicode="&#xf6;" 
d="M442 -205q22 0 39 30q7 13 11.5 25.5t9.5 26.5q36 112 53.5 226t21.5 233v7q0 125 -22.5 240.5t-60.5 230.5q-2 5 -4 9t-4 9q-17 27 -45 27q-11 0 -22.5 -5.5t-19.5 -16.5q-17 -23 -26 -48t-16 -51q-21 -85 -29 -170.5t-13 -173.5q-2 -20 -2 -40v-40q0 -115 16 -221
t46 -211q5 -17 11 -32.5t17 -29.5q19 -25 39 -25zM265 -302q-23 0 -40.5 10.5t-33.5 25.5q-26 25 -40.5 55t-24.5 63q-33 114 -49.5 228.5t-16.5 237.5q0 48 3 98q5 89 15 175.5t31 172.5q23 89 80 155q12 15 26 24t34 11l54 4t55 2q32 0 63 -3.5t62 -12.5q39 -11 63 -37
t36 -64q28 -88 49.5 -176.5t30.5 -181.5q3 -30 5.5 -59.5t2.5 -58.5v-22q-5 -131 -23.5 -254.5t-57.5 -243.5q-5 -17 -11 -32.5t-14 -30.5q-33 -70 -112 -81q-25 -4 -49.5 -5t-49.5 -1zM194 997q-23 0 -45 0.5t-45 1.5q-24 1 -35.5 12.5t-16.5 36.5q-2 14 -3 27t-1 27v9
v22.5t-2 22.5v68q0 32 12.5 47t45.5 17q29 2 57 3t57 1h28.5t28.5 -1q29 -2 42 -15.5t15 -42.5q2 -26 1.5 -52t0.5 -52q0 -14 1 -27.5t5 -27.5q3 -11 3 -20q0 -20 -13.5 -33.5t-37.5 -17.5q-25 -4 -49.5 -5t-48.5 -1zM628 1003q-13 -2 -43 -3t-62 -1q-37 -1 -79 0
q-26 1 -38.5 12t-17.5 37q-2 11 -2.5 21t-0.5 21v50l-2 46t-1 46q0 26 12 40t38 15q32 2 62.5 3.5t61.5 1.5h27.5t27.5 -2q29 -2 42 -15.5t15 -42.5q2 -26 1.5 -51.5t0.5 -51.5q0 -14 1 -27.5t5 -27.5q3 -11 3 -20q0 -20 -13.5 -34t-37.5 -17z" />
    <glyph glyph-name="divide" unicode="&#xf7;" horiz-adv-x="718" 
d="M356 464q-23 0 -44.5 0.5t-44.5 1.5q-25 0 -36.5 11.5t-16.5 36.5q-5 27 -4 54t-3 54v37.5t1 38.5q0 26 11.5 39.5t37.5 16.5q28 3 56 4t56 1h37.5t37.5 -2q47 -3 50 -57q1 -14 1 -27v-27v-54q0 -13 1 -25.5t5 -25.5q3 -11 3 -21q0 -20 -13.5 -33.5t-36.5 -16.5
q-24 -4 -48.5 -5t-49.5 -1zM348 -90h-71q-34 0 -47.5 12t-16.5 46q-2 24 -2 48t-1 48q-1 19 -1.5 38t-0.5 38q0 55 51 58q32 1 64.5 3t64.5 2q13 0 25 -0.5t25 -1.5q28 -3 41 -15.5t15 -40.5l1 -30v-53q1 -21 1.5 -41.5t6.5 -41.5q2 -5 2 -15q0 -20 -13.5 -34t-35.5 -16
q-27 -3 -54 -4t-54 -3v3zM488 285q-37 0 -73.5 2.5t-72.5 7.5h-223q-7 0 -14 0.5t-14 3.5q-31 13 -31 43v4q5 30 35 38q8 2 16 2.5t16 0.5l32 -1q68 -4 135.5 -4t135.5 -5l48 -2q26 0 52 2t52 5l20 1h10t10 -2q15 -2 24.5 -12.5t11.5 -24.5v-7q0 -13 -7.5 -24t-21.5 -16
q-14 -4 -27.5 -5.5t-27.5 -3.5q-44 -3 -86 -3z" />
    <glyph glyph-name="oslash" unicode="&#xf8;" 
d="M608 760q38 -136 54 -275v-2q4 -29 6 -58t2 -58v-22q-6 -260 -81 -498q-5 -17 -11 -32.5t-14 -30.5q-35 -71 -112 -81q-50 -6 -99 -6h-5q-2 -5 -4.5 -10t-4.5 -10q-17 -26 -41 -26l-9 1q-33 11 -35 47q-16 2 -29 10q-18 11 -34 25q-49 52 -65 118q-66 222 -66 466
q0 48 3 98q4 89 15 175.5t31 172.5q23 89 80 155q22 30 60 35q54 6 109 6q65 0 125 -16q46 -13 74 -49l4 14q1 4 2 7.5t2 7.5q15 34 44 34h4q38 -6 42 -46v-5q0 -19 -7 -34q-11 -28 -21 -56t-19 -57zM335 57q8 30 15 60.5t15 59.5q49 192 90 378q23 111 55 209l-16 50
q-2 5 -4 9t-4 9q-20 27 -45 27q-23 0 -42 -22q-32 -47 -42 -99q-37 -169 -42 -344q-1 -20 -1.5 -40t-0.5 -40q0 -57 4 -112t12 -109zM555 579q-24 -95 -42 -192q-11 -50 -23 -98.5t-25 -97.5q-10 -37 -19.5 -74t-18.5 -75q-8 -37 -17 -75t-18 -78q-2 -8 -4 -16.5t-4 -17.5
q4 -9 9 -18t10 -17q19 -25 39 -25q21 0 39 30q14 26 21 52q70 222 75 459v7q0 61 -5.5 120t-16.5 116z" />
    <glyph glyph-name="ugrave" unicode="&#xf9;" horiz-adv-x="736" 
d="M332 -305q-27 0 -54 2.5t-53 6.5q-50 6 -79.5 38t-43.5 78q-12 38 -16.5 76.5t-6.5 77.5l-17 289q-2 19 -2 58.5v78.5v56.5t1 31.5q4 119 10.5 217t15.5 192q4 32 18 45t47 15q26 2 52.5 3.5t52.5 1.5h19t19 -1q35 -3 48.5 -14.5t13.5 -41.5l-1 -16q-4 -47 -8 -93t-7 -94
q-4 -60 -7 -119.5t-6 -119.5v-18q0 -16 0.5 -40.5t1 -50t1 -49t1.5 -37.5q5 -76 9 -151.5t9 -153.5q2 -21 4.5 -42t5.5 -42q1 -8 3 -15.5t4 -15.5q6 -17 16.5 -30.5t28.5 -16.5l7 -1q16 0 26.5 11t19.5 25q24 38 37 80t24 85q20 86 28 171t10 172v25.5t2 25.5q7 58 10 117
t4 118.5t1 120.5t1 124q0 11 0.5 21.5t2.5 21.5q5 20 16.5 30.5t28.5 10.5h6q40 -5 40 -51q-1 -61 -2 -114.5t-1 -105.5q-1 -76 -4 -151.5t-11 -151.5q-5 -52 -5.5 -103.5t-5.5 -104.5q-8 -75 -21.5 -149t-37.5 -146q-9 -28 -22 -53.5t-28 -50.5q-18 -31 -45.5 -47.5
t-60.5 -24.5q-25 -6 -49.5 -8.5t-50.5 -2.5zM459 993q-38 0 -59 1.5t-33.5 10t-21 27.5t-21.5 54q-8 24 -20 47t-22.5 44t-18 38.5t-7.5 31.5t10 24t26 16t37 9t44 3t45.5 -2.5t45.5 -5.5q14 -2 22 -10t15 -19q26 -47 48.5 -94.5t37.5 -98.5l3.5 -14t1.5 -12q0 -36 -49 -45
q-21 -4 -42 -4t-42 -1z" />
    <glyph glyph-name="uacute" unicode="&#xfa;" horiz-adv-x="745" 
d="M332 -305q-27 0 -54 2.5t-53 6.5q-50 6 -79.5 38t-43.5 78q-12 38 -16.5 76.5t-6.5 77.5l-17 289q-2 19 -2 58.5v78.5v56.5t1 31.5q4 119 10.5 217t15.5 192q4 32 18 45t47 15q26 2 52.5 3.5t52.5 1.5h19t19 -1q35 -3 48.5 -14.5t13.5 -41.5l-1 -16q-4 -47 -8 -93t-7 -94
q-4 -60 -7 -119.5t-6 -119.5v-18q0 -16 0.5 -40.5t1 -50t1 -49t1.5 -37.5q5 -76 9 -151.5t9 -153.5q2 -21 4.5 -42t5.5 -42q1 -8 3 -15.5t4 -15.5q6 -17 16.5 -30.5t28.5 -16.5l7 -1q16 0 26.5 11t19.5 25q24 38 37 80t24 85q20 86 28 171t10 172v25.5t2 25.5q7 58 10 117
t4 118.5t1 120.5t1 124q0 11 0.5 21.5t2.5 21.5q5 20 16.5 30.5t28.5 10.5h6q40 -5 40 -51q-1 -61 -2 -114.5t-1 -105.5q-1 -76 -4 -151.5t-11 -151.5q-5 -52 -5.5 -103.5t-5.5 -104.5q-8 -75 -21.5 -149t-37.5 -146q-9 -28 -22 -53.5t-28 -50.5q-18 -31 -45.5 -47.5
t-60.5 -24.5q-25 -6 -49.5 -8.5t-50.5 -2.5zM537 993q-15 1 -30 1h-30l-32 -1q-13 0 -25.5 1t-25.5 4q-46 9 -46 44q0 7 3 18q15 56 39.5 107t53.5 100q11 19 32 22q23 4 45.5 6.5t45.5 2.5q39 0 75 -10q43 -12 43 -44q0 -14 -8 -29q-24 -44 -43.5 -89.5t-38.5 -92.5
q-15 -40 -58 -40z" />
    <glyph glyph-name="ucircumflex" unicode="&#xfb;" horiz-adv-x="736" 
d="M332 -305q-27 0 -54 2.5t-53 6.5q-50 6 -79.5 38t-43.5 78q-12 38 -16.5 76.5t-6.5 77.5l-17 289q-2 19 -2 58.5v78.5v56.5t1 31.5q4 119 10.5 217t15.5 192q4 32 18 45t47 15q26 2 52.5 3.5t52.5 1.5h19t19 -1q35 -3 48.5 -14.5t13.5 -41.5l-1 -16q-4 -47 -8 -93t-7 -94
q-4 -60 -7 -119.5t-6 -119.5v-18q0 -16 0.5 -40.5t1 -50t1 -49t1.5 -37.5q5 -76 9 -151.5t9 -153.5q2 -21 4.5 -42t5.5 -42q1 -8 3 -15.5t4 -15.5q6 -17 16.5 -30.5t28.5 -16.5l7 -1q16 0 26.5 11t19.5 25q24 38 37 80t24 85q20 86 28 171t10 172v25.5t2 25.5q7 58 10 117
t4 118.5t1 120.5t1 124q0 11 0.5 21.5t2.5 21.5q5 20 16.5 30.5t28.5 10.5h6q40 -5 40 -51q-1 -61 -2 -114.5t-1 -105.5q-1 -76 -4 -151.5t-11 -151.5q-5 -52 -5.5 -103.5t-5.5 -104.5q-8 -75 -21.5 -149t-37.5 -146q-9 -28 -22 -53.5t-28 -50.5q-18 -31 -45.5 -47.5
t-60.5 -24.5q-25 -6 -49.5 -8.5t-50.5 -2.5zM262 986q-8 0 -15 3q-28 12 -28 45l1 11l1 4q21 54 39.5 108.5t50.5 104.5q18 27 48 34q17 5 34.5 6.5t34.5 1.5q23 0 46.5 -2.5t46.5 -6.5q13 -2 21.5 -10t14.5 -19q26 -46 49 -93.5t38 -99.5q4 -12 4 -25q0 -41 -53 -46
q-42 -3 -82 -3l-58 1q-38 1 -52 36l-29 70q-3 8 -5.5 17t-14.5 16l-35 -88q-3 -9 -5.5 -17.5t-7.5 -16.5q-16 -31 -44 -31z" />
    <glyph glyph-name="udieresis" unicode="&#xfc;" horiz-adv-x="736" 
d="M332 -305q-27 0 -54 2.5t-53 6.5q-50 6 -79.5 38t-43.5 78q-12 38 -16.5 76.5t-6.5 77.5l-17 289q-2 19 -2 58.5v78.5v56.5t1 31.5q4 119 10.5 217t15.5 192q4 32 18 45t47 15q26 2 52.5 3.5t52.5 1.5h19t19 -1q35 -3 48.5 -14.5t13.5 -41.5l-1 -16q-4 -47 -8 -93t-7 -94
q-4 -60 -7 -119.5t-6 -119.5v-18q0 -16 0.5 -40.5t1 -50t1 -49t1.5 -37.5q5 -76 9 -151.5t9 -153.5q2 -21 4.5 -42t5.5 -42q1 -8 3 -15.5t4 -15.5q6 -17 16.5 -30.5t28.5 -16.5l7 -1q16 0 26.5 11t19.5 25q24 38 37 80t24 85q20 86 28 171t10 172v25.5t2 25.5q7 58 10 117
t4 118.5t1 120.5t1 124q0 11 0.5 21.5t2.5 21.5q5 20 16.5 30.5t28.5 10.5h6q40 -5 40 -51q-1 -61 -2 -114.5t-1 -105.5q-1 -76 -4 -151.5t-11 -151.5q-5 -52 -5.5 -103.5t-5.5 -104.5q-8 -75 -21.5 -149t-37.5 -146q-9 -28 -22 -53.5t-28 -50.5q-18 -31 -45.5 -47.5
t-60.5 -24.5q-25 -6 -49.5 -8.5t-50.5 -2.5zM214 997q-23 0 -45 0.5t-45 1.5q-24 1 -35.5 12.5t-16.5 36.5q-2 14 -3 27t-1 27v9v22.5t-2 22.5v68q0 32 12.5 47t45.5 17q29 2 57 3t57 1h28.5t28.5 -1q29 -2 42 -15.5t15 -42.5q2 -26 1.5 -52t0.5 -52q0 -14 1 -27.5t5 -27.5
q3 -11 3 -20q0 -20 -13.5 -33.5t-37.5 -17.5q-25 -4 -49.5 -5t-48.5 -1zM648 1003q-13 -2 -43 -3t-62 -1q-37 -1 -79 0q-26 1 -38.5 12t-17.5 37q-2 11 -2.5 21t-0.5 21v50l-2 46t-1 46q0 26 12 40t38 15q32 2 62.5 3.5t61.5 1.5h27.5t27.5 -2q29 -2 42 -15.5t15 -42.5
q2 -26 1.5 -51.5t0.5 -51.5q0 -14 1 -27.5t5 -27.5q3 -11 3 -20q0 -20 -13.5 -34t-37.5 -17z" />
    <glyph glyph-name="yacute" unicode="&#xfd;" horiz-adv-x="723" 
d="M345 -303q-23 0 -45 0.5t-45 1.5q-41 3 -46 46q-1 5 -1 16v16q-1 69 -3.5 137t-2.5 137l2 67q0 16 -4 27q-19 68 -30.5 136.5t-22.5 137.5q-14 76 -27 151.5t-26 151.5q-7 37 -13.5 73t-16.5 72q-2 7 -3 13.5t-1 12.5q0 28 18.5 45t51.5 19l55 1h51h24.5t25.5 -1
q27 -1 37.5 -14.5t15.5 -39.5q10 -60 21 -118t22 -118l44 -251l10 -48q11 19 13.5 37t7.5 35q27 112 49 224.5t55 223.5q3 11 7 22.5t9 21.5q7 14 18 20.5t24 6.5q10 0 15 -2q29 -11 29 -42l-2 -14q-6 -24 -14 -47.5t-13 -48.5q-30 -134 -59 -267t-61 -267
q-17 -65 -26 -126.5t-9 -109.5l1 -42q3 -56 3 -111.5t1 -111.5v-7q0 -32 -14 -46t-47 -17q-39 -3 -78 -3zM537 993q-15 1 -30 1h-30l-32 -1q-13 0 -25.5 1t-25.5 4q-46 9 -46 44q0 7 3 18q15 56 39.5 107t53.5 100q11 19 32 22q23 4 45.5 6.5t45.5 2.5q39 0 75 -10
q43 -12 43 -44q0 -14 -8 -29q-24 -44 -43.5 -89.5t-38.5 -92.5q-15 -40 -58 -40z" />
    <glyph glyph-name="thorn" unicode="&#xfe;" horiz-adv-x="717" 
d="M406 103q36 2 65 15.5t50 35t32.5 51t11.5 64.5v8q-3 56 -10 110.5t-31 107.5q-10 23 -26 35.5t-39 17.5q-20 3 -40 3l-32 -1q-17 0 -28 -3t-17 -9t-8 -17t-2 -28v-34q0 -75 2.5 -147.5t5.5 -146.5q1 -20 0.5 -32.5t2 -19t9 -9t20.5 -2.5zM236 -304q-19 0 -38 1t-39 4
q-30 4 -42.5 17t-15.5 42q-6 59 -11 115.5t-9 112t-6.5 112t-4.5 115.5q-2 47 -4.5 93t-2.5 92v25t1 25q-2 54 -3 106t-1 104q0 46 1 91t5 88q2 14 2 28t2 28q3 27 15.5 40.5t38.5 18.5q16 2 31.5 3.5t31.5 1.5q56 0 112 -15q38 -8 38 -50v-11q-3 -47 -3.5 -91.5t-5.5 -91.5
l-2 -32q0 -17 7.5 -21.5t29.5 -4.5l58 1h20.5t19.5 -2q51 -7 88.5 -32.5t59.5 -75.5q27 -62 37.5 -125.5t10.5 -129.5l-1 -50q-2 -36 -14 -64.5t-32 -52t-46 -42.5t-56 -35q-30 -15 -62 -20.5t-66 -5.5h-10q-11 0 -15 -2.5t-4 -12.5l1 -13q1 -24 2 -46t2 -43t3 -42.5
t6 -45.5q2 -10 4.5 -19t5.5 -19q2 -10 2 -16q0 -20 -12.5 -34t-34.5 -16q-23 -1 -46.5 -2t-47.5 -1z" />
    <glyph glyph-name="ydieresis" unicode="&#xff;" horiz-adv-x="723" 
d="M345 -303q-23 0 -45 0.5t-45 1.5q-41 3 -46 46q-1 5 -1 16v16q-1 69 -3.5 137t-2.5 137l2 67q0 16 -4 27q-19 68 -30.5 136.5t-22.5 137.5q-14 76 -27 151.5t-26 151.5q-7 37 -13.5 73t-16.5 72q-2 7 -3 13.5t-1 12.5q0 28 18.5 45t51.5 19l55 1h51h24.5t25.5 -1
q27 -1 37.5 -14.5t15.5 -39.5q10 -60 21 -118t22 -118l44 -251l10 -48q11 19 13.5 37t7.5 35q27 112 49 224.5t55 223.5q3 11 7 22.5t9 21.5q7 14 18 20.5t24 6.5q10 0 15 -2q29 -11 29 -42l-2 -14q-6 -24 -14 -47.5t-13 -48.5q-30 -134 -59 -267t-61 -267
q-17 -65 -26 -126.5t-9 -109.5l1 -42q3 -56 3 -111.5t1 -111.5v-7q0 -32 -14 -46t-47 -17q-39 -3 -78 -3zM194 997q-23 0 -45 0.5t-45 1.5q-24 1 -35.5 12.5t-16.5 36.5q-2 14 -3 27t-1 27v9v22.5t-2 22.5v68q0 32 12.5 47t45.5 17q29 2 57 3t57 1h28.5t28.5 -1
q29 -2 42 -15.5t15 -42.5q2 -26 1.5 -52t0.5 -52q0 -14 1 -27.5t5 -27.5q3 -11 3 -20q0 -20 -13.5 -33.5t-37.5 -17.5q-25 -4 -49.5 -5t-48.5 -1zM628 1003q-13 -2 -43 -3t-62 -1q-37 -1 -79 0q-26 1 -38.5 12t-17.5 37q-2 11 -2.5 21t-0.5 21v50l-2 46t-1 46q0 26 12 40
t38 15q32 2 62.5 3.5t61.5 1.5h27.5t27.5 -2q29 -2 42 -15.5t15 -42.5q2 -26 1.5 -51.5t0.5 -51.5q0 -14 1 -27.5t5 -27.5q3 -11 3 -20q0 -20 -13.5 -34t-37.5 -17z" />
    <glyph glyph-name="dotlessi" unicode="&#x131;" horiz-adv-x="393" 
d="M116 54q-44 1 -47 54q-2 32 -3.5 64t-1.5 64q-2 75 -3 149.5t-1 149.5v11q0 28 3 44t13 25t28 13.5t48 7.5q9 1 18 1.5t18 0.5q24 0 48 -2t47 -4q41 -4 41 -58v-228q2 -50 3 -98.5t5 -97.5l1 -20l-1 -20q-2 -26 -14 -39t-38 -15q-42 -2 -82 -2h-82z" />
    <glyph glyph-name="circumflex" unicode="&#x2c6;" horiz-adv-x="549" 
d="M103 641q-8 0 -15 3q-28 12 -28 45l1 11l1 4q21 54 39.5 108.5t50.5 104.5q18 27 48 34q17 5 34.5 6.5t34.5 1.5q23 0 46.5 -2.5t46.5 -6.5q13 -2 21.5 -10t14.5 -19q26 -46 49 -93.5t38 -99.5q4 -12 4 -25q0 -41 -53 -46q-42 -3 -82 -3l-58 1q-38 1 -52 36l-29 70
q-3 8 -5.5 17t-14.5 16l-35 -88q-3 -9 -5.5 -17.5t-7.5 -16.5q-16 -31 -44 -31z" />
    <glyph glyph-name="caron" unicode="&#x2c7;" horiz-adv-x="543" 
d="M280 653q-23 0 -45.5 2.5t-45.5 5.5q-14 2 -23.5 10.5t-15.5 20.5q-26 46 -48 92.5t-37 96.5q-5 17 -5 28q0 41 54 46q21 2 42.5 3t42.5 1l55 -2q37 -1 51 -37q11 -25 20.5 -49.5t19.5 -49.5l9 -1q11 26 20 49.5t14 40.5q4 8 7 16.5t10 15.5q16 16 34 16l13 -2
q14 -5 22 -16.5t9 -26.5q0 -10 -3 -19q-17 -44 -34 -96t-48 -101q-11 -16 -24 -24t-30 -13q-31 -7 -64 -7z" />
    <glyph glyph-name="uni02C9" unicode="&#x2c9;" horiz-adv-x="524" 
d="M112 859q-23 1 -37 12.5t-15 31.5v2q0 17 12 29.5t32 15.5t40 5t40 3q54 1 107.5 1h107.5q11 0 16 -1q47 -5 49 -43v-2q0 -19 -13 -31.5t-36 -15.5q-5 -1 -11.5 -1h-12.5h-116l-40 -2l-44 1q-17 0 -33.5 -1t-33.5 -4h-12z" />
    <glyph glyph-name="breve" unicode="&#x2d8;" horiz-adv-x="580" 
d="M298 660v1l-67 -1l-33 1q-57 4 -90 35t-44 89q-4 19 -4 41q0 21 3 41.5t5 41.5q2 17 14 27.5t29 13.5q23 5 45 7t45 2q43 0 85 -6q27 -5 38.5 -20.5t11.5 -42.5v-7q-2 -14 -4.5 -29t-2.5 -30v-8q6 -58 50 -62h4q27 0 35 26q7 23 7 48t1 54v20v10t2 10q5 17 16.5 26.5
t28.5 9.5h2q15 -1 27 -10.5t14 -26.5t3 -33t1 -33q0 -38 -6 -71.5t-22 -64.5q-16 -30 -42.5 -43t-59.5 -15q-11 -1 -23 -1h-23h-46z" />
    <glyph glyph-name="dotaccent" unicode="&#x2d9;" horiz-adv-x="417" 
d="M221 665h-47t-48 1q-31 1 -45 14t-16 44q-2 12 -1.5 24t-0.5 24v50l-3 72q0 30 13.5 44.5t45.5 16.5q30 1 59.5 2.5t59.5 1.5q12 0 24 -0.5t24 -1.5q33 -3 45.5 -16t14.5 -47q1 -26 1 -52v-52q0 -23 6 -47q2 -6 3 -11.5t1 -10.5q0 -44 -52 -52q-21 -2 -42 -2.5t-42 -1.5z
" />
    <glyph glyph-name="ring" unicode="&#x2da;" horiz-adv-x="509" 
d="M336 754q7 0 11 10q5 14 5.5 27.5t2.5 27.5l1 12q-1 5 -1 11t-8 8h-1q-7 0 -9.5 -5.5t-4.5 -10.5q-3 -13 -5 -26t-2 -26l1 -14q0 -5 1.5 -9.5t7.5 -4.5h1zM151 655q-30 1 -54.5 21t-30.5 52q-6 30 -6 60q0 35 9.5 69t32.5 66q11 17 27 26.5t37 9.5h166q24 0 45 -8.5
t36.5 -23.5t25 -35.5t10.5 -44.5v-11q0 -23 -3 -46t-8 -46q-20 -86 -112 -89l-87 -1z" />
    <glyph glyph-name="ogonek" unicode="&#x2db;" horiz-adv-x="546" 
d="M255 -473q-39 0 -76 3q-44 5 -76 31t-40 68q-3 16 -3 32q0 34 12.5 67t33.5 60t49.5 46t61.5 24q17 2 34 2t34 1q23 0 45.5 -1t45.5 -6q18 -3 31.5 -11t18.5 -28l1 -10q0 -23 -35 -42q-28 -16 -45.5 -38.5t-20.5 -55.5v-7q0 -39 32 -39q10 0 23 5q8 3 15.5 8t15.5 10
q16 8 30 8q25 0 37 -20q7 -10 7 -23q0 -21 -22 -40q-41 -37 -98 -40q-28 -2 -55.5 -3t-55.5 -1z" />
    <glyph glyph-name="tilde" unicode="&#x2dc;" horiz-adv-x="486" 
d="M306 827q-11 0 -23 2t-24 7l-40 18q-23 10 -39 10q-24 0 -45 -21q-14 -14 -30 -14q-15 0 -28 11q-17 14 -17 35q0 15 7 26q4 9 14 19q15 16 44 27.5t55 11.5q39 -2 79 -23q26 -13 47 -13q24 0 45 17q6 4 15 6q5 2 15 2q12 0 22.5 -6t16.5 -17t6 -23q0 -18 -16 -31
q-24 -20 -49.5 -32t-54.5 -12z" />
    <glyph glyph-name="hungarumlaut" unicode="&#x2dd;" horiz-adv-x="752" 
d="M486 652q-18 2 -36 2.5t-36 2.5q-57 6 -57 45q0 13 6 33q24 76 63 147q13 25 21.5 39t19 21.5t26.5 10t45 5.5q8 1 15.5 1h15.5q41 0 80 -10q43 -12 43 -44q0 -6 -1.5 -13t-6.5 -15q-24 -45 -43.5 -91.5t-38.5 -94.5q-15 -37 -56 -37h-60v-2zM190 652q-20 2 -40 2.5
t-40 3.5q-50 7 -50 46q0 10 5 27q25 77 61 144q16 30 26.5 46t23.5 24.5t32.5 10.5t53.5 3h12q21 0 41.5 -2.5t40.5 -8.5q41 -13 41 -43q0 -12 -8 -28q-25 -45 -44.5 -91.5t-38.5 -94.5q-15 -37 -56 -37h-60v-2z" />
    <glyph glyph-name="endash" unicode="&#x2013;" horiz-adv-x="718" 
d="M488 285q-36 0 -72 2.5t-71 7.5h-226q-7 0 -13 0.5t-13 2.5q-15 6 -24 17.5t-9 25.5v2q0 16 9.5 26.5t26.5 15.5q13 3 29 3l23 -1q68 -5 135.5 -4.5t136.5 -5.5q13 -1 25.5 -1.5t25.5 -0.5q27 0 54 2l54 4q7 1 13 1.5t12 0.5l15 -1q17 -2 27 -13t12 -26v-5q0 -15 -9 -26
t-26 -16q-12 -4 -25 -5.5t-26 -2.5q-42 -3 -84 -3z" />
    <glyph glyph-name="emdash" unicode="&#x2014;" horiz-adv-x="949" 
d="M573 292q-92 2 -183.5 2t-183.5 5h-9q-13 0 -25.5 -1t-25.5 -1h-8q-22 0 -43 6q-35 11 -35 45v6q6 37 49 37h64h32.5t31.5 -1q58 -3 111 -3h85q45 -2 84 -3t76 -1q46 0 87.5 1t83.5 2l48 1h20q27 -1 42 -13t15 -32v-2q-2 -20 -16 -32t-40 -12q-53 -2 -105 -3.5t-105 -1.5
z" />
    <glyph glyph-name="quoteleft" unicode="&#x2018;" horiz-adv-x="427" 
d="M183 493q-20 0 -39 1t-39 3q-43 5 -44 52q-1 17 -1 34v34v68h3v64v31.5t1 31.5q2 51 25 92q14 23 33 36.5t47 14.5l133 4q11 0 22 -3q16 -5 25 -17t9 -26v-2q-3 -31 -33 -40q-8 -2 -15.5 -3t-15.5 -2l-84 -2q-16 0 -25.5 -1.5t-14.5 -6.5t-8 -14t-5 -25l-2 -17
q0 -9 5.5 -11t21.5 -2h58t58 -1q34 0 48 -12t16 -46q3 -45 4 -89.5t1 -89.5q0 -23 -12 -36t-35 -14l-68 -4t-69 -2z" />
    <glyph glyph-name="quoteright" unicode="&#x2019;" horiz-adv-x="427" 
d="M132 493h-10t-10 2q-20 4 -31.5 16t-11.5 29t11.5 29.5t31.5 14.5q29 3 58 3t58 2q18 1 32 18.5t14 36.5q0 8 -3 14q-2 5 -5.5 6.5t-8.5 1.5l-130 1q-31 0 -45 11.5t-16 40.5q-4 48 -5 94t-1 94q0 20 12 32.5t33 14.5q34 2 67 3.5t67 1.5q21 0 42.5 -1t42.5 -3
q40 -3 43 -54l-3 -195v-31.5t-1 -32.5q-2 -49 -22 -88q-14 -26 -34.5 -40.5t-51.5 -15.5t-61.5 -2t-61.5 -3z" />
    <glyph glyph-name="quotesinglbase" unicode="&#x201a;" horiz-adv-x="427" 
d="M130 -476q-16 0 -27 4q-16 5 -25 16.5t-9 25.5v2q3 32 33 41q8 2 15.5 3t15.5 1q21 2 42 2t42 1q16 0 25.5 1.5t14.5 6.5t8 14t5 25l2 17q0 9 -5.5 11t-21.5 2h-60t-60 1q-29 0 -43 11t-16 39q-6 94 -6 191q0 20 12.5 32.5t33.5 13.5q35 2 69 4t69 2q20 0 39 -1t39 -3
q43 -5 44 -52q1 -17 1 -34v-34l-3 -131v-32.5t-1 -31.5q-2 -51 -25 -92q-13 -23 -32.5 -36.5t-47.5 -14.5q-32 -1 -64 -2.5t-64 -2.5z" />
    <glyph glyph-name="quotedblleft" unicode="&#x201c;" horiz-adv-x="751" 
d="M513 492q-22 0 -43 1t-42 3q-40 4 -43 49q-1 13 -1 25v25q0 50 1 93q1 37 1 72.5t2 52.5q2 23 7.5 45t16.5 43q13 24 33.5 38t49.5 15q31 1 61.5 2t61.5 3q11 0 16 -1q22 -2 34.5 -14.5t13.5 -30.5v-2q0 -17 -12.5 -29.5t-33.5 -14.5q-26 -2 -53 -2.5t-54 -1.5
q-23 -1 -37 -17t-14 -36q0 -10 2 -15q2 -6 6 -7.5t9 -1.5l124 -1q36 0 50.5 -12t17.5 -47q3 -45 3.5 -89.5t0.5 -89.5q0 -21 -11.5 -34t-32.5 -15q-33 -2 -66.5 -4t-67.5 -2zM181 492q-31 0 -61 3q-33 3 -46 16t-14 46v169q0 27 1 54t5 53q3 16 7 31t11 30q14 29 36 44.5
t55 15.5l60 2t59 3h10t10 -1q43 -8 43 -45v-2q0 -35 -41 -44q-9 -2 -18 -2h-18q-22 -1 -43.5 -1.5t-44.5 -0.5q-22 0 -29 -21q-9 -23 -9 -34q0 -13 11 -17.5t35 -4.5h50t50 -1q32 -1 46 -14t17 -46q1 -10 1 -19.5v-19.5q1 -30 1.5 -60t2.5 -60v-7q0 -32 -14 -46.5t-47 -16.5
q-32 -1 -63 -2.5t-63 -1.5z" />
    <glyph glyph-name="quotedblright" unicode="&#x201d;" horiz-adv-x="751" 
d="M137 493h-15.5t-15.5 2q-17 4 -26.5 15.5t-10.5 26.5v2q0 15 10.5 28t27.5 15q25 3 49.5 4t49.5 3h31q21 0 29 23q3 11 5 19t2 14q0 12 -10 15.5t-36 3.5h-51.5t-51.5 1q-29 1 -42.5 12.5t-15.5 39.5q-6 94 -6 188q0 20 11 32.5t33 14.5q32 4 63.5 5.5t63.5 1.5
q23 0 46 -1t46 -3q42 -4 43 -53q1 -17 1 -34v-34l-3 -191q-1 -13 -3.5 -26t-5.5 -25q-13 -52 -40.5 -73.5t-81.5 -22.5zM457 493h-12t-12 2q-18 3 -28.5 14.5t-10.5 28.5t10 29.5t28 14.5q29 3 58 4t58 3q25 1 32.5 6.5t12.5 30.5q3 15 3 22q0 11 -7.5 13.5t-27.5 2.5h-56
t-56 1q-29 1 -43.5 13.5t-16.5 41.5q-3 46 -4 91.5t-1 92.5q0 43 43 48q32 4 64 5.5t64 1.5q23 0 46 -1t46 -3t33 -16.5t11 -40.5v-184q0 -23 -1 -47t-5 -48q-2 -12 -4.5 -24t-7.5 -23q-14 -39 -38 -56.5t-66 -19.5z" />
    <glyph glyph-name="quotedblbase" unicode="&#x201e;" horiz-adv-x="752" 
d="M456 -476h-10t-10 2q-19 4 -30.5 16t-11.5 28v2q1 16 11.5 28t29.5 15q20 3 41 3t42 1q5 1 10 1h10q18 0 28.5 2t16.5 8t9 16.5t5 28.5v3q0 19 -19 19h-4h-57.5t-57.5 1q-38 0 -52.5 12t-16.5 49q-3 45 -4 88t-1 88q0 22 12 35t35 15l68 4t69 2q20 0 39 -1t39 -3
q42 -5 45 -52l-3 -263q-2 -24 -8 -47.5t-18 -44.5q-13 -23 -32.5 -36.5t-47.5 -14.5q-32 -1 -63.5 -2t-63.5 -3zM131 -476q-20 0 -35 7q-25 14 -25 39v3q1 26 26 37q9 5 18.5 6t19.5 2q26 0 50.5 0.5t49.5 1.5q7 1 14.5 6.5t13 14t9 18t3.5 18.5t-4 14q-4 6 -14 6h-8h-60
t-60 1q-32 0 -47 13.5t-17 45.5q-2 44 -3 87.5t-2 87.5q0 52 57 54q33 1 66.5 3t66.5 2q30 0 62 -3q29 -3 42 -15.5t14 -42.5l1 -41l-1 -83v-49q0 -28 -1 -55t-6 -55q-2 -17 -7 -33t-13 -31q-14 -25 -34 -39t-49 -15q-32 -1 -63.5 -2t-63.5 -3z" />
    <glyph glyph-name="dagger" unicode="&#x2020;" horiz-adv-x="719" 
d="M343 -304q-14 0 -28 0.5t-28 1.5q-32 2 -44.5 15.5t-14.5 44.5q-7 112 -8.5 226.5t-4.5 239.5q2 27 3 55.5t1 57.5q0 53 -2 106.5t-4 108.5q0 23 -4 27.5t-26 5.5l-60 2q-18 0 -31 4q-15 5 -23.5 16.5t-8.5 25.5v4q3 33 35 39q11 2 22 2.5t22 0.5t22 -1t22 -1h10
q15 0 18 5.5t3 25.5v24q0 40 2 78.5t5 71.5q3 38 17 52t52 18q24 2 48 4.5t48 2.5q23 0 47 -3q31 -4 44.5 -15.5t13.5 -37.5l-1 -15q-5 -31 -6 -68t-1 -76v-38q0 -24 3.5 -31t20.5 -7l17 1l30 2t30 3l28 1q20 -2 32.5 -12.5t14.5 -27.5v-4q0 -16 -10 -28t-29 -17
q-26 -5 -51.5 -6.5t-51.5 -2.5q-22 -1 -28 -4t-6 -20v-9q3 -78 3 -155l-1 -231q0 -45 1 -89t3 -89q2 -52 3.5 -103t3.5 -99v-6q0 -19 -3 -31t-10.5 -19.5t-20 -12t-32.5 -7.5q-44 -6 -87 -6z" />
    <glyph glyph-name="daggerdbl" unicode="&#x2021;" horiz-adv-x="727" 
d="M300 -303q-35 2 -49 16.5t-15 50.5q-2 56 -5 109t-3 107v26q0 22 -7 25.5t-33 4.5l-60 2q-7 1 -14 1t-14 2q-19 4 -29.5 16t-10.5 29v2q3 37 46 42h47l44 -1q17 0 22.5 3t5.5 17l-1 53q0 40 1.5 81.5t2.5 87.5q-2 44 -3.5 94t-2.5 103q0 25 -23 25l-67 1q-9 1 -18 1.5
t-17 4.5q-29 14 -29 42v2q2 30 34 40q13 3 28 3q14 0 28 -1t28 -1l15 -1q15 0 18 6.5t3 28.5v23q0 40 2 76.5t5 61.5q1 20 5 33t12 20.5t21.5 11.5t33.5 6q24 3 48.5 5.5t48.5 2.5q21 0 42 -3q31 -5 44.5 -16.5t13.5 -37.5q-2 -23 -3 -46q-2 -20 -2.5 -41t-0.5 -37v-71
q0 -20 3 -25t18 -5h10q18 0 36 1.5t36 3.5l15 1l21 -2q15 -2 24.5 -12.5t11.5 -24.5v-5q0 -14 -8 -25.5t-22 -16.5q-11 -4 -21.5 -5.5t-21.5 -2.5q-19 -2 -38 -3t-38 -1h-3q-24 0 -24 -24v-4q3 -71 3 -142l-1 -262q1 -20 4 -26t17 -6l15 1q15 0 30 1.5t29 2.5l19 1h6.5
t6.5 -1q17 -3 27 -14t12 -26v-4q0 -29 -31 -42q-11 -5 -23.5 -5t-23.5 -2q-5 -1 -10 -1h-10h-18q-11 0 -21.5 -1.5t-17.5 -8.5q-10 -9 -10 -26q0 -11 2 -22.5t2 -22.5l-1 -32q0 -35 3.5 -69t3.5 -71q0 -21 -2.5 -34t-9.5 -21.5t-19.5 -13t-32.5 -7.5q-23 -4 -46.5 -5.5
t-46.5 -1.5z" />
    <glyph glyph-name="bullet" unicode="&#x2022;" horiz-adv-x="557" 
d="M268 91q-41 0 -79 17t-66.5 45.5t-45.5 66t-17 79.5l1 21q13 106 84 186q32 35 69.5 50t80.5 15q28 0 51 -4q11 -2 20.5 -7t19.5 -11q21 -15 41 -41t35.5 -57.5t25 -65.5t9.5 -65q-2 -47 -23 -90.5t-66 -77.5q-28 -22 -56.5 -39.5t-66.5 -20.5l-17 -1v0z" />
    <glyph glyph-name="ellipsis" unicode="&#x2026;" horiz-adv-x="1118" 
d="M307 -299q-9 -1 -25.5 -1.5t-36.5 -1t-41 -0.5h-38h-39q-32 0 -44.5 12t-17.5 44q-1 6 -1.5 12t-0.5 12q-1 37 -2 73.5t-1 73.5q0 58 53 61q32 1 62.5 3t62.5 2l47 -2q34 -3 47 -16.5t15 -48.5l1 -100q0 -13 1 -25.5t5 -25.5q3 -11 3 -21q0 -20 -13 -34t-37 -17z
M553 -302q-22 0 -43.5 0.5t-43.5 1.5q-48 1 -53 54l-1 32l-4 136v7q0 29 13.5 44t45.5 17q28 2 56 3t56 1q15 0 29.5 -0.5t29.5 -1.5q28 -2 40.5 -15t14.5 -40q2 -26 2 -52v-52q0 -15 1.5 -29.5t6.5 -29.5q3 -9 3 -18q0 -20 -13 -34t-36 -17q-26 -4 -52 -5.5t-52 -1.5z
M824 -301q-28 0 -41.5 12t-17.5 39q-2 12 -1.5 24t-0.5 24q0 29 -0.5 58t-1.5 58v12q0 34 15 47t53 15h72q25 3 51 3l36 -1q32 -3 44 -16t14 -45l1 -76q1 -22 1 -43.5t8 -43.5q2 -5 2 -14q0 -16 -11 -29t-28 -18q-8 -3 -17.5 -3.5t-18.5 -1.5q-18 -2 -36 -2h-36z" />
    <glyph glyph-name="guilsinglleft" unicode="&#x2039;" horiz-adv-x="485" 
d="M371 -7q-16 0 -30 14q-11 11 -21 21.5t-21 21.5q-51 55 -100.5 111t-106.5 106q-32 28 -32 56q0 18 12 44q20 45 42 90l44 90q8 18 17.5 35.5t16.5 36.5q11 29 30 42t48 15l28 2q24 -2 45.5 -4t41.5 -8q40 -11 40 -44q0 -9 -3 -19q-5 -18 -13 -35.5t-17 -34.5
q-34 -63 -63 -128t-61 -131q-7 -15 -7 -29q0 -20 19 -38q31 -30 59 -62.5t60 -61.5q17 -15 18 -34l1 -8q0 -30 -26 -43q-12 -5 -21 -5z" />
    <glyph glyph-name="guilsinglright" unicode="&#x203a;" horiz-adv-x="485" 
d="M111 -3q-17 0 -30 15q-14 16 -14 33q0 23 20 41q32 30 60.5 63t60.5 64q17 17 17 36q0 14 -7 28q-31 66 -60.5 131t-64.5 128q-9 17 -16 34.5t-13 35.5q-4 9 -4 21q0 32 39 43q20 5 41 8.5t44 3.5h14q10 0 21 -2l22 -4q30 -7 44 -36l123 -256q4 -8 7 -16.5t6 -16.5
q4 -11 4 -24q0 -30 -26 -51q-48 -41 -89 -86.5t-84 -90.5q-36 -41 -73 -79q-21 -23 -42 -23z" />
    <glyph glyph-name="fraction" unicode="&#x2044;" horiz-adv-x="983" 
d="M106 -303q-20 1 -33 14t-13 30q0 7 1 11q2 9 6.5 17t8.5 16q61 116 127.5 215.5t129.5 199.5q91 145 187.5 283t191.5 280q27 40 53 80.5t58 79.5q3 4 5.5 8t6.5 8q8 10 19 14.5t22 4.5q18 0 30 -11q17 -14 17 -34q0 -19 -16 -36q-20 -23 -37 -45.5t-33 -45.5
q-143 -213 -287 -425.5t-280 -430.5q-27 -43 -56 -87t-52 -103q-16 -40 -56 -43z" />
    <glyph glyph-name="fraction" unicode="&#x2215;" horiz-adv-x="983" 
d="M106 -303q-20 1 -33 14t-13 30q0 7 1 11q2 9 6.5 17t8.5 16q61 116 127.5 215.5t129.5 199.5q91 145 187.5 283t191.5 280q27 40 53 80.5t58 79.5q3 4 5.5 8t6.5 8q8 10 19 14.5t22 4.5q18 0 30 -11q17 -14 17 -34q0 -19 -16 -36q-20 -23 -37 -45.5t-33 -45.5
q-143 -213 -287 -425.5t-280 -430.5q-27 -43 -56 -87t-52 -103q-16 -40 -56 -43z" />
    <glyph glyph-name="franc" unicode="&#x20a3;" horiz-adv-x="874" 
d="M283 -303q-30 0 -42.5 11.5t-14.5 42.5q-2 23 -3.5 57.5t-1.5 57.5l2 40q0 14 -6.5 16t-27.5 3l-60 2q-7 1 -13.5 1t-14.5 2q-19 4 -30 15.5t-11 27.5v2q0 17 12 29t32 15l14 1l14 -1l59 -1q21 0 27.5 2t6.5 16l-1 15q-2 24 -3 48.5t-1 48.5q0 31 1 61.5t2 61.5l4 88
t2 93v23q3 76 3 159q0 37 -1 73.5t-3 74.5l-1 31l1 61q1 24 4.5 39.5t12.5 24.5t24.5 13t39.5 6q15 1 29.5 1h29.5l159 -1h230q8 0 17 -1t17 -6q23 -14 23 -38v-5q-2 -30 -30 -38q-12 -4 -28 -4q-19 1 -52.5 1.5t-67.5 0.5h-60.5h-31.5q-27 0 -35.5 -12t-8.5 -44l1 -41
q3 -81 3 -163q0 -74 -2 -147.5t-4 -148.5q-1 -11 -1.5 -20.5t-0.5 -19.5l-1 -23q0 -24 9.5 -29t43.5 -6l60 1q11 0 22 -0.5t22 -4.5q15 -6 23.5 -18.5t8.5 -27.5l-1 -8q-3 -15 -15 -26.5t-27 -11.5l-8 1q-10 2 -19.5 2.5t-19.5 0.5h-38l-35 1q-15 0 -20.5 -6t-5.5 -23v-5
q0 -14 1.5 -28t1.5 -28q0 -22 22 -22h3q16 2 32 3l32 2l21 1l11 -1q17 -2 27.5 -13t12.5 -26v-4q0 -15 -8.5 -26.5t-25.5 -16.5q-23 -7 -47.5 -8t-47.5 -3q-12 -1 -18.5 -2t-9.5 -4.5t-3.5 -10t-0.5 -18.5q0 -13 -0.5 -29.5t-1 -34.5t-1.5 -35t-2 -30q-2 -30 -15.5 -42
t-42.5 -13q-37 0 -73.5 -0.5t-74.5 -1.5h-4z" />
    <glyph glyph-name="lira" unicode="&#x20a4;" horiz-adv-x="767" 
d="M282 -305q-23 0 -45.5 2.5t-45.5 8.5q-19 5 -31 11t-19 15.5t-10 22.5t-3 33q0 32 4 62t12 61l10 41q2 10 6 20.5t4 21.5q0 6 -3 12q-5 9 -20 9l-21 -2l-8 1q-5 1 -9.5 1t-9.5 2q-33 13 -33 43v2q2 33 37 41q15 4 34 4l40 -3q25 0 32 25q3 10 8.5 19t5.5 19l-1 7
q-6 17 -15 32.5t-18 31.5q-3 6 -9.5 6t-12.5 1h-24t-24 1q-23 2 -36 14.5t-13 30.5v2q0 38 48 44q5 1 16 1h3q17 0 17 16l-1 9q-10 47 -14.5 94.5t-4.5 95.5l1 48q2 54 10 107t23 106q41 143 191 144h29q22 0 44.5 0.5t44.5 0.5h22.5t22.5 -1q41 -3 69 -22.5t46 -54.5
q11 -23 20 -46.5t11 -48.5q3 -29 3 -56q0 -26 -3.5 -51.5t-11.5 -51.5q-2 -6 -4.5 -13t-6.5 -12q-12 -20 -35 -20l-10 1q-14 2 -23.5 12.5t-11.5 26.5v7q0 9 1.5 17.5t3.5 18.5q3 19 5.5 37t2.5 37q0 40 -13 76q-9 23 -24.5 35t-33.5 12q-29 0 -53 -29q-10 -11 -15.5 -23.5
t-9.5 -26.5q-16 -57 -23.5 -114.5t-7.5 -114.5q0 -97 21 -194q3 -12 5 -18.5t5.5 -9.5t10 -4t18.5 -1h23q57 0 113 6l18 1l18 -1q17 -2 27 -13t12 -27v-4q0 -31 -32 -41q-25 -7 -55 -9l-116 -5q13 -17 18 -33.5t5 -32.5q0 -17 -5 -33.5t-13 -33.5q10 -4 18.5 -5t16.5 -1
l27 1q18 1 35.5 3t35.5 3h4q51 0 56 -39v-6q0 -37 -49 -46q-28 -5 -55.5 -6t-55.5 -1h-28q-14 0 -21.5 -0.5t-12 -4t-6.5 -11t-5 -20.5q-6 -24 -11 -48t-10 -44l-19 -77h55q31 0 60.5 -4.5t59.5 -4.5q19 0 36 5t31 19q2 2 5.5 4.5t7.5 4.5q12 6 23 6q19 0 32 -13
q12 -15 12 -31q0 -12 -8 -25q-10 -16 -23.5 -26.5t-30.5 -18.5q-38 -18 -78 -18q-16 0 -31 1t-25 2q-26 2 -53 6t-55 4q-25 0 -45 -4q-14 -2 -30.5 -6.5t-31.5 -4.5h-14v0z" />
    <glyph glyph-name="peseta" unicode="&#x20a7;" horiz-adv-x="1528" 
d="M384 211q57 0 96 33.5t53 94.5q8 34 10.5 67.5t2.5 67.5q0 30 -1 59.5t-3 59.5q-1 26 -4 46.5t-8 39.5t-12.5 38.5t-16.5 43.5q-8 19 -23 36.5t-34.5 31.5t-41 22.5t-41.5 9.5q-11 0 -16 -3.5t-5 -14.5v-35q2 -67 5.5 -134.5t3.5 -135.5v-180l-1 -44l1 -74
q0 -11 0.5 -16.5t3.5 -8t9 -3.5t17 -1h5zM158 -305q-40 1 -56.5 19t-17.5 58q-2 72 -5.5 144t-5.5 144q-6 120 -6 240l2 126q0 109 -4.5 215.5t-4.5 215.5v24q1 36 16 53t51 19q33 2 65.5 4t65.5 2q63 0 125 -9q77 -12 130 -55t81 -118q11 -30 18.5 -56t12.5 -51t7.5 -52
t3.5 -58l2 -44t1 -44q1 -8 4 -14.5t14 -6.5q12 0 16 6t4 17v36t1 36q1 36 13 50t47 19q30 3 60 5.5t60 2.5l47 -2q29 -2 40.5 -15t12.5 -42v-74q0 -16 19 -16l16 -1q18 0 26 6.5t19 28.5q23 42 56.5 64.5t83.5 25.5l173 3q15 0 30.5 -5.5t29.5 -13.5q25 -14 38 -36.5
t13 -48.5q0 -12 -3 -24q-8 -38 -43 -40q-17 0 -28.5 9.5t-16.5 28.5q-2 6 -2.5 11.5t-2.5 10.5t-6 8.5t-13 4.5h-4q-15 0 -24 -8t-17 -19q-9 -14 -11 -29.5t-2 -32.5q3 -76 31 -152q14 -39 32.5 -79t41.5 -90q25 -57 43 -114.5t28 -118.5q3 -23 3 -45v-15q-4 -47 -33 -74.5
t-77 -29.5q-35 -2 -69.5 -3.5t-69.5 -1.5l-33 1q-89 2 -130 48.5t-49 129.5v5q0 24 21 40q14 11 30 11q7 0 19 -5q25 -10 25 -38q0 -14 1 -26.5t5 -24.5q9 -27 33 -39q8 -3 16 -5.5t16 -2.5q10 0 18 5q5 4 7 9.5t2 11.5q0 5 -0.5 10t-1.5 10q-7 57 -23.5 110t-39.5 104
q-26 58 -47.5 106.5t-37.5 97.5q-8 23 -14 47t-10 50q-3 20 -6 26t-15 6l-19 -1q-18 -2 -23 -4t-5 -15v-130q9 -119 12.5 -226t15.5 -213q2 -10 2 -18v-15q0 -29 -14.5 -40.5t-54.5 -18.5q-19 -4 -38 -5.5t-38 -1.5q-18 0 -35.5 1.5t-35.5 3.5q-35 4 -48 19t-17 51
q-13 123 -19 243.5t-9 242.5q0 21 -0.5 42t-1.5 42q-1 7 -2.5 13t-9.5 6h-16q-6 0 -11.5 -2.5t-8.5 -10.5t-4.5 -17t-3.5 -18q-10 -43 -31.5 -78t-52 -59.5t-69 -38t-82.5 -14.5q-21 -1 -27.5 -3.5t-6.5 -17.5l1 -16q2 -80 5.5 -158.5t6.5 -157.5v-8q0 -29 -12 -42t-43 -15
q-75 -6 -152 -6z" />
    <glyph glyph-name="Euro" unicode="&#x20ac;" horiz-adv-x="793" 
d="M610 -304q-46 0 -67 2.5t-34 7.5t-22 12t-19 15q-89 81 -159 181.5t-118 220.5q-14 35 -47 35h-14q-8 0 -17 1t-18 3q-17 4 -26 16t-9 27q0 17 10.5 29t28.5 15l23 2l17 -1q18 0 18 17v3q-1 25 -1.5 50t-0.5 50q-1 19 -19 20h-14.5t-13.5 2q-20 4 -32 15.5t-12 28.5v4
q2 37 46 42l20 1l23 -1q22 0 27 23q23 97 69 177.5t103 147.5q49 57 114 93q25 14 52 17t53 5l25 1q22 0 43.5 -2.5t42.5 -7.5q42 -9 44 -44v-5q0 -17 -9 -27t-25 -16q-40 -16 -73 -49q-54 -52 -95 -119.5t-70 -145.5q-3 -9 -5 -18t-4 -17l-1 -8q0 -14 19 -14q32 0 63.5 0.5
t63.5 4.5l20 1q5 0 10 -0.5t10 -2.5q32 -10 32 -40v-3q0 -25 -26 -39q-9 -5 -18.5 -6t-19.5 -2q-59 -6 -117 -6h-23q-13 0 -20.5 -0.5t-11.5 -3t-5.5 -8t-1.5 -15.5v-13l4 -76q2 -23 23 -23h63v-1q19 2 37.5 3t38.5 2q5 1 11 1.5t11 0.5h6q20 -2 32 -13t14 -28v-4
q0 -16 -10.5 -28t-29.5 -16q-27 -5 -55 -7t-56 -3h-36q-15 0 -15 -10l2 -7q5 -13 10 -22q41 -78 85.5 -149.5t105.5 -125.5q14 -13 26.5 -27t27.5 -26q19 -17 19 -39q0 -5 -2 -15q-5 -17 -16.5 -25.5t-27.5 -10.5q-20 -3 -39 -5t-38 -2z" />
    <glyph glyph-name="numero" unicode="&#x2116;" horiz-adv-x="1173" 
d="M1009 247q6 15 8.5 38.5t2.5 52.5q0 28 -2.5 58t-7 57.5t-11 50t-15.5 36.5q-5 -40 -8.5 -77.5t-3.5 -74.5q0 -23 2 -45t7 -45q3 -14 9 -27t19 -24zM996 145q-33 3 -66 3l-66 -1q-43 0 -73 19.5t-50 55.5q-28 52 -32 107q-1 15 -1.5 30.5t-0.5 30.5q0 46 4.5 91t12.5 91
q4 22 15 45q14 26 34 40t49 14l171 -3q17 0 29.5 -8t22.5 -22q29 -43 43 -90t19 -98q6 -60 6 -119q0 -37 -3 -73q-2 -10 -3.5 -19.5t-3.5 -19.5q-10 -42 -30.5 -58.5t-58.5 -16.5zM913 13q-10 2 -19 2h-18q-19 0 -37 -1t-36 -1h-9q-14 0 -27.5 3t-25.5 11q-20 15 -20 39
q0 4 0.5 7t1.5 7q4 14 14.5 22.5t24.5 8.5h6q23 -2 45 -3t45 -1l101 1h36l26 -2t25 -3q20 -5 30 -16.5t10 -28.5v-2q-1 -19 -13.5 -30.5t-34.5 -12.5h-125zM320 -303q-48 0 -94.5 1t-93.5 2q-39 0 -50 38q-6 18 -6 36q-2 31 -5 61.5t-3 61.5q0 24 -1 58.5t-1.5 73t-1.5 79
t-2 76.5t-1.5 65.5t-0.5 46.5v16l1 47q2 54 2.5 106.5t0.5 106.5v97t-2 93v20q0 25 1 49.5t1 49.5v23q0 23 13.5 37t37.5 16q40 3 82 3q29 0 57 -1t57 -3q25 -2 36.5 -13t14.5 -34q23 -156 65.5 -308.5t85.5 -307.5q16 -58 32.5 -115t33.5 -115q2 -8 5 -15t6 -15
q2 10 3 19.5t1 18.5q0 15 -1 29.5t-3 28.5q-8 114 -15 227t-7 228l-1 180q0 30 0.5 59.5t2.5 55.5q1 10 1 20t2 20q4 19 16 29t29 10h2q18 -2 29.5 -13.5t12.5 -31.5l-1 -88q-1 -37 -1 -77v-81q0 -106 3 -210.5t11 -210.5q9 -119 17.5 -235.5t14.5 -228.5q1 -6 1.5 -12
t0.5 -12q-3 -49 -46 -58l-15 -2q-31 0 -47 33q-11 21 -20 43t-19 45q-37 86 -62 182t-54 193q-22 73 -42 146l-40 146q-2 6 -3.5 11.5t-6.5 9.5q-4 -1 -4 -7v-26q0 -54 -1 -105.5t-1 -97.5q0 -9 0.5 -40t1 -73.5t1 -92t2 -96t3 -85.5t3.5 -60q2 -17 2.5 -34t4.5 -34l2 -15
q0 -20 -12 -31.5t-35 -12.5z" />
    <glyph glyph-name="trademark" unicode="&#x2122;" horiz-adv-x="1184" 
d="M649 500q-38 1 -51 16.5t-16 52.5l-2 60q0 66 6 132t10 132q2 30 15 44.5t43 16.5q36 2 72 3t72 1q23 0 39.5 -9.5t27.5 -31.5q18 -35 33.5 -70.5t38.5 -67.5q11 2 13 9.5t5 14.5q11 30 24.5 56.5t27.5 42.5q8 13 17 25t22 20q16 11 30 11q17 0 29 -11.5t14 -31.5
q1 -4 1 -8v-8q1 -21 1.5 -46t0.5 -51q0 -22 -1 -43.5t-3 -44.5l-2 -34q0 -14 1 -27t3 -27q2 -11 3 -22.5t1 -22.5l-2 -30q-2 -23 -14.5 -35t-31.5 -12q-18 0 -30.5 12t-14.5 34q-3 36 -3.5 72t-2.5 72q-1 5 -1 15l-7 3q-8 -15 -15.5 -30t-16.5 -29q-19 -31 -45 -31
q-27 0 -45 33l-30 57q-1 2 -3 3t-6 5q-5 -11 -6 -20.5t-1 -19.5v-18l2 -44t1 -44q-1 -36 -13 -49.5t-47 -18.5q-23 -4 -47 -5.5t-48 -1.5zM245 498q-41 1 -54.5 17t-15.5 57q-1 19 -1.5 37.5t-0.5 36.5q0 46 3 91t8 90l1 18q0 10 -3 13t-14 3l-18 -1q-8 -1 -16.5 -1.5
t-16.5 -0.5h-7q-23 2 -36.5 14t-13.5 32v2q0 19 13.5 30.5t36.5 13.5q38 3 77 5.5t77 2.5l57 -1h192q63 -2 64 -45q0 -21 -16.5 -34t-45.5 -15h-4q-21 -1 -32.5 -2t-16.5 -6t-7 -14.5t-4 -27.5q-6 -45 -7 -89.5t-1 -89.5v-65q0 -34 -13.5 -47.5t-48.5 -17.5q-29 -2 -58.5 -4
t-59.5 -2h-18z" />
    <glyph glyph-name="partialdiff" unicode="&#x2202;" horiz-adv-x="707" 
d="M480 -203q38 0 52 39q8 21 9 43q6 55 8 109.5t2 109.5t-1 110t-1 110q0 2 -1 3.5t-3 5.5q-17 -3 -31 -11t-28 -18q-131 -98 -161 -258q-2 -12 -3.5 -24t-1.5 -24q0 -34 9 -66t23 -64q5 -12 13.5 -22t20.5 -16q20 -9 40.5 -16.5t43.5 -9.5zM378 -304q-42 0 -82 5t-81 19
q-45 16 -75.5 44t-47.5 73q-32 80 -32 158q0 77 29.5 148.5t82.5 137.5q67 84 155.5 129t195.5 56q11 1 19.5 4t9.5 20q1 28 1.5 54.5t0.5 46.5q0 51 -4 101.5t-16 101.5q-3 13 -6 25.5t-8 24.5q-6 16 -14 16q-7 0 -15 -7q-20 -17 -32.5 -38.5t-21.5 -44.5q-11 -32 -18 -64
t-13 -64q-6 -27 -6 -53q0 -23 4 -42l2 -17q0 -55 -64 -55q-39 0 -78 3t-77 8q-36 4 -44 50q-2 12 -3 24t-1 24q0 13 1 26t3 26q6 35 13 69t18 67q6 21 15 42q20 43 40.5 70.5t45.5 44t58 23t79 7.5h20q44 0 88 -3q32 -2 51.5 -19t30.5 -46q14 -38 22.5 -76.5t13.5 -78.5
t7 -79t2 -79q0 -45 -1.5 -95t-1.5 -102l-1 -191l2 -122q0 -56 -4 -110.5t-11 -110.5q-8 -63 -43.5 -98t-98.5 -46q-8 -2 -12 -2q-25 -2 -49.5 -3.5t-48.5 -1.5z" />
    <glyph glyph-name="Delta" unicode="&#x2206;" horiz-adv-x="673" 
d="M376 124q21 0 41.5 1t40.5 3q20 1 20 8q0 4 -5 16q-22 53 -36.5 107.5t-29.5 109.5q-2 8 -4 15.5t-10 15.5l-71 -274q14 -2 27.5 -2h26.5zM152 13q-25 0 -46 7q-46 16 -46 54q0 14 4 26l31 104q26 94 48.5 187.5t45.5 187.5q3 16 9 35q8 21 22 32t38 11q34 0 67.5 1
t67.5 2h3q22 0 34 -9.5t20 -30.5q2 -5 3 -11t3 -12q16 -87 34 -172t45 -170q12 -37 26.5 -72t40.5 -66q6 -7 8.5 -14.5t2.5 -15.5q0 -14 -8.5 -26t-25.5 -18q-12 -4 -27 -4q-50 -2 -98.5 -4t-97.5 -5t-97.5 -7.5t-97.5 -9.5h-9z" />
    <glyph glyph-name="product" unicode="&#x220f;" horiz-adv-x="997" 
d="M781 -305q-15 0 -29.5 0.5t-29.5 1.5q-27 2 -39 15.5t-13 42.5q-5 105 -8.5 200.5t-3.5 201.5l2 141l1 52q0 67 -3 133.5t-3 133.5v41q2 46 1 92t4 92v6q0 19 -24 20h-19q-44 0 -87.5 -3.5t-87.5 -3.5l-86 -1q-24 0 -25 -23q0 -8 -1 -14.5t-1 -13.5l-1 -190v-79t2 -79
l2 -54t1 -54l-1 -44q-2 -27 -2 -53.5v-53.5q0 -36 0.5 -69.5t1.5 -65.5t1.5 -65.5t0.5 -69.5v-23q0 -32 3.5 -65t3.5 -67v-8q-1 -33 -12.5 -47t-44.5 -20q-25 -4 -50 -5.5t-51 -1.5l-50 1q-32 2 -44.5 15t-14.5 45q-6 128 -10 246t-4 246v472q0 40 1 79.5t6 79.5q2 18 6 30
t11.5 19.5t20 11.5t30.5 6q33 5 66 6t67 1l100 -1h39.5t39.5 2q38 2 76.5 4t76.5 2h18q65 -1 128.5 -3.5t127.5 -6.5q31 -2 44.5 -14.5t13.5 -40.5l-1 -13q-5 -53 -6.5 -105t-1.5 -105t1 -105t3 -105l1 -63q0 -56 -1.5 -111t-1.5 -110l2 -95q1 -38 2 -73t1.5 -69.5t2 -69
t4.5 -72.5v-40q-1 -25 -12 -37.5t-35 -17.5q-54 -9 -109 -9z" />
    <glyph glyph-name="summation" unicode="&#x2211;" 
d="M496 -307q-92 0 -183.5 4t-183.5 6q-29 0 -44 13.5t-15 37.5q0 15 6 35q29 93 58 185t61 188l47 145q3 9 3 17t-3 17q-38 124 -76.5 249.5t-81.5 247.5q-4 11 -8.5 20.5t-9.5 19.5q-6 13 -6 26q0 20 13 35.5t36 19.5l14 1h6q63 -2 124 -3t124 -3q57 -3 114 -3
q26 0 52.5 1t52.5 4l20 1q5 0 10 -0.5t10 -2.5q28 -9 31 -37v-6q0 -26 -27 -39q-10 -5 -21 -6l-22 -2q-63 -6 -127 -6q-24 0 -48 1t-48 3l-15 2q-7 0 -12 -4l-1 -7q0 -10 4 -18.5t7 -16.5q31 -96 63 -193t59 -194q5 -17 9.5 -33t11.5 -31q5 -11 7 -20.5t2 -20.5
q0 -20 -7 -41q-39 -112 -76.5 -226.5t-71.5 -229.5l-4 -12t-2 -14q0 -6 1 -10q32 -5 64 -7t64 -2h39t39 2q17 2 32.5 3.5t31.5 1.5q23 -1 36 -11.5t15 -29.5v-4q0 -34 -42 -45q-24 -5 -48 -6l-48 -2h-36z" />
    <glyph glyph-name="minus" unicode="&#x2212;" horiz-adv-x="719" 
d="M488 292q-72 0 -144 9h-216q-10 0 -19.5 0.5t-19.5 5.5q-29 13 -29 40v3q0 33 37 41q8 2 15 2.5t15 0.5l30 -1q68 -4 135.5 -4t135.5 -5q13 -1 25.5 -1.5t24.5 -0.5q27 0 53.5 2t52.5 4l20 2l20 -2q15 -3 24 -14t11 -25v-3q0 -14 -7 -25t-21 -16t-27.5 -7t-27.5 -3
q-44 -3 -88 -3z" />
    </font>
</defs>
</svg>
